STARTFONT 2.1
COMMENT
COMMENT Converted from OpenType font "weyland.otf" by "otf2bdf 3.0".
COMMENT
FONT -FreeType-Neuropolitical Rg-Medium-R-Normal--100-720-100-100-P-647-ISO10646-1
SIZE 72 100 100
FONTBOUNDINGBOX 154 120 -14 -22
STARTPROPERTIES 19
FOUNDRY "FreeType"
FAMILY_NAME "Neuropolitical Rg"
WEIGHT_NAME "Medium"
SLANT "R"
SETWIDTH_NAME "Normal"
ADD_STYLE_NAME ""
PIXEL_SIZE 100
POINT_SIZE 720
RESOLUTION_X 100
RESOLUTION_Y 100
SPACING "P"
AVERAGE_WIDTH 647
CHARSET_REGISTRY "ISO10646"
CHARSET_ENCODING "1"
FONT_ASCENT 98
FONT_DESCENT 22
COPYRIGHT "(c) 1999-2011 Typodermic Fonts. www.typodermic.com/license.html - Design: Ray Larabie Languages & kerning: Chikako Larabie"
_OTF_FONTFILE "weyland.otf"
_OTF_PSNAME "NeuropoliticalRg-Regular"
ENDPROPERTIES
CHARS 385
STARTCHAR 0017
ENCODING 23
SWIDTH 400 0
DWIDTH 40 0
BBX 0 0 0 0
BITMAP
ENDCHAR
STARTCHAR 0020
ENCODING 32
SWIDTH 400 0
DWIDTH 40 0
BBX 0 0 0 0
BITMAP
ENDCHAR
STARTCHAR 0021
ENCODING 33
SWIDTH 280 0
DWIDTH 28 0
BBX 15 68 7 0
BITMAP
FFFE
FFFE
FFFE
FFFE
FFFE
FFFE
FFFE
FFFE
FFFE
FFFE
FFFE
FFFE
FFFE
FFFE
FFFE
FFFE
FFFE
FFFE
FFFE
FFFE
FFFE
FFFE
FFFE
FFFE
FFFE
FFFE
FFFE
FFFE
FFFE
FFFE
FFFE
FFFE
FFFE
FFFE
FFFE
FFFE
FFFE
FFFE
FFFE
FFFE
FFFE
FFFE
FFFE
FFFE
FFFE
FFFE
FFFE
0000
0000
0000
0000
0000
0000
3FF0
FFFC
FFFC
FFFE
FFFE
FFFE
FFFE
FFFE
FFFE
FFFE
FFFE
FFFE
FFFC
FFFC
3FF8
ENDCHAR
STARTCHAR 0022
ENCODING 34
SWIDTH 420 0
DWIDTH 42 0
BBX 34 26 4 46
BITMAP
FFFC0FFFC0
FFFC0FFF80
FFFC0FFF80
FFF80FFF80
FFF80FFF80
FFF80FFF80
7FF80FFF80
7FF807FF80
7FF807FF80
7FF807FF80
7FF807FF80
7FF807FF80
7FF807FF80
7FF807FF80
7FF807FF80
7FF807FF80
7FF807FF80
7FF807FF00
7FF007FF00
7FF007FF00
7FF007FF00
7FF007FF00
7FF007FF00
3FF007FF00
3FF007FF00
3FF003FF00
ENDCHAR
STARTCHAR 0023
ENCODING 35
SWIDTH 660 0
DWIDTH 66 0
BBX 61 68 2 0
BITMAP
00003FF0001FF800
00003FF0001FF800
00003FF0001FF800
00003FE0001FF000
00007FE0001FF000
00007FE0003FF000
00007FE0003FF000
00007FE0003FF000
00007FE0003FF000
00007FE0003FF000
00007FC0003FE000
0000FFC0003FE000
0000FFC0007FE000
0000FFC0007FE000
0000FFC0007FE000
0000FFC0007FE000
07FFFFFFFFFFFFF8
07FFFFFFFFFFFFF8
07FFFFFFFFFFFFF8
07FFFFFFFFFFFFF8
07FFFFFFFFFFFFF8
0FFFFFFFFFFFFFF0
0FFFFFFFFFFFFFF0
0FFFFFFFFFFFFFF0
0FFFFFFFFFFFFFF0
0FFFFFFFFFFFFFF0
0003FF0001FF8000
0003FF0001FF8000
0003FF0001FF8000
0003FF0001FF8000
0003FF0001FF8000
0003FF0001FF0000
0003FE0001FF0000
0007FE0001FF0000
0007FE0003FF0000
0007FE0003FF0000
0007FE0003FF0000
0007FE0003FF0000
0007FE0003FF0000
0007FC0003FE0000
0007FC0003FE0000
000FFC0007FE0000
3FFFFFFFFFFFFFC0
3FFFFFFFFFFFFFC0
7FFFFFFFFFFFFF80
7FFFFFFFFFFFFF80
7FFFFFFFFFFFFF80
7FFFFFFFFFFFFF80
7FFFFFFFFFFFFF80
7FFFFFFFFFFFFF80
7FFFFFFFFFFFFF80
FFFFFFFFFFFFFF00
001FF8000FFC0000
001FF8000FF80000
001FF0000FF80000
003FF0000FF80000
003FF0001FF80000
003FF0001FF80000
003FF0001FF80000
003FF0001FF80000
003FF0001FF80000
003FE0001FF00000
003FE0001FF00000
007FE0003FF00000
007FE0003FF00000
007FE0003FF00000
007FE0003FF00000
007FE0003FF00000
ENDCHAR
STARTCHAR 0024
ENCODING 36
SWIDTH 840 0
DWIDTH 84 0
BBX 74 80 5 -7
BITMAP
00000000FFE000000000
00000000FFE000000000
00000000FFE000000000
00000000FFE000000000
00000000FFE000000000
0003FFFFFFE000000000
003FFFFFFFE000000000
01FFFFFFFFE000000000
03FFFFFFFFE000000000
07FFFFFFFFE000000000
0FFFFFFFFFE000000000
1FFFFFFFFFE000000000
1FFFFFFFFFE000000000
3FFFFFFFFFE000000000
3FFFFFFFFFE000000000
3FFFFFFFFFE000000000
7FFFFFFFFFE000000000
7FFFFFFFFFE000000000
7FFF8000FFE000000000
7FFE0000FFE000000000
7FFE0000FFE000000000
7FFC0000FFE000000000
7FFC0000FFE000000000
7FFC0000FFE000000000
7FFC0000FFE000000000
7FFC0000FFE000000000
7FFC0000FFE000000000
7FFC0000FFE000000000
7FFC0000FFE000000000
7FFE0000FFE000000000
7FFE0000FFE000000000
7FFE0000FFE000000000
7FFF8000FFE000000000
7FFFFFFFFFFFFFF00000
7FFFFFFFFFFFFFFF8000
3FFFFFFFFFFFFFFFE000
3FFFFFFFFFFFFFFFF800
3FFFFFFFFFFFFFFFFC00
1FFFFFFFFFFFFFFFFE00
0FFFFFFFFFFFFFFFFE00
07FFFFFFFFFFFFFFFF00
03FFFFFFFFFFFFFFFF00
00FFFFFFFFFFFFFFFF80
001FFFFFFFFFFFFFFF80
00000000FFE003FFFF80
00000000FFE0003FFF80
00000000FFE0001FFFC0
00000000FFE0000FFFC0
00000000FFE0000FFFC0
00000000FFE0000FFFC0
00000000FFE0000FFFC0
00000000FFE0000FFFC0
00000000FFE0000FFFC0
00000000FFE0000FFFC0
00000000FFE0000FFFC0
00000000FFE0000FFFC0
00000000FFE0000FFFC0
00000000FFE0000FFFC0
00000000FFE0001FFFC0
00000000FFE0003FFFC0
FFFFFFFFFFFFFFFFFF80
FFFFFFFFFFFFFFFFFF80
FFFFFFFFFFFFFFFFFF80
FFFFFFFFFFFFFFFFFF80
FFFFFFFFFFFFFFFFFF00
FFFFFFFFFFFFFFFFFF00
FFFFFFFFFFFFFFFFFE00
FFFFFFFFFFFFFFFFFC00
FFFFFFFFFFFFFFFFFC00
FFFFFFFFFFFFFFFFF000
FFFFFFFFFFFFFFFFE000
FFFFFFFFFFFFFFFF8000
FFFFFFFFFFFFFFF00000
00000000FFE000000000
00000000FFE000000000
00000000FFE000000000
00000000FFE000000000
00000000FFE000000000
00000000FFE000000000
00000000FFE000000000
ENDCHAR
STARTCHAR 0025
ENCODING 37
SWIDTH 1050 0
DWIDTH 105 0
BBX 95 70 5 -1
BITMAP
00FFFFFF8000000000000000
07FFFFFFF00000007FF80000
1FFFFFFFF8000000FFF00000
3FFFFFFFFC000000FFE00000
7FFFFFFFFE000001FFC00000
7FFFFFFFFE000003FFC00000
7FFFFFFFFF000007FF800000
FFFFFFFFFF000007FF000000
FFE00007FF00000FFF000000
FFC00003FF00001FFE000000
FFC00001FF00001FFC000000
FFC00001FF00003FFC000000
FFC00001FF00007FF8000000
FFC00001FF0000FFF0000000
FFC00001FF0000FFE0000000
FFC00001FF0001FFE0000000
FFC00001FF0003FFC0000000
FFC00001FF0003FF80000000
FFC00001FF0007FF80000000
FFC00001FF000FFF00000000
FFC00001FF000FFE00000000
FFC00001FF001FFC00000000
FFC00001FF003FFC00000000
FFC00001FF007FF800000000
FFC00003FF007FF000000000
FFE00007FF00FFF000000000
FFFFFFFFFF01FFE000000000
7FFFFFFFFF01FFC000000000
7FFFFFFFFE03FFC000000000
7FFFFFFFFE07FF8000000000
3FFFFFFFFC0FFF0000000000
1FFFFFFFF80FFE0000000000
0FFFFFFFF01FFE0000000000
00FFFFFF803FFC0000000000
00000000003FF80000000000
00000000007FF80000000000
0000000000FFF003FFFFFE00
0000000000FFE01FFFFFFFC0
0000000001FFC03FFFFFFFF0
0000000003FFC07FFFFFFFF8
0000000007FF80FFFFFFFFF8
0000000007FF00FFFFFFFFFC
000000000FFF01FFFFFFFFFC
000000001FFE01FFFFFFFFFC
000000001FFC01FFC0001FFE
000000003FFC01FF800007FE
000000007FF801FF000007FE
000000007FF001FF000007FE
00000000FFE001FF000007FE
00000001FFE001FF000007FE
00000003FFC001FF000007FE
00000003FF8001FF000007FE
00000007FF8001FF000007FE
0000000FFF0001FF000007FE
0000000FFE0001FF000007FE
0000001FFE0001FF000007FE
0000003FFC0001FF000007FE
0000007FF80001FF000007FE
0000007FF00001FF000007FE
000000FFF00001FF000007FE
000001FFE00001FF000007FE
000001FFC00001FFC0000FFE
000003FFC00001FFFFFFFFFC
000007FF800001FFFFFFFFFC
000007FF000000FFFFFFFFFC
00000FFE000000FFFFFFFFF8
00001FFE0000007FFFFFFFF8
00003FFC0000003FFFFFFFF0
00003FF80000001FFFFFFFC0
0000000000000003FFFFFE00
ENDCHAR
STARTCHAR 0026
ENCODING 38
SWIDTH 930 0
DWIDTH 93 0
BBX 89 68 4 0
BITMAP
00003FFFFFFFF80000000000
0003FFFFFFFFFF8000000000
000FFFFFFFFFFFE000000000
001FFFFFFFFFFFF800000000
003FFFFFFFFFFFFC00000000
007FFFFFFFFFFFFC00000000
00FFFFFFFFFFFFFE00000000
00FFFFFFFFFFFFFF00000000
00FFFFFFFFFFFFFF00000000
00FFFFFFFFFFFFFF00000000
01FFFFFFFFFFFFFF80000000
01FFFF000000FFFF80000000
01FFF80000003FFF80000000
01FFF80000001FFF80000000
01FFF00000001FFF80000000
01FFF00000001FFF80000000
01FFF00000001FFF80000000
01FFF00000001FFF80000000
01FFF00000001FFF80000000
01FFF00000001FFF80000000
01FFF00000001FFF80000000
01FFF80000001FFF80000000
00FFF80000003FFF00000000
00FFFC000001FFFF00000000
00FFFE00001FFFFF00000000
007FFF0001FFFFFE00000000
003FFFC03FFFFFFE00000000
001FFFF3FFFFFFFC00000000
000FFFFFFFFFFFF800000000
0007FFFFFFFFFFE000000000
0003FFFFFFFFFF8000000000
0003FFFFFFFFFC0000000000
003FFFFFFFFFE00000000000
00FFFFFFFFFC000000000000
03FFFFFFFFC0000000000000
0FFFFFFFFF0000003FFE0000
1FFFFFFFFF8000003FFE0000
1FFFFFFFFFE000003FFE0000
3FFFFFFFFFF800003FFE0000
7FFFFC0FFFFC00003FFE0000
7FFFE007FFFF00003FFE0000
7FFF8001FFFF80003FFE0000
7FFF00007FFFE0003FFE0000
7FFF00003FFFF0003FFE0000
FFFE00000FFFFC003FFE0000
FFFE000007FFFF007FFE0000
FFFE000001FFFF807FFE0000
FFFE000000FFFFE07FFC0000
FFFE0000003FFFF0FFFC0000
FFFE0000001FFFFCFFFC0000
FFFE00000007FFFFFFFC0000
FFFE00000001FFFFFFF80000
FFFE00000000FFFFFFF80000
FFFF000000003FFFFFF00000
FFFF000000001FFFFFF00000
7FFFC00000000FFFFFE00000
7FFFFFFFFFFFFFFFFFC00000
7FFFFFFFFFFFFFFFFFC00000
7FFFFFFFFFFFFFFFFFF00000
3FFFFFFFFFFFFFFFFFF80000
3FFFFFFFFFFFFFFFFFFE0000
1FFFFFFFFFFFFFFFFFFF0000
0FFFFFFFFFFFFFFFFFFFC000
07FFFFFFFFFFFFFFFFFFE000
03FFFFFFFFFFFFFFBFFFF800
00FFFFFFFFFFFFFC0FFFFC00
001FFFFFFFFFFFE007FFFF00
0003FFFFFFFFF80001FFFF80
ENDCHAR
STARTCHAR 0027
ENCODING 39
SWIDTH 220 0
DWIDTH 22 0
BBX 14 26 4 46
BITMAP
FFFC
FFFC
FFFC
FFF8
FFF8
FFF8
7FF8
7FF8
7FF8
7FF8
7FF8
7FF8
7FF8
7FF8
7FF8
7FF8
7FF8
7FF8
7FF0
7FF0
7FF0
7FF0
7FF0
3FF0
3FF0
3FF0
ENDCHAR
STARTCHAR 0028
ENCODING 40
SWIDTH 360 0
DWIDTH 36 0
BBX 24 108 11 -22
BITMAP
0001FF
001FFF
007FFF
01FFFF
03FFFF
07FFFF
0FFFFF
1FFFFF
3FFF00
3FFC00
7FF800
7FF000
7FE000
FFE000
FFC000
FFC000
FFC000
FFC000
FFC000
FFC000
FFC000
FFC000
FFC000
FFC000
FFC000
FFC000
FFC000
FFC000
FFC000
FFC000
FFC000
FFC000
FFC000
FFC000
FFC000
FFC000
FFC000
FFC000
FFC000
FFC000
FFC000
FFC000
FFC000
FFC000
FFC000
FFC000
FFC000
FFC000
FFC000
FFC000
FFC000
FFC000
FFC000
FFC000
FFC000
FFC000
FFC000
FFC000
FFC000
FFC000
FFC000
FFC000
FFC000
FFC000
FFC000
FFC000
FFC000
FFC000
FFC000
FFC000
FFC000
FFC000
FFC000
FFC000
FFC000
FFC000
FFC000
FFC000
FFC000
FFC000
FFC000
FFC000
FFC000
FFC000
FFC000
FFC000
FFC000
FFC000
FFC000
FFC000
FFC000
FFC000
FFC000
FFC000
FFC000
7FE000
7FF000
7FF000
3FFC00
3FFF00
1FFFFF
0FFFFF
07FFFF
03FFFF
01FFFF
007FFF
001FFF
0001FF
ENDCHAR
STARTCHAR 0029
ENCODING 41
SWIDTH 360 0
DWIDTH 36 0
BBX 24 108 1 -22
BITMAP
FF8000
FFF000
FFFC00
FFFF00
FFFFC0
FFFFE0
FFFFF0
FFFFF0
01FFF8
003FFC
001FFC
000FFE
000FFE
0007FE
0007FE
0003FF
0003FF
0003FF
0003FF
0003FF
0003FF
0003FF
0003FF
0003FF
0003FF
0003FF
0003FF
0003FF
0003FF
0003FF
0003FF
0003FF
0003FF
0003FF
0003FF
0003FF
0003FF
0003FF
0003FF
0003FF
0003FF
0003FF
0003FF
0003FF
0003FF
0003FF
0003FF
0003FF
0003FF
0003FF
0003FF
0003FF
0003FF
0003FF
0003FF
0003FF
0003FF
0003FF
0003FF
0003FF
0003FF
0003FF
0003FF
0003FF
0003FF
0003FF
0003FF
0003FF
0003FF
0003FF
0003FF
0003FF
0003FF
0003FF
0003FF
0003FF
0003FF
0003FF
0003FF
0003FF
0003FF
0003FF
0003FF
0003FF
0003FF
0003FF
0003FF
0003FF
0003FF
0003FF
0003FF
0003FF
0003FF
0007FE
0007FE
0007FE
000FFE
001FFC
003FFC
01FFF8
FFFFF0
FFFFF0
FFFFE0
FFFFC0
FFFF00
FFFE00
FFF000
FF8000
ENDCHAR
STARTCHAR 002A
ENCODING 42
SWIDTH 570 0
DWIDTH 57 0
BBX 49 47 4 29
BITMAP
00000FF8000000
00000FF8000000
00000FF8000000
00000FF8000000
00000FF0000000
00000FF0000000
00000FF0000000
00000FF0000000
00000FF0000000
00000FF0000000
00000FF0000000
00000FF0000000
00000FF0000000
30000FF0000600
3E000FF0003E00
7F800FF001FE00
7FF00FF00FFF00
7FFE0FF03FFF00
FFFF8FF1FFFF00
FFFFFFFFFFFF80
FFFFFFFFFFFF80
FFFFFFFFFFFF00
0FFFFFFFFFF800
01FFFFFFFF8000
001FFFFFFC0000
0003FFFFC00000
00003FFE000000
00003FFE000000
00007FFF000000
0000FFFF800000
0001FFFF800000
0003FF7FC00000
0003FE7FE00000
0007FE3FF00000
000FFC1FF00000
001FF81FF80000
003FF80FFC0000
003FF007FE0000
007FE007FF0000
00FFE003FF0000
01FFC001FF8000
01FF8001FFC000
01FF0000FF8000
00FF00007F0000
003E00007E0000
001C0000380000
00040000100000
ENDCHAR
STARTCHAR 002B
ENCODING 43
SWIDTH 590 0
DWIDTH 59 0
BBX 47 47 6 12
BITMAP
00001FF00000
00001FF00000
00001FF00000
00001FF00000
00001FF00000
00001FF00000
00001FF00000
00001FF00000
00001FF00000
00001FF00000
00001FF00000
00001FF00000
00001FF00000
00001FF00000
00001FF00000
00001FF00000
00001FF00000
00001FF00000
00001FF00000
FFFFFFFFFFFE
FFFFFFFFFFFE
FFFFFFFFFFFE
FFFFFFFFFFFE
FFFFFFFFFFFE
FFFFFFFFFFFE
FFFFFFFFFFFE
FFFFFFFFFFFE
FFFFFFFFFFFE
FFFFFFFFFFFE
00001FF00000
00001FF00000
00001FF00000
00001FF00000
00001FF00000
00001FF00000
00001FF00000
00001FF00000
00001FF00000
00001FF00000
00001FF00000
00001FF00000
00001FF00000
00001FF00000
00001FF00000
00001FF00000
00001FF00000
00001FF00000
ENDCHAR
STARTCHAR 002C
ENCODING 44
SWIDTH 240 0
DWIDTH 24 0
BBX 17 24 4 -7
BITMAP
3FFF80
3FFF80
3FFF00
3FFF00
3FFF00
3FFF00
3FFE00
3FFE00
3FFE00
7FFE00
7FFE00
7FFC00
7FFC00
7FFC00
7FFC00
7FF800
7FF800
7FF800
7FF800
7FF000
FFF000
FFF000
FFF000
FFE000
ENDCHAR
STARTCHAR 002D
ENCODING 45
SWIDTH 400 0
DWIDTH 40 0
BBX 33 12 3 26
BITMAP
FFFFFFFF80
FFFFFFFF80
FFFFFFFF80
FFFFFFFF80
FFFFFFFF80
FFFFFFFF80
FFFFFFFF80
FFFFFFFF80
FFFFFFFF80
FFFFFFFF80
FFFFFFFF80
FFFFFFFF80
ENDCHAR
STARTCHAR 002E
ENCODING 46
SWIDTH 270 0
DWIDTH 27 0
BBX 15 17 6 0
BITMAP
3FF8
7FFC
FFFE
FFFE
FFFE
FFFE
FFFE
FFFE
FFFE
FFFE
FFFE
FFFE
FFFE
FFFE
FFFE
7FFC
3FF8
ENDCHAR
STARTCHAR 002F
ENCODING 47
SWIDTH 510 0
DWIDTH 51 0
BBX 49 82 1 -10
BITMAP
0000000007FF80
0000000007FF80
0000000007FF00
000000000FFF00
000000000FFF00
000000001FFE00
000000001FFE00
000000003FFC00
000000003FFC00
000000007FF800
000000007FF800
00000000FFF000
00000000FFF000
00000001FFE000
00000001FFE000
00000003FFC000
00000003FFC000
00000003FF8000
00000007FF8000
00000007FF8000
0000000FFF0000
0000000FFF0000
0000001FFE0000
0000001FFE0000
0000003FFC0000
0000003FFC0000
0000007FF80000
0000007FF80000
000000FFF00000
000000FFF00000
000001FFE00000
000001FFE00000
000001FFC00000
000003FFC00000
000003FFC00000
000007FF800000
000007FF800000
00000FFF000000
00000FFF000000
00001FFE000000
00001FFE000000
00003FFC000000
00003FFC000000
00007FF8000000
00007FF8000000
0000FFF0000000
0000FFF0000000
0001FFE0000000
0001FFE0000000
0001FFE0000000
0003FFC0000000
0003FFC0000000
0007FF80000000
0007FF80000000
000FFF00000000
000FFF00000000
001FFE00000000
001FFE00000000
003FFC00000000
003FFC00000000
007FF800000000
007FF800000000
00FFF000000000
00FFF000000000
00FFF000000000
01FFE000000000
01FFE000000000
03FFC000000000
03FFC000000000
07FF8000000000
07FF8000000000
0FFF0000000000
0FFF0000000000
1FFE0000000000
1FFE0000000000
3FFC0000000000
3FFC0000000000
7FF80000000000
7FF80000000000
7FF80000000000
FFF00000000000
FFF00000000000
ENDCHAR
STARTCHAR 0030
ENCODING 48
SWIDTH 900 0
DWIDTH 90 0
BBX 79 68 5 0
BITMAP
00003FFFFFFFFFF80000
0007FFFFFFFFFFFFE000
003FFFFFFFFFFFFFF800
00FFFFFFFFFFFFFFFE00
01FFFFFFFFFFFFFFFF80
03FFFFFFFFFFFFFFFFC0
07FFFFFFFFFFFFFFFFE0
0FFFFFFFFFFFFFFFFFF0
1FFFFFFFFFFFFFFFFFF0
1FFFFFFFFFFFFFFFFFF8
3FFFFFFFFFFFFFFFFFF8
3FFFFFFFFFFFFFFFFFFC
3FFFFFFFFFFFFFFFFFFC
7FFFFC000000007FFFFC
7FFFE0000000000FFFFC
7FFFC00000000003FFFE
7FFF800000000003FFFE
7FFF000000000001FFFE
7FFF000000000001FFFE
FFFF000000000001FFFE
FFFF000000000000FFFE
FFFF000000000000FFFE
FFFF000000000000FFFE
FFFF000000000000FFFE
FFFF000000000000FFFE
FFFF000000000000FFFE
FFFF000000000000FFFE
FFFF000000000000FFFE
FFFF000000000000FFFE
FFFF000000000000FFFE
FFFF000000000000FFFE
FFFF000000000000FFFE
FFFF000000000000FFFE
FFFF000000000000FFFE
FFFF000000000000FFFE
FFFF000000000000FFFE
FFFF000000000000FFFE
FFFF000000000000FFFE
FFFF000000000000FFFE
FFFF000000000000FFFE
FFFF000000000000FFFE
FFFF000000000000FFFE
FFFF000000000000FFFE
FFFF000000000000FFFE
FFFF000000000000FFFE
FFFF000000000000FFFE
FFFF000000000000FFFE
FFFF000000000000FFFE
FFFF000000000000FFFE
7FFF000000000001FFFE
7FFF000000000001FFFE
7FFF800000000001FFFE
7FFF800000000003FFFE
7FFFE00000000007FFFC
7FFFF8000000003FFFFC
3FFFFFFFFFFFFFFFFFFC
3FFFFFFFFFFFFFFFFFFC
3FFFFFFFFFFFFFFFFFF8
1FFFFFFFFFFFFFFFFFF8
1FFFFFFFFFFFFFFFFFF0
0FFFFFFFFFFFFFFFFFF0
07FFFFFFFFFFFFFFFFE0
03FFFFFFFFFFFFFFFFC0
01FFFFFFFFFFFFFFFF80
00FFFFFFFFFFFFFFFE00
003FFFFFFFFFFFFFF800
0007FFFFFFFFFFFFE000
00007FFFFFFFFFFC0000
ENDCHAR
STARTCHAR 0031
ENCODING 49
SWIDTH 270 0
DWIDTH 27 0
BBX 15 68 6 0
BITMAP
FFFE
FFFE
FFFE
FFFE
FFFE
FFFE
FFFE
FFFE
FFFE
FFFE
FFFE
FFFE
FFFE
FFFE
FFFE
FFFE
FFFE
FFFE
FFFE
FFFE
FFFE
FFFE
FFFE
FFFE
FFFE
FFFE
FFFE
FFFE
FFFE
FFFE
FFFE
FFFE
FFFE
FFFE
FFFE
FFFE
FFFE
FFFE
FFFE
FFFE
FFFE
FFFE
FFFE
FFFE
FFFE
FFFE
FFFE
FFFE
FFFE
FFFE
FFFE
FFFE
FFFE
FFFE
FFFE
FFFE
FFFE
FFFE
FFFE
FFFE
FFFE
FFFE
FFFE
FFFE
FFFE
FFFE
FFFE
FFFE
ENDCHAR
STARTCHAR 0032
ENCODING 50
SWIDTH 920 0
DWIDTH 92 0
BBX 81 68 5 0
BITMAP
000000000FFFFFFFF00000
000000000FFFFFFFFF0000
000000000FFFFFFFFFC000
000000000FFFFFFFFFF000
000000000FFFFFFFFFF800
000000000FFFFFFFFFFC00
000000000FFFFFFFFFFC00
000000000FFFFFFFFFFE00
000000000FFFFFFFFFFE00
000000000FFFFFFFFFFF00
000000000FFFFFFFFFFF00
000000000FFFFFFFFFFF00
000000000FFFFFFFFFFF80
00000000000000007FFF80
00000000000000003FFF80
00000000000000001FFF80
00000000000000001FFF80
00000000000000001FFF80
00000000000000001FFF80
00000000000000001FFF80
00000000000000001FFF80
00000000000000001FFF80
00000000000000001FFF80
00000000000000001FFF80
00000000000000001FFF80
00000000000000001FFF80
00000000000000003FFF80
0000000000000000FFFF80
0007FFFFFFFFFFFFFFFF80
007FFFFFFFFFFFFFFFFF80
01FFFFFFFFFFFFFFFFFF00
07FFFFFFFFFFFFFFFFFF00
0FFFFFFFFFFFFFFFFFFF00
1FFFFFFFFFFFFFFFFFFE00
3FFFFFFFFFFFFFFFFFFC00
3FFFFFFFFFFFFFFFFFFC00
7FFFFFFFFFFFFFFFFFF000
7FFFFFFFFFFFFFFFFFE000
7FFFFFFFFFFFFFFFFF0000
FFFFFFFFFFFFFFFC000000
FFFF000000000000000000
FFFE000000000000000000
FFFC000000000000000000
FFFC000000000000000000
FFFC000000000000000000
FFFC000000000000000000
FFFC000000000000000000
FFFC000000000000000000
FFFC000000000000000000
FFFC000000000000000000
FFFC000000000000000000
FFFC000000000000000000
FFFC000000000000000000
FFFC000000000000000000
FFFC000000000000000000
FFFFFFFFFFFFFFFFFFFF80
FFFFFFFFFFFFFFFFFFFF80
FFFFFFFFFFFFFFFFFFFF80
FFFFFFFFFFFFFFFFFFFF80
FFFFFFFFFFFFFFFFFFFF80
FFFFFFFFFFFFFFFFFFFF80
FFFFFFFFFFFFFFFFFFFF80
FFFFFFFFFFFFFFFFFFFF80
FFFFFFFFFFFFFFFFFFFF80
FFFFFFFFFFFFFFFFFFFF80
FFFFFFFFFFFFFFFFFFFF80
FFFFFFFFFFFFFFFFFFFF80
FFFFFFFFFFFFFFFFFFFF80
ENDCHAR
STARTCHAR 0033
ENCODING 51
SWIDTH 900 0
DWIDTH 90 0
BBX 82 68 4 0
BITMAP
0000000007FFFFFFE00000
0000000007FFFFFFFE0000
0000000007FFFFFFFFC000
0000000007FFFFFFFFF000
0000000007FFFFFFFFF800
0000000007FFFFFFFFFC00
0000000007FFFFFFFFFE00
0000000007FFFFFFFFFE00
0000000007FFFFFFFFFF00
0000000007FFFFFFFFFF00
0000000007FFFFFFFFFF00
0000000007FFFFFFFFFF00
0000000007FFFFFFFFFF80
0000000000000000FFFF80
00000000000000003FFF80
00000000000000003FFF80
00000000000000003FFF80
00000000000000001FFF80
00000000000000001FFF80
00000000000000001FFF80
00000000000000001FFF80
00000000000000001FFF80
00000000000000001FFF80
00000000000000001FFF80
00000000000000003FFF80
00000000000000003FFF00
00000000000000007FFF00
0000000000000000FFFF00
7FFFFFFFFFFFFFFFFFFF00
7FFFFFFFFFFFFFFFFFFE00
7FFFFFFFFFFFFFFFFFFC00
7FFFFFFFFFFFFFFFFFF800
7FFFFFFFFFFFFFFFFFF000
7FFFFFFFFFFFFFFFFFC000
7FFFFFFFFFFFFFFFFFF000
7FFFFFFFFFFFFFFFFFFC00
7FFFFFFFFFFFFFFFFFFE00
7FFFFFFFFFFFFFFFFFFF00
7FFFFFFFFFFFFFFFFFFF00
7FFFFFFFFFFFFFFFFFFF80
00000000000000007FFF80
00000000000000003FFF80
00000000000000001FFF80
00000000000000001FFFC0
00000000000000001FFFC0
00000000000000000FFFC0
00000000000000000FFFC0
00000000000000000FFFC0
00000000000000000FFFC0
00000000000000000FFFC0
00000000000000000FFFC0
00000000000000001FFFC0
00000000000000001FFFC0
00000000000000001FFFC0
00000000000000007FFFC0
FFFFFFFFFFFFFFFFFFFFC0
FFFFFFFFFFFFFFFFFFFFC0
FFFFFFFFFFFFFFFFFFFF80
FFFFFFFFFFFFFFFFFFFF80
FFFFFFFFFFFFFFFFFFFF80
FFFFFFFFFFFFFFFFFFFF00
FFFFFFFFFFFFFFFFFFFF00
FFFFFFFFFFFFFFFFFFFE00
FFFFFFFFFFFFFFFFFFFC00
FFFFFFFFFFFFFFFFFFF800
FFFFFFFFFFFFFFFFFFE000
FFFFFFFFFFFFFFFFFF8000
FFFFFFFFFFFFFFFFF00000
ENDCHAR
STARTCHAR 0034
ENCODING 52
SWIDTH 970 0
DWIDTH 97 0
BBX 84 68 5 0
BITMAP
FFFE00000000000007FFF0
FFFE00000000000007FFF0
FFFE00000000000007FFF0
FFFE00000000000007FFF0
FFFE00000000000007FFF0
FFFE00000000000007FFF0
FFFE00000000000007FFF0
FFFE00000000000007FFF0
FFFE00000000000007FFF0
FFFE00000000000007FFF0
FFFE00000000000007FFF0
FFFE00000000000007FFF0
FFFE00000000000007FFF0
FFFE00000000000007FFF0
FFFE00000000000007FFF0
FFFE00000000000007FFF0
FFFE00000000000007FFF0
FFFE00000000000007FFF0
FFFE00000000000007FFF0
FFFE00000000000007FFF0
FFFE00000000000007FFF0
FFFE00000000000007FFF0
FFFE00000000000007FFF0
FFFE00000000000007FFF0
FFFE00000000000007FFF0
FFFE00000000000007FFF0
FFFE00000000000007FFF0
FFFE00000000000007FFF0
FFFE00000000000007FFF0
FFFE00000000000007FFF0
FFFE00000000000007FFF0
FFFE00000000000007FFF0
FFFE00000000000007FFF0
FFFE00000000000007FFF0
FFFE00000000000007FFF0
FFFE00000000000007FFF0
FFFFFFFFFFFFFFFFFFFFF0
FFFFFFFFFFFFFFFFFFFFF0
FFFFFFFFFFFFFFFFFFFFF0
FFFFFFFFFFFFFFFFFFFFF0
FFFFFFFFFFFFFFFFFFFFF0
FFFFFFFFFFFFFFFFFFFFF0
FFFFFFFFFFFFFFFFFFFFF0
FFFFFFFFFFFFFFFFFFFFF0
FFFFFFFFFFFFFFFFFFFFF0
FFFFFFFFFFFFFFFFFFFFF0
FFFFFFFFFFFFFFFFFFFFF0
FFFFFFFFFFFFFFFFFFFFF0
FFFFFFFFFFFFFFFFFFFFF0
000000000000000007FFF0
000000000000000007FFF0
000000000000000007FFF0
000000000000000007FFF0
000000000000000007FFF0
000000000000000007FFF0
000000000000000007FFF0
000000000000000007FFF0
000000000000000007FFF0
000000000000000007FFF0
000000000000000007FFF0
000000000000000007FFF0
000000000000000007FFF0
000000000000000007FFF0
000000000000000007FFF0
000000000000000007FFF0
000000000000000007FFF0
000000000000000007FFF0
000000000000000007FFF0
ENDCHAR
STARTCHAR 0035
ENCODING 53
SWIDTH 940 0
DWIDTH 94 0
BBX 83 68 6 0
BITMAP
FFFFFFFFFFFF8000000000
FFFFFFFFFFFF8000000000
FFFFFFFFFFFF8000000000
FFFFFFFFFFFF8000000000
FFFFFFFFFFFF8000000000
FFFFFFFFFFFF8000000000
FFFFFFFFFFFF8000000000
FFFFFFFFFFFF8000000000
FFFFFFFFFFFF8000000000
FFFFFFFFFFFF8000000000
FFFFFFFFFFFF8000000000
FFFFFFFFFFFF8000000000
FFFFFFFFFFFF8000000000
FFFC000000000000000000
FFFC000000000000000000
FFFC000000000000000000
FFFC000000000000000000
FFFC000000000000000000
FFFC000000000000000000
FFFC000000000000000000
FFFC000000000000000000
FFFC000000000000000000
FFFC000000000000000000
FFFC000000000000000000
FFFC000000000000000000
FFFC000000000000000000
FFFFFFFFFFFFFFFFF00000
FFFFFFFFFFFFFFFFFF8000
FFFFFFFFFFFFFFFFFFF000
FFFFFFFFFFFFFFFFFFF800
FFFFFFFFFFFFFFFFFFFE00
FFFFFFFFFFFFFFFFFFFF00
FFFFFFFFFFFFFFFFFFFF00
FFFFFFFFFFFFFFFFFFFF80
FFFFFFFFFFFFFFFFFFFF80
FFFFFFFFFFFFFFFFFFFFC0
FFFFFFFFFFFFFFFFFFFFC0
FFFFFFFFFFFFFFFFFFFFC0
00000000000000007FFFE0
00000000000000001FFFE0
00000000000000000FFFE0
000000000000000007FFE0
000000000000000007FFE0
000000000000000007FFE0
000000000000000007FFE0
000000000000000007FFE0
000000000000000007FFE0
000000000000000007FFE0
000000000000000007FFE0
000000000000000007FFE0
000000000000000007FFE0
000000000000000007FFE0
000000000000000007FFE0
00000000000000000FFFE0
00000000000000003FFFE0
FFFFFFFFFFFFFFFFFFFFE0
FFFFFFFFFFFFFFFFFFFFC0
FFFFFFFFFFFFFFFFFFFFC0
FFFFFFFFFFFFFFFFFFFFC0
FFFFFFFFFFFFFFFFFFFF80
FFFFFFFFFFFFFFFFFFFF80
FFFFFFFFFFFFFFFFFFFF00
FFFFFFFFFFFFFFFFFFFF00
FFFFFFFFFFFFFFFFFFFE00
FFFFFFFFFFFFFFFFFFF800
FFFFFFFFFFFFFFFFFFF000
FFFFFFFFFFFFFFFFFF8000
FFFFFFFFFFFFFFFFF80000
ENDCHAR
STARTCHAR 0036
ENCODING 54
SWIDTH 940 0
DWIDTH 94 0
BBX 85 68 5 0
BITMAP
00003FFFFFFF0000000000
0007FFFFFFFF0000000000
003FFFFFFFFF0000000000
00FFFFFFFFFF0000000000
01FFFFFFFFFF0000000000
03FFFFFFFFFF0000000000
07FFFFFFFFFF0000000000
0FFFFFFFFFFF0000000000
1FFFFFFFFFFF0000000000
1FFFFFFFFFFF0000000000
3FFFFFFFFFFF0000000000
3FFFFFFFFFFF0000000000
3FFFFFFFFFFF0000000000
7FFFF80000000000000000
7FFFE00000000000000000
7FFF800000000000000000
7FFF800000000000000000
7FFF000000000000000000
7FFF000000000000000000
FFFF000000000000000000
FFFF000000000000000000
FFFF000000000000000000
FFFF000000000000000000
FFFF000000000000000000
FFFF000000000000000000
FFFF000000000000000000
FFFF000000000000000000
FFFFFFFFFFFFFFFFFF8000
FFFFFFFFFFFFFFFFFFF000
FFFFFFFFFFFFFFFFFFFC00
FFFFFFFFFFFFFFFFFFFE00
FFFFFFFFFFFFFFFFFFFF00
FFFFFFFFFFFFFFFFFFFF80
FFFFFFFFFFFFFFFFFFFFC0
FFFFFFFFFFFFFFFFFFFFC0
FFFFFFFFFFFFFFFFFFFFE0
FFFFFFFFFFFFFFFFFFFFE0
FFFFFFFFFFFFFFFFFFFFF0
FFFF0000000000003FFFF0
FFFF0000000000000FFFF0
FFFF00000000000007FFF0
FFFF00000000000007FFF0
FFFF00000000000007FFF0
FFFF00000000000007FFF0
FFFF00000000000007FFF0
FFFF00000000000007FFF8
FFFF00000000000007FFF8
FFFF00000000000007FFF8
FFFF00000000000007FFF8
7FFF00000000000007FFF0
7FFF00000000000007FFF0
7FFF80000000000007FFF0
7FFF80000000000007FFF0
7FFFC000000000000FFFF0
7FFFF800000000001FFFF0
3FFFFFFFFFFFFFFFFFFFF0
3FFFFFFFFFFFFFFFFFFFF0
3FFFFFFFFFFFFFFFFFFFF0
1FFFFFFFFFFFFFFFFFFFE0
1FFFFFFFFFFFFFFFFFFFE0
0FFFFFFFFFFFFFFFFFFFC0
07FFFFFFFFFFFFFFFFFFC0
03FFFFFFFFFFFFFFFFFF80
01FFFFFFFFFFFFFFFFFF00
00FFFFFFFFFFFFFFFFFE00
003FFFFFFFFFFFFFFFFC00
0007FFFFFFFFFFFFFFF000
00007FFFFFFFFFFFFF0000
ENDCHAR
STARTCHAR 0037
ENCODING 55
SWIDTH 900 0
DWIDTH 90 0
BBX 84 68 3 0
BITMAP
FFFFFFFFFFFFFFFFFFFE00
FFFFFFFFFFFFFFFFFFFF80
FFFFFFFFFFFFFFFFFFFFC0
FFFFFFFFFFFFFFFFFFFFE0
FFFFFFFFFFFFFFFFFFFFE0
FFFFFFFFFFFFFFFFFFFFF0
FFFFFFFFFFFFFFFFFFFFF0
FFFFFFFFFFFFFFFFFFFFF0
FFFFFFFFFFFFFFFFFFFFF0
FFFFFFFFFFFFFFFFFFFFE0
FFFFFFFFFFFFFFFFFFFFE0
FFFFFFFFFFFFFFFFFFFFE0
FFFFFFFFFFFFFFFFFFFFC0
0000000000000001FFFF80
0000000000000003FFFF00
0000000000000007FFFF00
000000000000000FFFFE00
000000000000000FFFFC00
000000000000001FFFF800
000000000000003FFFF000
000000000000007FFFF000
00000000000000FFFFE000
00000000000001FFFFC000
00000000000001FFFF8000
00000000000003FFFF0000
00000000000007FFFE0000
0000000000000FFFFE0000
0000000000001FFFFC0000
0000000000003FFFF80000
0000000000007FFFF00000
0000000000007FFFE00000
000000000000FFFFC00000
000000000001FFFFC00000
000000000003FFFF800000
000000000007FFFF000000
00000000000FFFFE000000
00000000000FFFFC000000
00000000001FFFFC000000
00000000003FFFF8000000
00000000007FFFF0000000
0000000000FFFFE0000000
0000000001FFFFC0000000
0000000003FFFF80000000
0000000003FFFF80000000
0000000007FFFF00000000
000000000FFFFE00000000
000000001FFFFC00000000
000000003FFFF800000000
000000007FFFF000000000
000000007FFFF000000000
00000000FFFFE000000000
00000001FFFFC000000000
00000003FFFF8000000000
00000007FFFF0000000000
0000000FFFFF0000000000
0000001FFFFE0000000000
0000001FFFFC0000000000
0000003FFFF80000000000
0000007FFFF00000000000
000000FFFFE00000000000
000001FFFFE00000000000
000003FFFFC00000000000
000003FFFF800000000000
000007FFFF000000000000
00000FFFFE000000000000
00001FFFFC000000000000
00003FFFFC000000000000
00007FFFF8000000000000
ENDCHAR
STARTCHAR 0038
ENCODING 56
SWIDTH 900 0
DWIDTH 90 0
BBX 80 68 5 0
BITMAP
0001FFFFFFFFFFFF8000
003FFFFFFFFFFFFFFC00
00FFFFFFFFFFFFFFFF00
03FFFFFFFFFFFFFFFFC0
07FFFFFFFFFFFFFFFFE0
0FFFFFFFFFFFFFFFFFF0
1FFFFFFFFFFFFFFFFFF8
3FFFFFFFFFFFFFFFFFFC
3FFFFFFFFFFFFFFFFFFC
3FFFFFFFFFFFFFFFFFFC
7FFFFFFFFFFFFFFFFFFE
7FFFFFFFFFFFFFFFFFFE
7FFFFFFFFFFFFFFFFFFE
7FFFC00000000001FFFE
7FFF000000000000FFFE
7FFE0000000000007FFE
7FFE0000000000007FFE
7FFE0000000000007FFE
7FFE0000000000007FFE
7FFE0000000000007FFE
7FFE0000000000007FFE
7FFE0000000000007FFE
7FFE0000000000007FFE
7FFE0000000000007FFE
7FFE0000000000007FFE
7FFF0000000000007FFE
7FFF000000000000FFFE
3FFF800000000001FFFC
3FFFFFFFFFFFFFFFFFFC
1FFFFFFFFFFFFFFFFFF8
1FFFFFFFFFFFFFFFFFF8
07FFFFFFFFFFFFFFFFF0
03FFFFFFFFFFFFFFFFC0
01FFFFFFFFFFFFFFFF80
07FFFFFFFFFFFFFFFFE0
0FFFFFFFFFFFFFFFFFF8
1FFFFFFFFFFFFFFFFFF8
3FFFFFFFFFFFFFFFFFFC
7FFFFFFFFFFFFFFFFFFE
7FFFC00000000003FFFE
7FFF000000000000FFFE
FFFE0000000000007FFF
FFFE0000000000003FFF
FFFC0000000000003FFF
FFFC0000000000003FFF
FFFC0000000000003FFF
FFFC0000000000003FFF
FFFC0000000000003FFF
FFFC0000000000003FFF
FFFC0000000000003FFF
FFFC0000000000003FFF
FFFC0000000000003FFF
FFFC0000000000003FFF
FFFE0000000000007FFF
FFFF000000000000FFFF
FFFFFFFFFFFFFFFFFFFF
FFFFFFFFFFFFFFFFFFFF
FFFFFFFFFFFFFFFFFFFF
7FFFFFFFFFFFFFFFFFFF
7FFFFFFFFFFFFFFFFFFE
7FFFFFFFFFFFFFFFFFFE
3FFFFFFFFFFFFFFFFFFC
1FFFFFFFFFFFFFFFFFF8
0FFFFFFFFFFFFFFFFFF8
07FFFFFFFFFFFFFFFFE0
01FFFFFFFFFFFFFFFFC0
007FFFFFFFFFFFFFFE00
0007FFFFFFFFFFFFE000
ENDCHAR
STARTCHAR 0039
ENCODING 57
SWIDTH 940 0
DWIDTH 94 0
BBX 84 68 4 0
BITMAP
0007FFFFFFFFFFFFE00000
003FFFFFFFFFFFFFFF0000
01FFFFFFFFFFFFFFFFE000
03FFFFFFFFFFFFFFFFF800
07FFFFFFFFFFFFFFFFFC00
0FFFFFFFFFFFFFFFFFFE00
1FFFFFFFFFFFFFFFFFFF00
1FFFFFFFFFFFFFFFFFFF80
3FFFFFFFFFFFFFFFFFFFC0
3FFFFFFFFFFFFFFFFFFFC0
7FFFFFFFFFFFFFFFFFFFE0
7FFFFFFFFFFFFFFFFFFFE0
7FFFFFFFFFFFFFFFFFFFE0
7FFFE000000000007FFFF0
7FFF8000000000001FFFF0
FFFF0000000000000FFFF0
FFFF00000000000007FFF0
FFFF00000000000007FFF0
FFFF00000000000007FFF0
FFFF00000000000007FFF0
FFFF00000000000007FFF0
FFFF00000000000007FFF0
FFFF00000000000007FFF0
FFFF00000000000007FFF0
FFFF00000000000007FFF0
FFFF00000000000007FFF0
FFFF00000000000007FFF0
7FFF00000000000007FFF0
7FFF80000000000007FFF0
7FFFC0000000000007FFF0
7FFFFFFFFFFFFFFFFFFFF0
7FFFFFFFFFFFFFFFFFFFF0
3FFFFFFFFFFFFFFFFFFFF0
3FFFFFFFFFFFFFFFFFFFF0
1FFFFFFFFFFFFFFFFFFFF0
1FFFFFFFFFFFFFFFFFFFF0
0FFFFFFFFFFFFFFFFFFFF0
07FFFFFFFFFFFFFFFFFFF0
03FFFFFFFFFFFFFFFFFFF0
00FFFFFFFFFFFFFFFFFFF0
003FFFFFFFFFFFFFFFFFF0
0003FFFFFFFFFFFFFFFFF0
000000000000000007FFF0
000000000000000007FFF0
000000000000000007FFF0
000000000000000007FFF0
000000000000000007FFF0
000000000000000007FFF0
000000000000000007FFF0
000000000000000007FFF0
000000000000000007FFF0
00000000000000000FFFF0
00000000000000001FFFF0
00000000000000003FFFF0
0000000000000000FFFFE0
0000000007FFFFFFFFFFE0
0000000007FFFFFFFFFFE0
0000000007FFFFFFFFFFC0
0000000007FFFFFFFFFFC0
0000000007FFFFFFFFFFC0
0000000007FFFFFFFFFF80
0000000007FFFFFFFFFF00
0000000007FFFFFFFFFE00
0000000007FFFFFFFFFC00
0000000007FFFFFFFFF800
0000000007FFFFFFFFE000
0000000007FFFFFFFF0000
0000000007FFFFFFE00000
ENDCHAR
STARTCHAR 003A
ENCODING 58
SWIDTH 270 0
DWIDTH 27 0
BBX 15 53 6 0
BITMAP
7FF8
FFFC
FFFE
FFFE
FFFE
FFFE
FFFE
FFFE
FFFE
FFFE
FFFE
FFFE
FFFE
FFFE
FFFE
7FFC
3FF8
0000
0000
0000
0000
0000
0000
0000
0000
0000
0000
0000
0000
0000
0000
0000
0000
0000
0000
0000
3FF8
7FFC
FFFE
FFFE
FFFE
FFFE
FFFE
FFFE
FFFE
FFFE
FFFE
FFFE
FFFE
FFFE
FFFE
7FFC
3FF8
ENDCHAR
STARTCHAR 003B
ENCODING 59
SWIDTH 270 0
DWIDTH 27 0
BBX 17 60 4 -7
BITMAP
1FFE00
3FFF00
3FFF80
3FFF80
3FFF80
3FFF80
3FFF80
3FFF80
3FFF80
3FFF80
3FFF80
3FFF80
3FFF80
3FFF80
3FFF80
1FFF00
0FFE00
000000
000000
000000
000000
000000
000000
000000
000000
000000
000000
000000
000000
000000
000000
000000
000000
000000
000000
000000
3FFF80
3FFF80
3FFF80
3FFF00
3FFF00
3FFF00
3FFF00
3FFE00
3FFE00
3FFE00
3FFE00
7FFC00
7FFC00
7FFC00
7FFC00
7FF800
7FF800
7FF800
7FF800
7FF000
7FF000
FFF000
FFF000
FFF000
ENDCHAR
STARTCHAR 003C
ENCODING 60
SWIDTH 590 0
DWIDTH 59 0
BBX 47 60 6 3
BITMAP
000000000002
00000000000E
00000000001E
00000000007E
0000000001FE
0000000007FE
000000001FFE
000000007FFE
00000000FFFE
00000003FFFE
0000000FFFFE
0000003FFFFE
000000FFFFF8
000003FFFFE0
000007FFFF80
00001FFFFE00
00007FFFF800
0001FFFFF000
0007FFFFC000
000FFFFF0000
003FFFFC0000
00FFFFF00000
03FFFFC00000
0FFFFF000000
1FFFFC000000
3FFFF8000000
7FFFE0000000
FFFF80000000
FFFE00000000
FFF800000000
FFFC00000000
FFFE00000000
FFFF80000000
7FFFE0000000
3FFFF8000000
1FFFFE000000
0FFFFF800000
03FFFFC00000
00FFFFF00000
003FFFFC0000
000FFFFF0000
0007FFFFC000
0001FFFFF000
00007FFFF800
00001FFFFE00
000007FFFF80
000001FFFFE0
000000FFFFF8
0000003FFFFE
0000000FFFFE
00000003FFFE
00000000FFFE
000000007FFE
000000001FFE
0000000007FE
0000000001FE
00000000007E
00000000001E
00000000000E
000000000002
ENDCHAR
STARTCHAR 003D
ENCODING 61
SWIDTH 590 0
DWIDTH 59 0
BBX 47 35 6 18
BITMAP
FFFFFFFFFFFE
FFFFFFFFFFFE
FFFFFFFFFFFE
FFFFFFFFFFFE
FFFFFFFFFFFE
FFFFFFFFFFFE
FFFFFFFFFFFE
FFFFFFFFFFFE
FFFFFFFFFFFE
FFFFFFFFFFFE
000000000000
000000000000
000000000000
000000000000
000000000000
000000000000
000000000000
000000000000
000000000000
000000000000
000000000000
000000000000
000000000000
000000000000
000000000000
FFFFFFFFFFFE
FFFFFFFFFFFE
FFFFFFFFFFFE
FFFFFFFFFFFE
FFFFFFFFFFFE
FFFFFFFFFFFE
FFFFFFFFFFFE
FFFFFFFFFFFE
FFFFFFFFFFFE
FFFFFFFFFFFE
ENDCHAR
STARTCHAR 003E
ENCODING 62
SWIDTH 590 0
DWIDTH 59 0
BBX 47 60 6 3
BITMAP
800000000000
E00000000000
F00000000000
FC0000000000
FF0000000000
FFC000000000
FFF000000000
FFFC00000000
FFFE00000000
FFFF80000000
FFFFE0000000
FFFFF8000000
3FFFFE000000
0FFFFF800000
03FFFFC00000
00FFFFF00000
003FFFFC0000
001FFFFF0000
0007FFFFC000
0001FFFFE000
00007FFFF800
00001FFFFE00
000007FFFF80
000001FFFFE0
0000007FFFF0
0000003FFFF8
0000000FFFFC
00000003FFFE
00000000FFFE
000000003FFE
000000007FFE
00000000FFFE
00000003FFFE
0000000FFFFC
0000003FFFF8
000000FFFFF0
000003FFFFE0
000007FFFF80
00001FFFFE00
00007FFFF800
0001FFFFE000
0007FFFFC000
001FFFFF0000
003FFFFC0000
00FFFFF00000
03FFFFC00000
0FFFFF000000
3FFFFE000000
FFFFF8000000
FFFFE0000000
FFFF80000000
FFFE00000000
FFFC00000000
FFF000000000
FFC000000000
FF0000000000
FC0000000000
F00000000000
E00000000000
800000000000
ENDCHAR
STARTCHAR 003F
ENCODING 63
SWIDTH 600 0
DWIDTH 60 0
BBX 52 68 5 0
BITMAP
0000FFFFFC0000
0000FFFFFFC000
0000FFFFFFF000
0000FFFFFFFC00
0000FFFFFFFE00
0000FFFFFFFF00
0000FFFFFFFF80
0000FFFFFFFF80
0000FFFFFFFFC0
0000FFFFFFFFC0
0000FFFFFFFFE0
0000FFFFFFFFE0
0000FFFFFFFFE0
000000001FFFE0
000000000FFFE0
0000000007FFE0
0000000007FFF0
0000000003FFF0
0000000003FFF0
0000000003FFF0
0000000003FFF0
0000000003FFF0
0000000003FFF0
0000000003FFF0
0000000003FFF0
0000000007FFF0
0000000007FFE0
000000000FFFE0
000000001FFFE0
003FFFFFFFFFE0
01FFFFFFFFFFE0
07FFFFFFFFFFC0
0FFFFFFFFFFFC0
1FFFFFFFFFFFC0
3FFFFFFFFFFF80
7FFFFFFFFFFF00
7FFFFFFFFFFE00
7FFFFFFFFFFC00
FFFFFFFFFFF000
FFFFFFFFFF0000
FFFF8000000000
FFFE0000000000
FFFE0000000000
FFFE0000000000
FFFE0000000000
FFFE0000000000
FFFE0000000000
FFFE0000000000
00000000000000
00000000000000
00000000000000
00000000000000
00000000000000
3FF80000000000
7FFC0000000000
FFFE0000000000
FFFE0000000000
FFFE0000000000
FFFE0000000000
FFFE0000000000
FFFE0000000000
FFFE0000000000
FFFE0000000000
FFFE0000000000
FFFE0000000000
FFFE0000000000
7FFC0000000000
3FF80000000000
ENDCHAR
STARTCHAR 0040
ENCODING 64
SWIDTH 740 0
DWIDTH 74 0
BBX 63 80 6 -16
BITMAP
001FFFFFFFFFF000
01FFFFFFFFFFFF00
07FFFFFFFFFFFFC0
0FFFFFFFFFFFFFE0
1FFFFFFFFFFFFFF0
3FFFFFFFFFFFFFF8
7FFFFFFFFFFFFFFC
7FFFFFFFFFFFFFFC
7FFFFFFFFFFFFFFC
FFFFFFFFFFFFFFFE
FFFC000000007FFE
FFF8000000001FFE
FFF0000000000FFE
FFE0000000000FFE
FFE0000000000FFE
FFE0000000000FFE
FFE0000000000FFE
FFE0000000000FFE
FFE0000000000FFE
FFE0000000000FFE
FFE0000000000FFE
FFE000007FFFFFFE
FFE00007FFFFFFFE
FFE0001FFFFFFFFE
FFE0003FFFFFFFFE
FFE0007FFFFFFFFE
FFE000FFFFFFFFFE
FFE000FFFFFFFFFE
FFE001FFFFFFFFFE
FFE001FFFFFFFFFE
FFE001FFFFFFFFFE
FFE001FFF0000FFE
FFE001FFE0000FFE
FFE003FFC0000FFE
FFE003FFC0000FFE
FFE003FF80000FFE
FFE003FF80000FFE
FFE003FF80000FFE
FFE003FF80000FFE
FFE003FF80000FFE
FFE003FF80000FFE
FFE003FF80000FFE
FFE003FF80000FFE
FFE003FF80000FFE
FFE003FFC0000FFE
FFE003FFC0000FFE
FFE001FFC0001FFE
FFE001FFE0003FFE
FFE001FFFE03FFFE
FFE001FFFFFFFFFC
FFE001FFFFFFFFFC
FFE000FFFFFFFFFC
FFE000FFFFFFFFF8
FFE0007FFFFFFFF0
FFE0003FFFFFFFE0
FFE0001FFFFFFFC0
FFE00007FFFFFF00
FFE000007FFFF800
FFE0000000000000
FFE0000000000000
FFE0000000000000
FFE0000000000000
FFE0000000000000
FFE0000000000000
FFE0000000000000
FFE0000000000000
FFE0000000000000
FFF0000000000000
FFF8000000000000
FFFC000000000000
FFFFFFFFC0000000
7FFFFFFFC0000000
7FFFFFFFC0000000
7FFFFFFFC0000000
3FFFFFFFC0000000
1FFFFFFFC0000000
0FFFFFFFC0000000
07FFFFFFC0000000
01FFFFFFC0000000
001FFFFFC0000000
ENDCHAR
STARTCHAR 0041
ENCODING 65
SWIDTH 1040 0
DWIDTH 104 0
BBX 101 70 1 0
BITMAP
000000000001FE000000000000
00000000000FFF800000000000
00000000001FFFE00000000000
00000000003FFFF00000000000
00000000007FFFF80000000000
0000000000FFFFFC0000000000
0000000000FFFFFC0000000000
0000000001FFFFFE0000000000
0000000003FFFFFE0000000000
0000000003FFFFFF0000000000
0000000007FFFFFF8000000000
000000000FFFFFFF8000000000
000000000FFFFFFFC000000000
000000001FFFFFFFE000000000
000000001FFFFFFFE000000000
000000003FFFFFFFF000000000
000000007FFFDFFFF000000000
000000007FFF8FFFF800000000
00000000FFFF8FFFFC00000000
00000001FFFF07FFFC00000000
00000001FFFE03FFFE00000000
00000003FFFE03FFFF00000000
00000007FFFC01FFFF00000000
00000007FFFC00FFFF80000000
0000000FFFF800FFFF80000000
0000000FFFF0007FFFC0000000
0000001FFFF0007FFFE0000000
0000003FFFE0003FFFE0000000
0000003FFFE0001FFFF0000000
0000007FFFC0001FFFF8000000
000000FFFF80000FFFF8000000
000000FFFF80000FFFFC000000
000001FFFF000007FFFC000000
000001FFFE000003FFFE000000
000003FFFE000003FFFF000000
000007FFFC000001FFFF000000
000007FFFC000000FFFF800000
00000FFFF8000000FFFF800000
00001FFFF00000007FFFC00000
00001FFFF00000007FFFE00000
00003FFFE00000003FFFE00000
00003FFFE00000001FFFF00000
00007FFFFFFFFFFFFFFFF80000
0000FFFFFFFFFFFFFFFFF80000
0000FFFFFFFFFFFFFFFFFC0000
0001FFFFFFFFFFFFFFFFFC0000
0003FFFFFFFFFFFFFFFFFE0000
0003FFFFFFFFFFFFFFFFFF0000
0007FFFFFFFFFFFFFFFFFF0000
0007FFFFFFFFFFFFFFFFFF8000
000FFFFFFFFFFFFFFFFFFFC000
001FFFFFFFFFFFFFFFFFFFC000
001FFFFFFFFFFFFFFFFFFFE000
003FFFFFFFFFFFFFFFFFFFE000
007FFFE000000000001FFFF000
007FFFC000000000001FFFF800
00FFFF8000000000000FFFF800
00FFFF8000000000000FFFFC00
01FFFF00000000000007FFFE00
03FFFF00000000000003FFFE00
03FFFE00000000000003FFFF00
07FFFC00000000000001FFFF00
0FFFFC00000000000001FFFF80
0FFFF800000000000000FFFFC0
1FFFF8000000000000007FFFC0
1FFFF0000000000000007FFFE0
3FFFE0000000000000003FFFF0
7FFFE0000000000000001FFFF0
7FFFC0000000000000001FFFF8
FFFFC0000000000000000FFFF8
ENDCHAR
STARTCHAR 0042
ENCODING 66
SWIDTH 900 0
DWIDTH 90 0
BBX 80 68 6 0
BITMAP
FFFFFFFFFFFFFFFF8000
FFFFFFFFFFFFFFFFFC00
FFFFFFFFFFFFFFFFFF00
FFFFFFFFFFFFFFFFFFC0
FFFFFFFFFFFFFFFFFFE0
FFFFFFFFFFFFFFFFFFF0
FFFFFFFFFFFFFFFFFFF8
FFFFFFFFFFFFFFFFFFF8
FFFFFFFFFFFFFFFFFFFC
FFFFFFFFFFFFFFFFFFFC
FFFFFFFFFFFFFFFFFFFC
FFFFFFFFFFFFFFFFFFFE
FFFE00000000003FFFFE
FFFE000000000001FFFE
FFFE000000000000FFFE
FFFE000000000000FFFE
FFFE000000000000FFFE
FFFE0000000000007FFE
FFFE0000000000007FFE
FFFE0000000000007FFE
FFFE0000000000007FFE
FFFE0000000000007FFE
FFFE0000000000007FFE
FFFE0000000000007FFE
FFFE000000000000FFFE
FFFE000000000000FFFC
FFFE000000000001FFFC
FFFE000000000007FFFC
FFFFFFFFFFFFFFFFFFF8
FFFFFFFFFFFFFFFFFFF8
FFFFFFFFFFFFFFFFFFF0
FFFFFFFFFFFFFFFFFFE0
FFFFFFFFFFFFFFFFFF80
FFFFFFFFFFFFFFFFFF80
FFFFFFFFFFFFFFFFFFE0
FFFFFFFFFFFFFFFFFFF0
FFFFFFFFFFFFFFFFFFF8
FFFFFFFFFFFFFFFFFFFC
FFFFFFFFFFFFFFFFFFFC
FFFE000000000003FFFE
FFFE000000000000FFFE
FFFE0000000000007FFE
FFFE0000000000007FFE
FFFE0000000000007FFF
FFFE0000000000007FFF
FFFE0000000000007FFF
FFFE0000000000007FFF
FFFE0000000000007FFF
FFFE0000000000007FFF
FFFE0000000000007FFF
FFFE0000000000007FFF
FFFE0000000000007FFF
FFFE0000000000007FFF
FFFE0000000000007FFF
FFFE000000000000FFFF
FFFE00000000001FFFFF
FFFFFFFFFFFFFFFFFFFE
FFFFFFFFFFFFFFFFFFFE
FFFFFFFFFFFFFFFFFFFE
FFFFFFFFFFFFFFFFFFFE
FFFFFFFFFFFFFFFFFFFC
FFFFFFFFFFFFFFFFFFFC
FFFFFFFFFFFFFFFFFFF8
FFFFFFFFFFFFFFFFFFF0
FFFFFFFFFFFFFFFFFFE0
FFFFFFFFFFFFFFFFFF80
FFFFFFFFFFFFFFFFFE00
FFFFFFFFFFFFFFFFC000
ENDCHAR
STARTCHAR 0043
ENCODING 67
SWIDTH 830 0
DWIDTH 83 0
BBX 74 68 5 0
BITMAP
00003FFFFFFFFFFFFFC0
0007FFFFFFFFFFFFFFC0
003FFFFFFFFFFFFFFFC0
00FFFFFFFFFFFFFFFFC0
01FFFFFFFFFFFFFFFFC0
03FFFFFFFFFFFFFFFFC0
07FFFFFFFFFFFFFFFFC0
0FFFFFFFFFFFFFFFFFC0
1FFFFFFFFFFFFFFFFFC0
1FFFFFFFFFFFFFFFFFC0
3FFFFFFFFFFFFFFFFFC0
3FFFFFFFFFFFFFFFFFC0
3FFFFFFFFFFFFFFFFFC0
7FFFFC00000000000000
7FFFE000000000000000
7FFFC000000000000000
7FFF8000000000000000
7FFF0000000000000000
7FFF0000000000000000
FFFF0000000000000000
FFFF0000000000000000
FFFF0000000000000000
FFFF0000000000000000
FFFF0000000000000000
FFFF0000000000000000
FFFF0000000000000000
FFFF0000000000000000
FFFF0000000000000000
FFFF0000000000000000
FFFF0000000000000000
FFFF0000000000000000
FFFF0000000000000000
FFFF0000000000000000
FFFF0000000000000000
FFFF0000000000000000
FFFF0000000000000000
FFFF0000000000000000
FFFF0000000000000000
FFFF0000000000000000
FFFF0000000000000000
FFFF0000000000000000
FFFF0000000000000000
FFFF0000000000000000
FFFF0000000000000000
FFFF0000000000000000
FFFF0000000000000000
FFFF0000000000000000
FFFF0000000000000000
FFFF0000000000000000
7FFF0000000000000000
7FFF0000000000000000
7FFF8000000000000000
7FFFC000000000000000
7FFFE000000000000000
7FFFFC00000000000000
3FFFFFFFFFFFFFFFFFC0
3FFFFFFFFFFFFFFFFFC0
3FFFFFFFFFFFFFFFFFC0
1FFFFFFFFFFFFFFFFFC0
1FFFFFFFFFFFFFFFFFC0
0FFFFFFFFFFFFFFFFFC0
07FFFFFFFFFFFFFFFFC0
03FFFFFFFFFFFFFFFFC0
01FFFFFFFFFFFFFFFFC0
00FFFFFFFFFFFFFFFFC0
003FFFFFFFFFFFFFFFC0
0007FFFFFFFFFFFFFFC0
00007FFFFFFFFFFFFFC0
ENDCHAR
STARTCHAR 0044
ENCODING 68
SWIDTH 920 0
DWIDTH 92 0
BBX 80 68 6 0
BITMAP
FFFFFFFFFFFFFFFC0000
FFFFFFFFFFFFFFFFE000
FFFFFFFFFFFFFFFFFC00
FFFFFFFFFFFFFFFFFF00
FFFFFFFFFFFFFFFFFFC0
FFFFFFFFFFFFFFFFFFE0
FFFFFFFFFFFFFFFFFFF0
FFFFFFFFFFFFFFFFFFF8
FFFFFFFFFFFFFFFFFFF8
FFFFFFFFFFFFFFFFFFFC
FFFFFFFFFFFFFFFFFFFC
FFFFFFFFFFFFFFFFFFFE
FFFFFFFFFFFFFFFFFFFE
FFFE00000000003FFFFE
FFFE000000000007FFFE
FFFE000000000001FFFF
FFFE000000000001FFFF
FFFE000000000000FFFF
FFFE000000000000FFFF
FFFE000000000000FFFF
FFFE0000000000007FFF
FFFE0000000000007FFF
FFFE0000000000007FFF
FFFE0000000000007FFF
FFFE0000000000007FFF
FFFE0000000000007FFF
FFFE0000000000007FFF
FFFE0000000000007FFF
FFFE0000000000007FFF
FFFE0000000000007FFF
FFFE0000000000007FFF
FFFE0000000000007FFF
FFFE0000000000007FFF
FFFE0000000000007FFF
FFFE0000000000007FFF
FFFE0000000000007FFF
FFFE0000000000007FFF
FFFE0000000000007FFF
FFFE0000000000007FFF
FFFE0000000000007FFF
FFFE0000000000007FFF
FFFE0000000000007FFF
FFFE0000000000007FFF
FFFE0000000000007FFF
FFFE0000000000007FFF
FFFE0000000000007FFF
FFFE0000000000007FFF
FFFE0000000000007FFF
FFFE000000000000FFFF
FFFE000000000000FFFF
FFFE000000000000FFFF
FFFE000000000001FFFF
FFFE000000000003FFFF
FFFE000000000007FFFE
FFFE00000000001FFFFE
FFFFFFFFFFFFFFFFFFFE
FFFFFFFFFFFFFFFFFFFE
FFFFFFFFFFFFFFFFFFFC
FFFFFFFFFFFFFFFFFFFC
FFFFFFFFFFFFFFFFFFF8
FFFFFFFFFFFFFFFFFFF8
FFFFFFFFFFFFFFFFFFF0
FFFFFFFFFFFFFFFFFFE0
FFFFFFFFFFFFFFFFFFC0
FFFFFFFFFFFFFFFFFF00
FFFFFFFFFFFFFFFFFC00
FFFFFFFFFFFFFFFFF000
FFFFFFFFFFFFFFFE0000
ENDCHAR
STARTCHAR 0045
ENCODING 69
SWIDTH 830 0
DWIDTH 83 0
BBX 74 68 5 0
BITMAP
00003FFFFFE000000000
0007FFFFFFE000000000
003FFFFFFFE000000000
00FFFFFFFFE000000000
01FFFFFFFFE000000000
03FFFFFFFFE000000000
07FFFFFFFFE000000000
0FFFFFFFFFE000000000
1FFFFFFFFFE000000000
1FFFFFFFFFE000000000
3FFFFFFFFFE000000000
3FFFFFFFFFE000000000
3FFFFFFFFFE000000000
7FFFF800000000000000
7FFFE000000000000000
7FFF8000000000000000
7FFF8000000000000000
7FFF0000000000000000
7FFF0000000000000000
FFFF0000000000000000
FFFF0000000000000000
FFFF0000000000000000
FFFF0000000000000000
FFFF0000000000000000
FFFF0000000000000000
FFFF0000000000000000
FFFF0000000000000000
FFFF0000000000000000
FFFFFFFFFFFFFFFFFFC0
FFFFFFFFFFFFFFFFFFC0
FFFFFFFFFFFFFFFFFFC0
FFFFFFFFFFFFFFFFFFC0
FFFFFFFFFFFFFFFFFFC0
FFFFFFFFFFFFFFFFFFC0
FFFFFFFFFFFFFFFFFFC0
FFFFFFFFFFFFFFFFFFC0
FFFFFFFFFFFFFFFFFFC0
FFFFFFFFFFFFFFFFFFC0
FFFFFFFFFFFFFFFFFFC0
FFFFFFFFFFFFFFFFFFC0
FFFF0000000000000000
FFFF0000000000000000
FFFF0000000000000000
FFFF0000000000000000
FFFF0000000000000000
FFFF0000000000000000
FFFF0000000000000000
FFFF0000000000000000
FFFF0000000000000000
7FFF0000000000000000
7FFF0000000000000000
7FFF8000000000000000
7FFF8000000000000000
7FFFC000000000000000
7FFFF000000000000000
3FFFFFFFFFFFFFFFFFC0
3FFFFFFFFFFFFFFFFFC0
3FFFFFFFFFFFFFFFFFC0
1FFFFFFFFFFFFFFFFFC0
1FFFFFFFFFFFFFFFFFC0
0FFFFFFFFFFFFFFFFFC0
07FFFFFFFFFFFFFFFFC0
03FFFFFFFFFFFFFFFFC0
01FFFFFFFFFFFFFFFFC0
00FFFFFFFFFFFFFFFFC0
003FFFFFFFFFFFFFFFC0
0007FFFFFFFFFFFFFFC0
00007FFFFFFFFFFFFFC0
ENDCHAR
STARTCHAR 0046
ENCODING 70
SWIDTH 810 0
DWIDTH 81 0
BBX 72 68 6 0
BITMAP
00007FFFFFC0000000
000FFFFFFFC0000000
007FFFFFFFC0000000
01FFFFFFFFC0000000
03FFFFFFFFC0000000
07FFFFFFFFC0000000
0FFFFFFFFFC0000000
1FFFFFFFFFC0000000
3FFFFFFFFFC0000000
3FFFFFFFFFC0000000
7FFFFFFFFFC0000000
7FFFFFFFFFC0000000
7FFFFFFFFFC0000000
7FFFFC000000000000
FFFFE0000000000000
FFFFC0000000000000
FFFF80000000000000
FFFF00000000000000
FFFF00000000000000
FFFE00000000000000
FFFE00000000000000
FFFE00000000000000
FFFE00000000000000
FFFE00000000000000
FFFE00000000000000
FFFE00000000000000
FFFE00000000000000
FFFE00000000000000
FFFE00000000000000
FFFE00000000000000
FFFFFFFFFFFFFFFFFF
FFFFFFFFFFFFFFFFFF
FFFFFFFFFFFFFFFFFF
FFFFFFFFFFFFFFFFFF
FFFFFFFFFFFFFFFFFF
FFFFFFFFFFFFFFFFFF
FFFFFFFFFFFFFFFFFF
FFFFFFFFFFFFFFFFFF
FFFFFFFFFFFFFFFFFF
FFFFFFFFFFFFFFFFFF
FFFFFFFFFFFFFFFFFF
FFFFFFFFFFFFFFFFFF
FFFFFFFFFFFFFFFFFF
FFFE00000000000000
FFFE00000000000000
FFFE00000000000000
FFFE00000000000000
FFFE00000000000000
FFFE00000000000000
FFFE00000000000000
FFFE00000000000000
FFFE00000000000000
FFFE00000000000000
FFFE00000000000000
FFFE00000000000000
FFFE00000000000000
FFFE00000000000000
FFFE00000000000000
FFFE00000000000000
FFFE00000000000000
FFFE00000000000000
FFFE00000000000000
FFFE00000000000000
FFFE00000000000000
FFFE00000000000000
FFFE00000000000000
FFFE00000000000000
FFFE00000000000000
ENDCHAR
STARTCHAR 0047
ENCODING 71
SWIDTH 890 0
DWIDTH 89 0
BBX 80 68 5 0
BITMAP
00003FFFFFF000000000
0007FFFFFFF000000000
003FFFFFFFF000000000
00FFFFFFFFF000000000
01FFFFFFFFF000000000
03FFFFFFFFF000000000
07FFFFFFFFF000000000
0FFFFFFFFFF000000000
1FFFFFFFFFF000000000
1FFFFFFFFFF000000000
3FFFFFFFFFF000000000
3FFFFFFFFFF000000000
3FFFFFFFFFF000000000
7FFFFC00000000000000
7FFFE000000000000000
7FFFC000000000000000
7FFF8000000000000000
7FFF8000000000000000
7FFF0000000000000000
FFFF0000000000000000
FFFF0000000000000000
FFFF0000000000000000
FFFF0000000000000000
FFFF0000000000000000
FFFF0000000000000000
FFFF0000000000000000
FFFF0000000000000000
FFFF0000000000000000
FFFF000000000000FFFF
FFFF000000000000FFFF
FFFF000000000000FFFF
FFFF000000000000FFFF
FFFF000000000000FFFF
FFFF000000000000FFFF
FFFF000000000000FFFF
FFFF000000000000FFFF
FFFF000000000000FFFF
FFFF000000000000FFFF
FFFF000000000000FFFF
FFFF000000000000FFFF
FFFF000000000000FFFF
FFFF000000000000FFFF
FFFF000000000000FFFF
FFFF000000000000FFFF
FFFF000000000000FFFF
FFFF000000000000FFFE
FFFF000000000000FFFE
FFFF000000000000FFFE
FFFF000000000000FFFE
7FFF000000000000FFFE
7FFF000000000001FFFE
7FFF800000000001FFFE
7FFFC00000000003FFFE
7FFFE00000000007FFFE
7FFFF8000000003FFFFE
3FFFFFFFFFFFFFFFFFFC
3FFFFFFFFFFFFFFFFFFC
3FFFFFFFFFFFFFFFFFFC
1FFFFFFFFFFFFFFFFFF8
1FFFFFFFFFFFFFFFFFF8
0FFFFFFFFFFFFFFFFFF0
07FFFFFFFFFFFFFFFFE0
03FFFFFFFFFFFFFFFFC0
01FFFFFFFFFFFFFFFF80
00FFFFFFFFFFFFFFFF00
003FFFFFFFFFFFFFFC00
0007FFFFFFFFFFFFE000
00007FFFFFFFFFFC0000
ENDCHAR
STARTCHAR 0048
ENCODING 72
SWIDTH 920 0
DWIDTH 92 0
BBX 80 68 6 0
BITMAP
FFFE0000000000007FFF
FFFE0000000000007FFF
FFFE0000000000007FFF
FFFE0000000000007FFF
FFFE0000000000007FFF
FFFE0000000000007FFF
FFFE0000000000007FFF
FFFE0000000000007FFF
FFFE0000000000007FFF
FFFE0000000000007FFF
FFFE0000000000007FFF
FFFE0000000000007FFF
FFFE0000000000007FFF
FFFE0000000000007FFF
FFFE0000000000007FFF
FFFE0000000000007FFF
FFFE0000000000007FFF
FFFE0000000000007FFF
FFFE0000000000007FFF
FFFE0000000000007FFF
FFFE0000000000007FFF
FFFE0000000000007FFF
FFFE0000000000007FFF
FFFE0000000000007FFF
FFFE0000000000007FFF
FFFE0000000000007FFF
FFFE0000000000007FFF
FFFE0000000000007FFF
FFFFFFFFFFFFFFFFFFFF
FFFFFFFFFFFFFFFFFFFF
FFFFFFFFFFFFFFFFFFFF
FFFFFFFFFFFFFFFFFFFF
FFFFFFFFFFFFFFFFFFFF
FFFFFFFFFFFFFFFFFFFF
FFFFFFFFFFFFFFFFFFFF
FFFFFFFFFFFFFFFFFFFF
FFFFFFFFFFFFFFFFFFFF
FFFFFFFFFFFFFFFFFFFF
FFFFFFFFFFFFFFFFFFFF
FFFFFFFFFFFFFFFFFFFF
FFFFFFFFFFFFFFFFFFFF
FFFE0000000000007FFF
FFFE0000000000007FFF
FFFE0000000000007FFF
FFFE0000000000007FFF
FFFE0000000000007FFF
FFFE0000000000007FFF
FFFE0000000000007FFF
FFFE0000000000007FFF
FFFE0000000000007FFF
FFFE0000000000007FFF
FFFE0000000000007FFF
FFFE0000000000007FFF
FFFE0000000000007FFF
FFFE0000000000007FFF
FFFE0000000000007FFF
FFFE0000000000007FFF
FFFE0000000000007FFF
FFFE0000000000007FFF
FFFE0000000000007FFF
FFFE0000000000007FFF
FFFE0000000000007FFF
FFFE0000000000007FFF
FFFE0000000000007FFF
FFFE0000000000007FFF
FFFE0000000000007FFF
FFFE0000000000007FFF
FFFE0000000000007FFF
ENDCHAR
STARTCHAR 0049
ENCODING 73
SWIDTH 270 0
DWIDTH 27 0
BBX 15 68 6 0
BITMAP
FFFE
FFFE
FFFE
FFFE
FFFE
FFFE
FFFE
FFFE
FFFE
FFFE
FFFE
FFFE
FFFE
FFFE
FFFE
FFFE
FFFE
FFFE
FFFE
FFFE
FFFE
FFFE
FFFE
FFFE
FFFE
FFFE
FFFE
FFFE
FFFE
FFFE
FFFE
FFFE
FFFE
FFFE
FFFE
FFFE
FFFE
FFFE
FFFE
FFFE
FFFE
FFFE
FFFE
FFFE
FFFE
FFFE
FFFE
FFFE
FFFE
FFFE
FFFE
FFFE
FFFE
FFFE
FFFE
FFFE
FFFE
FFFE
FFFE
FFFE
FFFE
FFFE
FFFE
FFFE
FFFE
FFFE
FFFE
FFFE
ENDCHAR
STARTCHAR 004A
ENCODING 74
SWIDTH 510 0
DWIDTH 51 0
BBX 44 68 2 0
BITMAP
0000000FFFF0
0000000FFFF0
0000000FFFF0
0000000FFFF0
0000000FFFF0
0000000FFFF0
0000000FFFF0
0000000FFFF0
0000000FFFF0
0000000FFFF0
0000000FFFF0
0000000FFFF0
0000000FFFF0
0000000FFFF0
0000000FFFF0
0000000FFFF0
0000000FFFF0
0000000FFFF0
0000000FFFF0
0000000FFFF0
0000000FFFF0
0000000FFFF0
0000000FFFF0
0000000FFFF0
0000000FFFF0
0000000FFFF0
0000000FFFF0
0000000FFFF0
0000000FFFF0
0000000FFFF0
0000000FFFF0
0000000FFFF0
0000000FFFF0
0000000FFFF0
0000000FFFF0
0000000FFFF0
0000000FFFF0
0000000FFFF0
0000000FFFF0
0000000FFFF0
0000000FFFF0
0000000FFFF0
0000000FFFF0
0000000FFFF0
0000000FFFF0
0000000FFFF0
0000000FFFF0
0000000FFFF0
0000000FFFE0
0000000FFFE0
0000001FFFE0
0000001FFFE0
0000003FFFE0
000000FFFFE0
000007FFFFE0
FFFFFFFFFFC0
FFFFFFFFFFC0
FFFFFFFFFFC0
FFFFFFFFFF80
FFFFFFFFFF80
FFFFFFFFFF00
FFFFFFFFFE00
FFFFFFFFFC00
FFFFFFFFF800
FFFFFFFFF000
FFFFFFFFC000
FFFFFFFE0000
FFFFFFC00000
ENDCHAR
STARTCHAR 004B
ENCODING 75
SWIDTH 800 0
DWIDTH 80 0
BBX 73 68 6 0
BITMAP
FFFE000000000FFFFF00
FFFE000000003FFFFE00
FFFE000000007FFFFC00
FFFE00000000FFFFF800
FFFE00000001FFFFE000
FFFE00000003FFFFC000
FFFE00000007FFFF8000
FFFE0000000FFFFF0000
FFFE0000003FFFFE0000
FFFE0000007FFFF80000
FFFE000000FFFFF00000
FFFE000001FFFFE00000
FFFE000003FFFFC00000
FFFE000007FFFF800000
FFFE00000FFFFF000000
FFFE00003FFFFC000000
FFFE00007FFFF8000000
FFFE0000FFFFF0000000
FFFE0001FFFFE0000000
FFFE0003FFFFC0000000
FFFE0007FFFF00000000
FFFE000FFFFE00000000
FFFE003FFFFC00000000
FFFE007FFFF800000000
FFFE00FFFFF000000000
FFFE01FFFFE000000000
FFFE03FFFF8000000000
FFFE07FFFF0000000000
FFFE0FFFFE0000000000
FFFE3FFFFC0000000000
FFFE7FFFF80000000000
FFFEFFFFE00000000000
FFFFFFFFC00000000000
FFFFFFFFC00000000000
FFFFFFFFE00000000000
FFFEFFFFF80000000000
FFFE7FFFFC0000000000
FFFE3FFFFE0000000000
FFFE1FFFFF0000000000
FFFE0FFFFF8000000000
FFFE07FFFFC000000000
FFFE01FFFFE000000000
FFFE00FFFFF800000000
FFFE007FFFFC00000000
FFFE003FFFFE00000000
FFFE001FFFFF00000000
FFFE000FFFFF80000000
FFFE0003FFFFC0000000
FFFE0001FFFFE0000000
FFFE0000FFFFF8000000
FFFE00007FFFFC000000
FFFE00003FFFFE000000
FFFE00001FFFFF000000
FFFE00000FFFFF800000
FFFE000003FFFFC00000
FFFE000001FFFFE00000
FFFE000000FFFFF80000
FFFE0000007FFFFC0000
FFFE0000003FFFFE0000
FFFE0000001FFFFF0000
FFFE0000000FFFFF8000
FFFE00000003FFFFC000
FFFE00000001FFFFF000
FFFE00000000FFFFF800
FFFE000000007FFFFC00
FFFE000000003FFFFE00
FFFE000000001FFFFF00
FFFE000000000FFFFF80
ENDCHAR
STARTCHAR 004C
ENCODING 76
SWIDTH 750 0
DWIDTH 75 0
BBX 67 68 6 0
BITMAP
FFFE00000000000000
FFFE00000000000000
FFFE00000000000000
FFFE00000000000000
FFFE00000000000000
FFFE00000000000000
FFFE00000000000000
FFFE00000000000000
FFFE00000000000000
FFFE00000000000000
FFFE00000000000000
FFFE00000000000000
FFFE00000000000000
FFFE00000000000000
FFFE00000000000000
FFFE00000000000000
FFFE00000000000000
FFFE00000000000000
FFFE00000000000000
FFFE00000000000000
FFFE00000000000000
FFFE00000000000000
FFFE00000000000000
FFFE00000000000000
FFFE00000000000000
FFFE00000000000000
FFFE00000000000000
FFFE00000000000000
FFFE00000000000000
FFFE00000000000000
FFFE00000000000000
FFFE00000000000000
FFFE00000000000000
FFFE00000000000000
FFFE00000000000000
FFFE00000000000000
FFFE00000000000000
FFFE00000000000000
FFFE00000000000000
FFFE00000000000000
FFFE00000000000000
FFFE00000000000000
FFFE00000000000000
FFFE00000000000000
FFFE00000000000000
FFFE00000000000000
FFFE00000000000000
FFFE00000000000000
FFFE00000000000000
FFFE00000000000000
FFFF00000000000000
FFFF00000000000000
FFFF80000000000000
FFFFE0000000000000
7FFFF8000000000000
7FFFFFFFFFFFFFFFE0
7FFFFFFFFFFFFFFFE0
7FFFFFFFFFFFFFFFE0
3FFFFFFFFFFFFFFFE0
3FFFFFFFFFFFFFFFE0
1FFFFFFFFFFFFFFFE0
0FFFFFFFFFFFFFFFE0
07FFFFFFFFFFFFFFE0
03FFFFFFFFFFFFFFE0
01FFFFFFFFFFFFFFE0
007FFFFFFFFFFFFFE0
000FFFFFFFFFFFFFE0
00007FFFFFFFFFFFE0
ENDCHAR
STARTCHAR 004D
ENCODING 77
SWIDTH 1190 0
DWIDTH 119 0
BBX 108 72 6 -2
BITMAP
0FF000000000000000000000FE00
3FFC00000000000000000003FF80
7FFE00000000000000000007FFC0
FFFE0000000000000000000FFFE0
FFFF0000000000000000000FFFE0
FFFF8000000000000000001FFFE0
FFFFC000000000000000003FFFF0
FFFFC000000000000000007FFFF0
FFFFE00000000000000000FFFFF0
FFFFF00000000000000000FFFFF0
FFFFF80000000000000001FFFFF0
FFFFF80000000000000003FFFFF0
FFFFFC0000000000000007FFFFF0
FFFFFE0000000000000007FFFFF0
FFFFFF000000000000000FFFFFF0
FFFFFF000000000000001FFFFFF0
FFFFFF800000000000003FFFFFF0
FFFFFFC00000000000003FFFFFF0
FFFFFFE00000000000007FFFFFF0
FFFFFFE0000000000000FFFFFFF0
FFFFFFF0000000000001FFFFFFF0
FFFFFFF8000000000001FFFFFFF0
FFFFFFFC000000000003FFFFFFF0
FFFFFFFC000000000007FFFFFFF0
FFFFFFFE00000000000FFFFFFFF0
FFFFFFFF00000000000FFFFFFFF0
FFFDFFFF80000000001FFFF7FFF0
FFFCFFFF80000000003FFFF7FFF0
FFFCFFFFC0000000007FFFE7FFF0
FFFC7FFFE0000000007FFFC7FFF0
FFFC3FFFF000000000FFFF87FFF0
FFFC1FFFF000000001FFFF87FFF0
FFFC1FFFF800000003FFFF07FFF0
FFFC0FFFFC00000003FFFE07FFF0
FFFC07FFFE00000007FFFC07FFF0
FFFC03FFFE0000000FFFFC07FFF0
FFFC03FFFF0000001FFFF807FFF0
FFFC01FFFF8000001FFFF007FFF0
FFFC00FFFFC000003FFFE007FFF0
FFFC007FFFC000007FFFE007FFF0
FFFC007FFFE00000FFFFC007FFF0
FFFC003FFFF00000FFFF8007FFF0
FFFC001FFFF80001FFFF0007FFF0
FFFC000FFFF80003FFFF0007FFF0
FFFC000FFFFC0007FFFE0007FFF0
FFFC0007FFFE0007FFFC0007FFF0
FFFC0003FFFF000FFFF80007FFF0
FFFC0001FFFF001FFFF80007FFF0
FFFC0000FFFF803FFFF00007FFF0
FFFC0000FFFFC03FFFE00007FFF0
FFFC00007FFFE07FFFC00007FFF0
FFFC00003FFFE0FFFFC00007FFF0
FFFC00001FFFF1FFFF800007FFF0
FFFC00001FFFFBFFFF000007FFF0
FFFC00000FFFFFFFFE000007FFF0
FFFC000007FFFFFFFC000007FFF0
FFFC000003FFFFFFFC000007FFF0
FFFC000003FFFFFFF8000007FFF0
FFFC000001FFFFFFF0000007FFF0
FFFC000000FFFFFFE0000007FFF0
FFFC0000007FFFFFE0000007FFF0
FFFC0000007FFFFFC0000007FFF0
FFFC0000003FFFFF80000007FFF0
FFFC0000001FFFFF00000007FFF0
FFFC0000000FFFFF00000007FFF0
FFFC0000000FFFFE00000007FFF0
FFFC00000007FFFC00000007FFF0
FFFC00000003FFF800000007FFF0
FFFC00000001FFF800000007FFF0
FFFC00000001FFF000000007FFF0
000000000000FFE0000000000000
0000000000003F80000000000000
ENDCHAR
STARTCHAR 004E
ENCODING 78
SWIDTH 910 0
DWIDTH 91 0
BBX 80 72 6 -2
BITMAP
0FE00000000000000000
3FF80000000000000000
7FFE0000000000007FFF
FFFF0000000000007FFF
FFFF8000000000007FFF
FFFFC000000000007FFF
FFFFE000000000007FFF
FFFFF000000000007FFF
FFFFF800000000007FFF
FFFFFC00000000007FFF
FFFFFE00000000007FFF
FFFFFF00000000007FFF
FFFFFF80000000007FFF
FFFFFFC0000000007FFF
FFFFFFE0000000007FFF
FFFFFFF0000000007FFF
FFFFFFF8000000007FFF
FFFFFFFC000000007FFF
FFFFFFFE000000007FFF
FFFFFFFF000000007FFF
FFFFFFFF800000007FFF
FFFFFFFFC00000007FFF
FFFDFFFFE00000007FFF
FFFCFFFFF00000007FFF
FFFC7FFFF80000007FFF
FFFC3FFFFC0000007FFF
FFFC1FFFFE0000007FFF
FFFC0FFFFF0000007FFF
FFFC07FFFF8000007FFF
FFFC01FFFFC000007FFF
FFFC00FFFFE000007FFF
FFFC007FFFF000007FFF
FFFC003FFFF800007FFF
FFFC001FFFFE00007FFF
FFFC000FFFFF00007FFF
FFFC0007FFFF80007FFF
FFFC0003FFFFC0007FFF
FFFC0001FFFFE0007FFF
FFFC0000FFFFF0007FFF
FFFC00007FFFF8007FFF
FFFC00003FFFFC007FFF
FFFC00001FFFFE007FFF
FFFC00000FFFFF007FFF
FFFC000007FFFF807FFF
FFFC000003FFFFC07FFF
FFFC000001FFFFE07FFF
FFFC0000007FFFF07FFF
FFFC0000003FFFF87FFF
FFFC0000001FFFFC7FFF
FFFC0000000FFFFE7FFF
FFFC00000007FFFF7FFF
FFFC00000003FFFFFFFF
FFFC00000001FFFFFFFF
FFFC00000000FFFFFFFF
FFFC000000007FFFFFFF
FFFC000000003FFFFFFF
FFFC000000001FFFFFFF
FFFC000000000FFFFFFF
FFFC0000000007FFFFFF
FFFC0000000003FFFFFF
FFFC0000000001FFFFFF
FFFC0000000000FFFFFF
FFFC00000000007FFFFF
FFFC00000000001FFFFF
FFFC00000000000FFFFF
FFFC000000000007FFFF
FFFC000000000003FFFE
FFFC000000000001FFFE
FFFC000000000000FFFE
FFFC0000000000007FFC
00000000000000003FF8
00000000000000000FE0
ENDCHAR
STARTCHAR 004F
ENCODING 79
SWIDTH 890 0
DWIDTH 89 0
BBX 78 68 5 0
BITMAP
00003FFFFFFFFFF80000
0007FFFFFFFFFFFFC000
003FFFFFFFFFFFFFF800
00FFFFFFFFFFFFFFFE00
01FFFFFFFFFFFFFFFF00
03FFFFFFFFFFFFFFFF80
07FFFFFFFFFFFFFFFFC0
0FFFFFFFFFFFFFFFFFE0
1FFFFFFFFFFFFFFFFFE0
1FFFFFFFFFFFFFFFFFF0
3FFFFFFFFFFFFFFFFFF0
3FFFFFFFFFFFFFFFFFF8
3FFFFFFFFFFFFFFFFFF8
7FFFFC00000000FFFFF8
7FFFE0000000000FFFFC
7FFFC00000000007FFFC
7FFF800000000003FFFC
7FFF000000000003FFFC
7FFF000000000001FFFC
FFFF000000000001FFFC
FFFF000000000001FFFC
FFFF000000000001FFFC
FFFF000000000001FFFC
FFFF000000000001FFFC
FFFF000000000001FFFC
FFFF000000000001FFFC
FFFF000000000001FFFC
FFFF000000000001FFFC
FFFF000000000001FFFC
FFFF000000000001FFFC
FFFF000000000001FFFC
FFFF000000000001FFFC
FFFF000000000001FFFC
FFFF000000000001FFFC
FFFF000000000001FFFC
FFFF000000000001FFFC
FFFF000000000001FFFC
FFFF000000000001FFFC
FFFF000000000001FFFC
FFFF000000000001FFFC
FFFF000000000001FFFC
FFFF000000000001FFFC
FFFF000000000001FFFC
FFFF000000000001FFFC
FFFF000000000001FFFC
FFFF000000000001FFFC
FFFF000000000001FFFC
FFFF000000000001FFFC
FFFF000000000001FFFC
7FFF000000000001FFFC
7FFF000000000003FFFC
7FFF800000000003FFFC
7FFF800000000007FFFC
7FFFE0000000000FFFFC
7FFFF8000000007FFFF8
3FFFFFFFFFFFFFFFFFF8
3FFFFFFFFFFFFFFFFFF8
3FFFFFFFFFFFFFFFFFF0
1FFFFFFFFFFFFFFFFFF0
1FFFFFFFFFFFFFFFFFE0
0FFFFFFFFFFFFFFFFFE0
07FFFFFFFFFFFFFFFFC0
03FFFFFFFFFFFFFFFF80
01FFFFFFFFFFFFFFFF00
00FFFFFFFFFFFFFFFE00
003FFFFFFFFFFFFFF800
0007FFFFFFFFFFFFC000
00007FFFFFFFFFF80000
ENDCHAR
STARTCHAR 0050
ENCODING 80
SWIDTH 900 0
DWIDTH 90 0
BBX 80 68 6 0
BITMAP
FFFFFFFFFFFFFFFE0000
FFFFFFFFFFFFFFFFF000
FFFFFFFFFFFFFFFFFE00
FFFFFFFFFFFFFFFFFF80
FFFFFFFFFFFFFFFFFFC0
FFFFFFFFFFFFFFFFFFE0
FFFFFFFFFFFFFFFFFFF0
FFFFFFFFFFFFFFFFFFF8
FFFFFFFFFFFFFFFFFFF8
FFFFFFFFFFFFFFFFFFFC
FFFFFFFFFFFFFFFFFFFC
FFFFFFFFFFFFFFFFFFFE
FFFFFFFFFFFFFFFFFFFE
FFFE00000000001FFFFE
FFFE000000000003FFFE
FFFE000000000001FFFF
FFFE000000000000FFFF
FFFE000000000000FFFF
FFFE000000000000FFFF
FFFE0000000000007FFF
FFFE0000000000007FFF
FFFE0000000000007FFF
FFFE0000000000007FFF
FFFE0000000000007FFF
FFFE0000000000007FFF
FFFE0000000000007FFF
FFFE0000000000007FFF
FFFE0000000000007FFF
FFFE0000000000007FFF
FFFE0000000000007FFF
FFFE0000000000007FFF
FFFE000000000000FFFF
FFFE000000000000FFFF
FFFE000000000001FFFF
FFFE000000000003FFFF
FFFE00000000000FFFFE
FFFFFFFFFFFFFFFFFFFE
FFFFFFFFFFFFFFFFFFFE
FFFFFFFFFFFFFFFFFFFE
FFFFFFFFFFFFFFFFFFFC
FFFFFFFFFFFFFFFFFFFC
FFFFFFFFFFFFFFFFFFF8
FFFFFFFFFFFFFFFFFFF0
FFFFFFFFFFFFFFFFFFE0
FFFFFFFFFFFFFFFFFFC0
FFFFFFFFFFFFFFFFFF00
FFFFFFFFFFFFFFFFFC00
FFFFFFFFFFFFFFFFC000
FFFE0000000000000000
FFFE0000000000000000
FFFE0000000000000000
FFFE0000000000000000
FFFE0000000000000000
FFFE0000000000000000
FFFE0000000000000000
FFFE0000000000000000
FFFE0000000000000000
FFFE0000000000000000
FFFE0000000000000000
FFFE0000000000000000
FFFE0000000000000000
FFFE0000000000000000
FFFE0000000000000000
FFFE0000000000000000
FFFE0000000000000000
FFFE0000000000000000
FFFE0000000000000000
FFFE0000000000000000
ENDCHAR
STARTCHAR 0051
ENCODING 81
SWIDTH 890 0
DWIDTH 89 0
BBX 83 78 5 -10
BITMAP
00003FFFFFFFFFF8000000
0007FFFFFFFFFFFFC00000
003FFFFFFFFFFFFFF80000
00FFFFFFFFFFFFFFFE0000
01FFFFFFFFFFFFFFFF0000
07FFFFFFFFFFFFFFFF8000
07FFFFFFFFFFFFFFFFC000
0FFFFFFFFFFFFFFFFFE000
1FFFFFFFFFFFFFFFFFE000
1FFFFFFFFFFFFFFFFFF000
3FFFFFFFFFFFFFFFFFF000
3FFFFFFFFFFFFFFFFFF800
3FFFFFFFFFFFFFFFFFF800
7FFFFC00000000FFFFF800
7FFFE0000000001FFFFC00
7FFFC00000000007FFFC00
7FFF800000000003FFFC00
7FFF000000000003FFFC00
FFFF000000000001FFFC00
FFFF000000000001FFFC00
FFFF000000000001FFFC00
FFFF000000000001FFFC00
FFFF000000000001FFFC00
FFFF000000000001FFFC00
FFFF000000000001FFFC00
FFFF000000000001FFFC00
FFFF000000000001FFFC00
FFFF000000000001FFFC00
FFFF000000000001FFFC00
FFFF000000000001FFFC00
FFFF000000000001FFFC00
FFFF000000000001FFFC00
FFFF000000000001FFFC00
FFFF000000000001FFFC00
FFFF000000000001FFFC00
FFFF000000000001FFFC00
FFFF000000000001FFFC00
FFFF000000000001FFFC00
FFFF000000000001FFFC00
FFFF000000000001FFFC00
FFFF000000000001FFFC00
FFFF000000000001FFFC00
FFFF000000000001FFFC00
FFFF000000000001FFFC00
FFFF000000000001FFFC00
FFFF000000000001FFFC00
FFFF000000000001FFFC00
FFFF000000000001FFFC00
FFFF000000000001FFFC00
FFFF000000000001FFFC00
7FFF000000000003FFFC00
7FFF800000000003FFFC00
7FFFC00000000007FFFC00
7FFFE0000000000FFFFC00
7FFFF8000000007FFFF800
3FFFFFFFFFFFFFFFFFF800
3FFFFFFFFFFFFFFFFFF800
3FFFFFFFFFFFFFFFFFF000
1FFFFFFFFFFFFFFFFFF000
1FFFFFFFFFFFFFFFFFE000
0FFFFFFFFFFFFFFFFFE000
07FFFFFFFFFFFFFFFFC000
03FFFFFFFFFFFFFFFF8000
01FFFFFFFFFFFFFFFF0000
007FFFFFFFFFFFFFFE0000
001FFFFFFFFFFFFFFF0000
0003FFFFFFFFFFFFFF8000
000000FFFFFFFFFFFFC000
00000000000000FFFFE000
000000000000007FFFF000
000000000000003FFFF000
000000000000001FFFF800
000000000000000FFFFC00
0000000000000007FFFE00
0000000000000007FFFF00
0000000000000003FFFF80
0000000000000001FFFFC0
0000000000000000FFFFE0
ENDCHAR
STARTCHAR 0052
ENCODING 82
SWIDTH 910 0
DWIDTH 91 0
BBX 80 68 6 0
BITMAP
FFFFFFFFFFFFFFFE0000
FFFFFFFFFFFFFFFFF000
FFFFFFFFFFFFFFFFFE00
FFFFFFFFFFFFFFFFFF80
FFFFFFFFFFFFFFFFFFC0
FFFFFFFFFFFFFFFFFFE0
FFFFFFFFFFFFFFFFFFF0
FFFFFFFFFFFFFFFFFFF8
FFFFFFFFFFFFFFFFFFFC
FFFFFFFFFFFFFFFFFFFC
FFFFFFFFFFFFFFFFFFFE
FFFFFFFFFFFFFFFFFFFE
FFFFFFFFFFFFFFFFFFFE
FFFE00000000000FFFFE
FFFE000000000001FFFF
FFFE000000000000FFFF
FFFE000000000000FFFF
FFFE000000000000FFFF
FFFE0000000000007FFF
FFFE0000000000007FFF
FFFE0000000000007FFF
FFFE0000000000007FFF
FFFE0000000000007FFF
FFFE0000000000007FFF
FFFE0000000000007FFF
FFFE0000000000007FFF
FFFE0000000000007FFF
FFFE0000000000007FFF
FFFE0000000000007FFF
FFFE000000000000FFFF
FFFE000000000000FFFF
FFFE000000000001FFFF
FFFE000000000007FFFE
FFFFFFFFFFFFFFFFFFFE
FFFFFFFFFFFFFFFFFFFE
FFFFFFFFFFFFFFFFFFFC
FFFFFFFFFFFFFFFFFFFC
FFFFFFFFFFFFFFFFFFF8
FFFFFFFFFFFFFFFFFFF0
FFFFFFFFFFFFFFFFFFE0
FFFFFFFFFFFFFFFFFFC0
FFFFFFFFFFFFFFFFFF80
FFFFFFFFFFFFFFFFFE00
FFFFFFFFFFFFFFFFF000
FFFE7FFFFFFFFFFE0000
FFFE3FFFFFC000000000
FFFE0FFFFFF000000000
FFFE03FFFFF800000000
FFFE01FFFFFE00000000
FFFE007FFFFF80000000
FFFE003FFFFFE0000000
FFFE000FFFFFF0000000
FFFE0003FFFFFC000000
FFFE0001FFFFFF000000
FFFE00007FFFFFC00000
FFFE00001FFFFFE00000
FFFE00000FFFFFF80000
FFFE000003FFFFFE0000
FFFE000001FFFFFF0000
FFFE0000007FFFFFC000
FFFE0000001FFFFFF000
FFFE0000000FFFFFFC00
FFFE00000003FFFFFE00
FFFE00000000FFFFFF80
FFFE000000007FFFFFE0
FFFE000000001FFFFFF8
FFFE000000000FFFFFFC
FFFE0000000003FFFFFF
ENDCHAR
STARTCHAR 0053
ENCODING 83
SWIDTH 810 0
DWIDTH 81 0
BBX 73 68 4 0
BITMAP
0007FFFFFF8000000000
007FFFFFFF8000000000
01FFFFFFFF8000000000
07FFFFFFFF8000000000
0FFFFFFFFF8000000000
1FFFFFFFFF8000000000
1FFFFFFFFF8000000000
3FFFFFFFFF8000000000
3FFFFFFFFF8000000000
7FFFFFFFFF8000000000
7FFFFFFFFF8000000000
7FFFFFFFFF8000000000
7FFFFFFFFF8000000000
FFFF8000000000000000
FFFE0000000000000000
FFFE0000000000000000
FFFC0000000000000000
FFFC0000000000000000
FFFC0000000000000000
FFFC0000000000000000
FFFC0000000000000000
FFFC0000000000000000
FFFC0000000000000000
FFFC0000000000000000
FFFC0000000000000000
FFFE0000000000000000
FFFE0000000000000000
FFFF8000000000000000
FFFFFFFFFFFFFFF00000
7FFFFFFFFFFFFFFF0000
7FFFFFFFFFFFFFFFC000
7FFFFFFFFFFFFFFFF000
3FFFFFFFFFFFFFFFF800
3FFFFFFFFFFFFFFFFC00
1FFFFFFFFFFFFFFFFE00
0FFFFFFFFFFFFFFFFE00
07FFFFFFFFFFFFFFFF00
03FFFFFFFFFFFFFFFF00
00FFFFFFFFFFFFFFFF80
0007FFFFFFFFFFFFFF80
00000000000000FFFF80
000000000000003FFF80
000000000000001FFF80
000000000000001FFF80
000000000000001FFF80
000000000000001FFF80
000000000000001FFF80
000000000000001FFF80
000000000000001FFF80
000000000000001FFF80
000000000000001FFF80
000000000000001FFF80
000000000000001FFF80
000000000000003FFF80
00000000000000FFFF80
FFFFFFFFFFFFFFFFFF80
FFFFFFFFFFFFFFFFFF80
FFFFFFFFFFFFFFFFFF00
FFFFFFFFFFFFFFFFFF00
FFFFFFFFFFFFFFFFFF00
FFFFFFFFFFFFFFFFFE00
FFFFFFFFFFFFFFFFFE00
FFFFFFFFFFFFFFFFFC00
FFFFFFFFFFFFFFFFF800
FFFFFFFFFFFFFFFFF000
FFFFFFFFFFFFFFFFC000
FFFFFFFFFFFFFFFF0000
FFFFFFFFFFFFFFF00000
ENDCHAR
STARTCHAR 0054
ENCODING 84
SWIDTH 760 0
DWIDTH 76 0
BBX 72 68 2 0
BITMAP
FFFFFFFFFFFFFFFFFF
FFFFFFFFFFFFFFFFFF
FFFFFFFFFFFFFFFFFF
FFFFFFFFFFFFFFFFFF
FFFFFFFFFFFFFFFFFF
FFFFFFFFFFFFFFFFFF
FFFFFFFFFFFFFFFFFF
FFFFFFFFFFFFFFFFFF
FFFFFFFFFFFFFFFFFF
FFFFFFFFFFFFFFFFFF
FFFFFFFFFFFFFFFFFF
FFFFFFFFFFFFFFFFFF
FFFFFFFFFFFFFFFFFF
0000000FFFF0000000
0000000FFFF0000000
0000000FFFF0000000
0000000FFFF0000000
0000000FFFF0000000
0000000FFFF0000000
0000000FFFF0000000
0000000FFFF0000000
0000000FFFF0000000
0000000FFFF0000000
0000000FFFF0000000
0000000FFFF0000000
0000000FFFF0000000
0000000FFFF0000000
0000000FFFF0000000
0000000FFFF0000000
0000000FFFF0000000
0000000FFFF0000000
0000000FFFF0000000
0000000FFFF0000000
0000000FFFF0000000
0000000FFFF0000000
0000000FFFF0000000
0000000FFFF0000000
0000000FFFF0000000
0000000FFFF0000000
0000000FFFF0000000
0000000FFFF0000000
0000000FFFF0000000
0000000FFFF0000000
0000000FFFF0000000
0000000FFFF0000000
0000000FFFF0000000
0000000FFFF0000000
0000000FFFF0000000
0000000FFFF0000000
0000000FFFF0000000
0000000FFFF0000000
0000000FFFF0000000
0000000FFFF0000000
0000000FFFF0000000
0000000FFFF0000000
0000000FFFF0000000
0000000FFFF0000000
0000000FFFF0000000
0000000FFFF0000000
0000000FFFF0000000
0000000FFFF0000000
0000000FFFF0000000
0000000FFFF0000000
0000000FFFF0000000
0000000FFFF0000000
0000000FFFF0000000
0000000FFFF0000000
0000000FFFF0000000
ENDCHAR
STARTCHAR 0055
ENCODING 85
SWIDTH 890 0
DWIDTH 89 0
BBX 77 68 6 0
BITMAP
FFFE000000000003FFF8
FFFE000000000003FFF8
FFFE000000000003FFF8
FFFE000000000003FFF8
FFFE000000000003FFF8
FFFE000000000003FFF8
FFFE000000000003FFF8
FFFE000000000003FFF8
FFFE000000000003FFF8
FFFE000000000003FFF8
FFFE000000000003FFF8
FFFE000000000003FFF8
FFFE000000000003FFF8
FFFE000000000003FFF8
FFFE000000000003FFF8
FFFE000000000003FFF8
FFFE000000000003FFF8
FFFE000000000003FFF8
FFFE000000000003FFF8
FFFE000000000003FFF8
FFFE000000000003FFF8
FFFE000000000003FFF8
FFFE000000000003FFF8
FFFE000000000003FFF8
FFFE000000000003FFF8
FFFE000000000003FFF8
FFFE000000000003FFF8
FFFE000000000003FFF8
FFFE000000000003FFF8
FFFE000000000003FFF8
FFFE000000000003FFF8
FFFE000000000003FFF8
FFFE000000000003FFF8
FFFE000000000003FFF8
FFFE000000000003FFF8
FFFE000000000003FFF8
FFFE000000000003FFF8
FFFE000000000003FFF8
FFFE000000000003FFF8
FFFE000000000003FFF8
FFFE000000000003FFF8
FFFE000000000003FFF8
FFFE000000000003FFF8
FFFE000000000003FFF8
FFFE000000000003FFF8
FFFE000000000003FFF8
FFFE000000000003FFF8
FFFE000000000003FFF8
FFFE000000000003FFF8
FFFF000000000007FFF8
FFFF000000000007FFF8
FFFF000000000007FFF8
FFFF80000000000FFFF8
FFFFE0000000003FFFF8
7FFFF800000000FFFFF0
7FFFFFFFFFFFFFFFFFF0
7FFFFFFFFFFFFFFFFFF0
7FFFFFFFFFFFFFFFFFE0
3FFFFFFFFFFFFFFFFFE0
3FFFFFFFFFFFFFFFFFC0
1FFFFFFFFFFFFFFFFFC0
0FFFFFFFFFFFFFFFFF80
07FFFFFFFFFFFFFFFF00
03FFFFFFFFFFFFFFFE00
01FFFFFFFFFFFFFFFC00
007FFFFFFFFFFFFFF000
000FFFFFFFFFFFFF8000
00007FFFFFFFFFF00000
ENDCHAR
STARTCHAR 0056
ENCODING 86
SWIDTH 1030 0
DWIDTH 103 0
BBX 100 70 1 -2
BITMAP
FFFFC0000000000000003FFFF0
7FFFE0000000000000003FFFF0
7FFFF0000000000000007FFFE0
3FFFF000000000000000FFFFE0
3FFFF800000000000000FFFFC0
1FFFF800000000000001FFFF80
0FFFFC00000000000001FFFF80
0FFFFE00000000000003FFFF00
07FFFE00000000000007FFFE00
03FFFF00000000000007FFFE00
03FFFF8000000000000FFFFC00
01FFFF8000000000000FFFFC00
01FFFFC000000000001FFFF800
00FFFFC000000000003FFFF000
007FFFE000000000003FFFF000
007FFFF000000000007FFFE000
003FFFF000000000007FFFC000
003FFFF80000000000FFFFC000
001FFFF80000000001FFFF8000
000FFFFC0000000001FFFF8000
000FFFFE0000000003FFFF0000
0007FFFE0000000003FFFE0000
0003FFFF0000000007FFFE0000
0003FFFF000000000FFFFC0000
0001FFFF800000000FFFFC0000
0001FFFFC00000001FFFF80000
0000FFFFC00000003FFFF00000
00007FFFE00000003FFFF00000
00007FFFE00000007FFFE00000
00003FFFF00000007FFFC00000
00001FFFF8000000FFFFC00000
00001FFFF8000001FFFF800000
00000FFFFC000001FFFF800000
00000FFFFE000003FFFF000000
000007FFFE000003FFFE000000
000003FFFF000007FFFE000000
000003FFFF00000FFFFC000000
000001FFFF80000FFFF8000000
000001FFFFC0001FFFF8000000
000000FFFFC0001FFFF0000000
0000007FFFE0003FFFF0000000
0000007FFFE0007FFFE0000000
0000003FFFF0007FFFC0000000
0000001FFFF800FFFFC0000000
0000001FFFF800FFFF80000000
0000000FFFFC01FFFF00000000
0000000FFFFC03FFFF00000000
00000007FFFE03FFFE00000000
00000003FFFF07FFFE00000000
00000003FFFF0FFFFC00000000
00000001FFFF8FFFF800000000
00000001FFFFDFFFF800000000
00000000FFFFDFFFF000000000
000000007FFFFFFFF000000000
000000007FFFFFFFE000000000
000000003FFFFFFFC000000000
000000001FFFFFFFC000000000
000000001FFFFFFF8000000000
000000000FFFFFFF0000000000
000000000FFFFFFF0000000000
0000000007FFFFFE0000000000
0000000003FFFFFE0000000000
0000000003FFFFFC0000000000
0000000001FFFFF80000000000
0000000000FFFFF80000000000
0000000000FFFFF00000000000
00000000007FFFE00000000000
00000000003FFFC00000000000
00000000000FFF800000000000
000000000003FC000000000000
ENDCHAR
STARTCHAR 0057
ENCODING 87
SWIDTH 1350 0
DWIDTH 135 0
BBX 132 72 1 -2
BITMAP
0000000000000003FC0000000000000000
000000000000000FFF0000000000000000
FFFF80000000001FFF80000000000FFFF0
FFFF80000000001FFFC0000000001FFFF0
7FFFC0000000003FFFE0000000001FFFE0
7FFFC0000000007FFFE0000000003FFFE0
3FFFE0000000007FFFF0000000003FFFC0
3FFFE000000000FFFFF0000000003FFFC0
1FFFE000000000FFFFF0000000007FFFC0
1FFFF000000000FFFFF8000000007FFF80
1FFFF000000001FFFFF800000000FFFF80
0FFFF800000001FFFFFC00000000FFFF00
0FFFF800000003FFFFFC00000001FFFF00
07FFF800000003FFFFFE00000001FFFE00
07FFFC00000007FFFFFE00000001FFFE00
03FFFC00000007FFFFFE00000003FFFC00
03FFFE0000000FFFFFFF00000003FFFC00
03FFFE0000000FFFFFFF00000007FFFC00
01FFFE0000000FFFFFFF80000007FFF800
01FFFF0000001FFFFFFF8000000FFFF800
00FFFF0000001FFFFFFFC000000FFFF000
00FFFF8000003FFFFFFFC000000FFFF000
00FFFF8000003FFFDFFFE000001FFFE000
007FFFC000007FFF9FFFE000001FFFE000
007FFFC000007FFF8FFFE000003FFFC000
003FFFC00000FFFF0FFFF000003FFFC000
003FFFE00000FFFF0FFFF000003FFFC000
001FFFE00000FFFE07FFF800007FFF8000
001FFFF00001FFFE07FFF800007FFF8000
001FFFF00001FFFC03FFFC0000FFFF0000
000FFFF00003FFFC03FFFC0000FFFF0000
000FFFF80003FFF801FFFC0001FFFE0000
0007FFF80007FFF801FFFE0001FFFE0000
0007FFFC0007FFF000FFFE0001FFFE0000
0007FFFC000FFFF000FFFF0003FFFC0000
0003FFFC000FFFE000FFFF0003FFFC0000
0003FFFE001FFFE0007FFF8007FFF80000
0001FFFE001FFFC0007FFF8007FFF80000
0001FFFF001FFFC0003FFF8007FFF00000
0000FFFF003FFF80003FFFC00FFFF00000
0000FFFF003FFF80001FFFC00FFFE00000
0000FFFF807FFF80001FFFE01FFFE00000
00007FFF807FFF00000FFFE01FFFE00000
00007FFFC0FFFF00000FFFF03FFFC00000
00003FFFC0FFFE00000FFFF03FFFC00000
00003FFFC1FFFE000007FFF83FFF800000
00003FFFE1FFFC000007FFF87FFF800000
00001FFFE1FFFC000003FFF87FFF000000
00001FFFF3FFF8000003FFFCFFFF000000
00000FFFF3FFF8000001FFFCFFFE000000
00000FFFF7FFF0000001FFFEFFFE000000
000007FFFFFFF0000000FFFFFFFE000000
000007FFFFFFE0000000FFFFFFFC000000
000007FFFFFFE00000007FFFFFFC000000
000003FFFFFFC00000007FFFFFF8000000
000003FFFFFFC00000007FFFFFF8000000
000001FFFFFF800000003FFFFFF0000000
000001FFFFFF800000003FFFFFF0000000
000001FFFFFF800000001FFFFFF0000000
000000FFFFFF000000001FFFFFE0000000
000000FFFFFF000000000FFFFFE0000000
0000007FFFFE000000000FFFFFC0000000
0000007FFFFE0000000007FFFFC0000000
0000003FFFFC0000000007FFFF80000000
0000003FFFFC0000000007FFFF80000000
0000003FFFF80000000003FFFF00000000
0000001FFFF80000000003FFFF00000000
0000001FFFF00000000001FFFE00000000
0000000FFFE00000000000FFFE00000000
00000007FFC000000000007FFC00000000
00000003FF8000000000003FF800000000
00000000FE0000000000000FE000000000
ENDCHAR
STARTCHAR 0058
ENCODING 88
SWIDTH 1010 0
DWIDTH 101 0
BBX 99 68 1 0
BITMAP
1FFFFF00000000000007FFFF80
0FFFFFC000000000000FFFFF00
07FFFFE000000000003FFFFE00
03FFFFF000000000007FFFFC00
01FFFFF80000000000FFFFF800
00FFFFFC0000000001FFFFF000
007FFFFE0000000003FFFFE000
003FFFFF0000000007FFFF8000
000FFFFF800000000FFFFF0000
0007FFFFC00000003FFFFE0000
0003FFFFE00000007FFFFC0000
0001FFFFF0000000FFFFF80000
0000FFFFF8000001FFFFF00000
00007FFFFC000003FFFFE00000
00003FFFFF000007FFFFC00000
00001FFFFF80000FFFFF000000
000007FFFFC0001FFFFE000000
000003FFFFE0007FFFFC000000
000001FFFFF000FFFFF8000000
000000FFFFF801FFFFF0000000
0000007FFFFC03FFFFE0000000
0000003FFFFE07FFFFC0000000
0000001FFFFF0FFFFF80000000
0000000FFFFF9FFFFE00000000
00000003FFFFFFFFFC00000000
00000001FFFFFFFFF800000000
00000000FFFFFFFFF000000000
000000007FFFFFFFE000000000
000000003FFFFFFFC000000000
000000001FFFFFFF8000000000
000000000FFFFFFE0000000000
0000000003FFFFFC0000000000
0000000001FFFFF80000000000
0000000003FFFFFC0000000000
0000000007FFFFFE0000000000
000000000FFFFFFF0000000000
000000001FFFFFFF8000000000
000000003FFFFFFFC000000000
000000007FFFFFFFE000000000
00000000FFFFFFFFF000000000
00000003FFFFFFFFF800000000
00000007FFFFFFFFFC00000000
0000000FFFFF3FFFFF00000000
0000001FFFFE1FFFFF80000000
0000003FFFFC0FFFFFC0000000
0000007FFFF807FFFFE0000000
000000FFFFF003FFFFF0000000
000001FFFFE001FFFFF8000000
000003FFFFC000FFFFFC000000
00000FFFFF80007FFFFE000000
00001FFFFF00003FFFFF000000
00003FFFFE00001FFFFF800000
00007FFFFC00000FFFFFC00000
0000FFFFF8000007FFFFE00000
0001FFFFF0000001FFFFF80000
0003FFFFC0000000FFFFFC0000
0007FFFF800000007FFFFE0000
001FFFFF000000003FFFFF0000
003FFFFE000000001FFFFF8000
007FFFFC000000000FFFFFC000
00FFFFF80000000007FFFFE000
01FFFFF00000000003FFFFF000
03FFFFE00000000001FFFFF800
07FFFFC00000000000FFFFFC00
0FFFFF8000000000007FFFFE00
1FFFFF0000000000003FFFFF80
7FFFFE0000000000001FFFFFC0
FFFFFC00000000000007FFFFE0
ENDCHAR
STARTCHAR 0059
ENCODING 89
SWIDTH 960 0
DWIDTH 96 0
BBX 94 68 1 0
BITMAP
FFFFF00000000000001FFFFC
7FFFFC0000000000003FFFF8
3FFFFE0000000000007FFFF0
1FFFFF000000000001FFFFE0
0FFFFF800000000003FFFFC0
03FFFFC00000000007FFFF80
01FFFFE0000000000FFFFF00
00FFFFF0000000001FFFFC00
007FFFFC000000003FFFF800
003FFFFE00000000FFFFF000
001FFFFF00000001FFFFE000
000FFFFF80000003FFFFC000
0007FFFFC0000007FFFF8000
0003FFFFE000000FFFFF0000
0000FFFFF000001FFFFE0000
00007FFFFC00007FFFFC0000
00003FFFFE0000FFFFF00000
00001FFFFF0001FFFFE00000
00000FFFFF8003FFFFC00000
000007FFFFC007FFFF800000
000003FFFFE00FFFFF000000
000001FFFFF01FFFFE000000
000000FFFFF87FFFFC000000
0000003FFFFEFFFFF8000000
0000001FFFFFFFFFF0000000
0000000FFFFFFFFFC0000000
00000007FFFFFFFF80000000
00000003FFFFFFFF00000000
00000001FFFFFFFE00000000
00000000FFFFFFFC00000000
000000007FFFFFF800000000
000000003FFFFFF000000000
000000000FFFFFE000000000
0000000007FFFF8000000000
0000000003FFFF0000000000
0000000001FFFE0000000000
0000000001FFFE0000000000
0000000001FFFE0000000000
0000000001FFFE0000000000
0000000001FFFE0000000000
0000000001FFFE0000000000
0000000001FFFE0000000000
0000000001FFFE0000000000
0000000001FFFE0000000000
0000000001FFFE0000000000
0000000001FFFE0000000000
0000000001FFFE0000000000
0000000001FFFE0000000000
0000000001FFFE0000000000
0000000001FFFE0000000000
0000000001FFFE0000000000
0000000001FFFE0000000000
0000000001FFFE0000000000
0000000001FFFE0000000000
0000000001FFFE0000000000
0000000001FFFE0000000000
0000000001FFFE0000000000
0000000001FFFE0000000000
0000000001FFFE0000000000
0000000001FFFE0000000000
0000000001FFFE0000000000
0000000001FFFE0000000000
0000000001FFFE0000000000
0000000001FFFE0000000000
0000000001FFFE0000000000
0000000001FFFE0000000000
0000000001FFFE0000000000
0000000001FFFE0000000000
ENDCHAR
STARTCHAR 005A
ENCODING 90
SWIDTH 840 0
DWIDTH 84 0
BBX 77 68 4 0
BITMAP
7FFFFFFFFFFFFFFFFE00
7FFFFFFFFFFFFFFFFF80
7FFFFFFFFFFFFFFFFF80
7FFFFFFFFFFFFFFFFFC0
7FFFFFFFFFFFFFFFFFC0
7FFFFFFFFFFFFFFFFFE0
7FFFFFFFFFFFFFFFFFE0
7FFFFFFFFFFFFFFFFFE0
7FFFFFFFFFFFFFFFFFE0
7FFFFFFFFFFFFFFFFFC0
7FFFFFFFFFFFFFFFFFC0
7FFFFFFFFFFFFFFFFF80
7FFFFFFFFFFFFFFFFF80
0000000000001FFFFF00
0000000000003FFFFE00
0000000000007FFFF800
000000000000FFFFF000
000000000003FFFFE000
000000000007FFFFC000
00000000000FFFFF8000
00000000001FFFFF0000
00000000003FFFFE0000
0000000000FFFFF80000
0000000001FFFFF00000
0000000003FFFFE00000
0000000007FFFFC00000
000000000FFFFF800000
000000001FFFFF000000
000000007FFFFC000000
00000000FFFFF8000000
00000001FFFFF0000000
00000003FFFFE0000000
00000007FFFFC0000000
0000000FFFFF80000000
0000003FFFFF00000000
0000007FFFFC00000000
000000FFFFF800000000
000001FFFFF000000000
000003FFFFE000000000
000007FFFFC000000000
00001FFFFF8000000000
00003FFFFF0000000000
00007FFFFC0000000000
0000FFFFF80000000000
0001FFFFF00000000000
0003FFFFE00000000000
000FFFFFC00000000000
001FFFFF800000000000
003FFFFF000000000000
007FFFFC000000000000
00FFFFF8000000000000
01FFFFF0000000000000
07FFFFE0000000000000
0FFFFFC0000000000000
1FFFFF80000000000000
3FFFFFFFFFFFFFFFFFF8
7FFFFFFFFFFFFFFFFFF8
FFFFFFFFFFFFFFFFFFF8
FFFFFFFFFFFFFFFFFFF8
FFFFFFFFFFFFFFFFFFF8
FFFFFFFFFFFFFFFFFFF8
FFFFFFFFFFFFFFFFFFF8
FFFFFFFFFFFFFFFFFFF8
FFFFFFFFFFFFFFFFFFF8
FFFFFFFFFFFFFFFFFFF8
7FFFFFFFFFFFFFFFFFF8
3FFFFFFFFFFFFFFFFFF8
1FFFFFFFFFFFFFFFFFF8
ENDCHAR
STARTCHAR 005B
ENCODING 91
SWIDTH 360 0
DWIDTH 36 0
BBX 24 108 11 -22
BITMAP
FFFFFF
FFFFFF
FFFFFF
FFFFFF
FFFFFF
FFFFFF
FFFFFF
FFFFFF
FFC000
FFC000
FFC000
FFC000
FFC000
FFC000
FFC000
FFC000
FFC000
FFC000
FFC000
FFC000
FFC000
FFC000
FFC000
FFC000
FFC000
FFC000
FFC000
FFC000
FFC000
FFC000
FFC000
FFC000
FFC000
FFC000
FFC000
FFC000
FFC000
FFC000
FFC000
FFC000
FFC000
FFC000
FFC000
FFC000
FFC000
FFC000
FFC000
FFC000
FFC000
FFC000
FFC000
FFC000
FFC000
FFC000
FFC000
FFC000
FFC000
FFC000
FFC000
FFC000
FFC000
FFC000
FFC000
FFC000
FFC000
FFC000
FFC000
FFC000
FFC000
FFC000
FFC000
FFC000
FFC000
FFC000
FFC000
FFC000
FFC000
FFC000
FFC000
FFC000
FFC000
FFC000
FFC000
FFC000
FFC000
FFC000
FFC000
FFC000
FFC000
FFC000
FFC000
FFC000
FFC000
FFC000
FFC000
FFC000
FFC000
FFC000
FFC000
FFC000
FFFFFF
FFFFFF
FFFFFF
FFFFFF
FFFFFF
FFFFFF
FFFFFF
FFFFFF
ENDCHAR
STARTCHAR 005C
ENCODING 92
SWIDTH 510 0
DWIDTH 51 0
BBX 49 82 1 -10
BITMAP
FFF00000000000
FFF00000000000
7FF00000000000
7FF80000000000
7FF80000000000
3FFC0000000000
3FFC0000000000
1FFE0000000000
1FFE0000000000
0FFF0000000000
0FFF0000000000
07FF8000000000
07FF8000000000
03FFC000000000
03FFC000000000
01FFE000000000
01FFE000000000
00FFE000000000
00FFF000000000
00FFF000000000
007FF800000000
007FF800000000
003FFC00000000
003FFC00000000
001FFE00000000
001FFE00000000
000FFF00000000
000FFF00000000
0007FF80000000
0007FF80000000
0003FFC0000000
0003FFC0000000
0003FFC0000000
0001FFE0000000
0001FFE0000000
0000FFF0000000
0000FFF0000000
00007FF8000000
00007FF8000000
00003FFC000000
00003FFC000000
00001FFE000000
00001FFE000000
00000FFF000000
00000FFF000000
000007FF800000
000007FF800000
000007FF800000
000003FFC00000
000003FFC00000
000001FFE00000
000001FFE00000
000000FFF00000
000000FFF00000
0000007FF80000
0000007FF80000
0000003FFC0000
0000003FFC0000
0000001FFE0000
0000001FFE0000
0000001FFF0000
0000000FFF0000
0000000FFF8000
00000007FF8000
00000007FF8000
00000003FFC000
00000003FFC000
00000001FFE000
00000001FFE000
00000000FFF000
00000000FFF000
000000007FF800
000000007FF800
000000003FFC00
000000003FFC00
000000003FFE00
000000001FFE00
000000001FFF00
000000000FFF00
000000000FFF00
0000000007FF80
0000000007FF80
ENDCHAR
STARTCHAR 005D
ENCODING 93
SWIDTH 360 0
DWIDTH 36 0
BBX 24 108 1 -22
BITMAP
FFFFFF
FFFFFF
FFFFFF
FFFFFF
FFFFFF
FFFFFF
FFFFFF
FFFFFF
0003FF
0003FF
0003FF
0003FF
0003FF
0003FF
0003FF
0003FF
0003FF
0003FF
0003FF
0003FF
0003FF
0003FF
0003FF
0003FF
0003FF
0003FF
0003FF
0003FF
0003FF
0003FF
0003FF
0003FF
0003FF
0003FF
0003FF
0003FF
0003FF
0003FF
0003FF
0003FF
0003FF
0003FF
0003FF
0003FF
0003FF
0003FF
0003FF
0003FF
0003FF
0003FF
0003FF
0003FF
0003FF
0003FF
0003FF
0003FF
0003FF
0003FF
0003FF
0003FF
0003FF
0003FF
0003FF
0003FF
0003FF
0003FF
0003FF
0003FF
0003FF
0003FF
0003FF
0003FF
0003FF
0003FF
0003FF
0003FF
0003FF
0003FF
0003FF
0003FF
0003FF
0003FF
0003FF
0003FF
0003FF
0003FF
0003FF
0003FF
0003FF
0003FF
0003FF
0003FF
0003FF
0003FF
0003FF
0003FF
0003FF
0003FF
0003FF
0003FF
FFFFFF
FFFFFF
FFFFFF
FFFFFF
FFFFFF
FFFFFF
FFFFFF
FFFFFF
ENDCHAR
STARTCHAR 005E
ENCODING 94
SWIDTH 620 0
DWIDTH 62 0
BBX 56 48 3 22
BITMAP
0000007E000000
000001FF000000
000003FF800000
000003FFC00000
000007FFE00000
000007FFE00000
00000FFFF00000
00000FFFF00000
00001FFFF80000
00001FFFF80000
00003FFFFC0000
00003FFFFC0000
00007FFFFE0000
00007FFFFE0000
0000FFFFFF0000
0000FFFFFF0000
0001FFE7FF8000
0001FFE7FF8000
0003FFC3FFC000
0003FFC3FFC000
0007FF81FFE000
0007FF81FFE000
000FFF00FFF000
000FFF00FFF000
001FFE007FF800
001FFE007FF800
003FFC003FF800
003FFC003FFC00
007FF8001FFC00
007FF8001FFE00
00FFF0000FFE00
00FFF0000FFF00
01FFE00007FF00
01FFE00007FF80
03FFC00003FF80
03FFC00003FFC0
07FF800003FFC0
07FF800001FFE0
0FFF000001FFE0
0FFF000000FFF0
1FFE000000FFF0
1FFE0000007FF8
1FFC0000007FF8
3FFC0000003FFC
3FF80000003FFC
7FF80000001FFE
7FF00000001FFE
FFF00000000FFF
ENDCHAR
STARTCHAR 005F
ENCODING 95
SWIDTH 670 0
DWIDTH 67 0
BBX 67 10 0 -14
BITMAP
FFFFFFFFFFFFFFFFE0
FFFFFFFFFFFFFFFFE0
FFFFFFFFFFFFFFFFE0
FFFFFFFFFFFFFFFFE0
FFFFFFFFFFFFFFFFE0
FFFFFFFFFFFFFFFFE0
FFFFFFFFFFFFFFFFE0
FFFFFFFFFFFFFFFFE0
FFFFFFFFFFFFFFFFE0
FFFFFFFFFFFFFFFFE0
ENDCHAR
STARTCHAR 0060
ENCODING 96
SWIDTH 400 0
DWIDTH 40 0
BBX 28 22 6 61
BITMAP
FFFF0000
7FFF0000
3FFF8000
3FFFC000
1FFFC000
0FFFE000
07FFE000
07FFF000
03FFF000
01FFF800
01FFFC00
00FFFC00
007FFE00
003FFE00
003FFF00
001FFF00
000FFF80
000FFFC0
0007FFC0
0003FFE0
0001FFE0
0001FFF0
ENDCHAR
STARTCHAR 0061
ENCODING 97
SWIDTH 840 0
DWIDTH 84 0
BBX 73 54 5 0
BITMAP
000000003FFFFF800000
000000003FFFFFF80000
000000003FFFFFFF0000
000000003FFFFFFFC000
000000003FFFFFFFE000
000000003FFFFFFFF800
000000003FFFFFFFFC00
000000003FFFFFFFFC00
000000003FFFFFFFFE00
000000003FFFFFFFFE00
000000003FFFFFFFFF00
00000000000001FFFF00
000000000000007FFF80
000000000000007FFF80
000000000000003FFF80
000000000000003FFF80
000000000000003FFF80
000000000000003FFF80
000000000000003FFF80
000000000000003FFF80
001FFFFFFFFFFFFFFF80
01FFFFFFFFFFFFFFFF80
07FFFFFFFFFFFFFFFF80
0FFFFFFFFFFFFFFFFF80
1FFFFFFFFFFFFFFFFF80
3FFFFFFFFFFFFFFFFF80
7FFFFFFFFFFFFFFFFF80
7FFFFFFFFFFFFFFFFF80
FFFFFFFFFFFFFFFFFF80
FFFFC0000000003FFF80
FFFF00000000003FFF80
FFFE00000000003FFF80
FFFE00000000003FFF80
FFFC00000000003FFF80
FFFC00000000003FFF80
FFFC00000000003FFF80
FFFC00000000003FFF80
FFFC00000000003FFF80
FFFC00000000003FFF80
FFFC00000000003FFF80
FFFE00000000007FFF80
FFFE00000000007FFF80
FFFF0000000001FFFF00
FFFFC00000000FFFFF00
FFFFFFFFFFFFFFFFFF00
FFFFFFFFFFFFFFFFFE00
7FFFFFFFFFFFFFFFFE00
7FFFFFFFFFFFFFFFFC00
3FFFFFFFFFFFFFFFF800
1FFFFFFFFFFFFFFFF000
0FFFFFFFFFFFFFFFE000
03FFFFFFFFFFFFFF8000
00FFFFFFFFFFFFFC0000
000FFFFFFFFFFF800000
ENDCHAR
STARTCHAR 0062
ENCODING 98
SWIDTH 820 0
DWIDTH 82 0
BBX 71 72 6 0
BITMAP
FFFE00000000000000
FFFE00000000000000
FFFE00000000000000
FFFE00000000000000
FFFE00000000000000
FFFE00000000000000
FFFE00000000000000
FFFE00000000000000
FFFE00000000000000
FFFE00000000000000
FFFE00000000000000
FFFE00000000000000
FFFE00000000000000
FFFE00000000000000
FFFE00000000000000
FFFE00000000000000
FFFE00000000000000
FFFE00000000000000
FFFFFFFFFFFFF80000
FFFFFFFFFFFFFFC000
FFFFFFFFFFFFFFF800
FFFFFFFFFFFFFFFE00
FFFFFFFFFFFFFFFF00
FFFFFFFFFFFFFFFF80
FFFFFFFFFFFFFFFFC0
FFFFFFFFFFFFFFFFE0
FFFFFFFFFFFFFFFFF0
FFFFFFFFFFFFFFFFF0
FFFFFFFFFFFFFFFFF8
FFFFFFFFFFFFFFFFF8
FFFFFFFFFFFFFFFFF8
FFFE000000001FFFFC
FFFE0000000007FFFC
FFFE0000000003FFFC
FFFE0000000001FFFC
FFFE0000000001FFFC
FFFE0000000001FFFC
FFFE0000000001FFFE
FFFE0000000000FFFE
FFFE0000000000FFFE
FFFE0000000000FFFE
FFFE0000000000FFFE
FFFE0000000000FFFE
FFFE0000000000FFFE
FFFE0000000000FFFE
FFFE0000000000FFFE
FFFE0000000000FFFE
FFFE0000000000FFFE
FFFE0000000000FFFE
FFFE0000000000FFFE
FFFE0000000000FFFE
FFFE0000000000FFFE
FFFE0000000001FFFE
FFFE0000000001FFFC
FFFE0000000001FFFC
FFFF0000000001FFFC
FFFF0000000003FFFC
FFFF8000000007FFFC
7FFFE00000001FFFFC
7FFFFFFFFFFFFFFFF8
7FFFFFFFFFFFFFFFF8
7FFFFFFFFFFFFFFFF8
3FFFFFFFFFFFFFFFF0
3FFFFFFFFFFFFFFFF0
1FFFFFFFFFFFFFFFE0
0FFFFFFFFFFFFFFFC0
07FFFFFFFFFFFFFFC0
03FFFFFFFFFFFFFF00
01FFFFFFFFFFFFFE00
007FFFFFFFFFFFF800
000FFFFFFFFFFFC000
00007FFFFFFFFC0000
ENDCHAR
STARTCHAR 0063
ENCODING 99
SWIDTH 760 0
DWIDTH 76 0
BBX 66 54 5 0
BITMAP
00003FFFFFFFFFFFC0
0007FFFFFFFFFFFFC0
003FFFFFFFFFFFFFC0
00FFFFFFFFFFFFFFC0
01FFFFFFFFFFFFFFC0
03FFFFFFFFFFFFFFC0
07FFFFFFFFFFFFFFC0
0FFFFFFFFFFFFFFFC0
1FFFFFFFFFFFFFFFC0
1FFFFFFFFFFFFFFFC0
3FFFFFFFFFFFFFFFC0
3FFFFFFFFFFFFFFFC0
3FFFFFFFFFFFFFFFC0
7FFFF0000000000000
7FFFC0000000000000
7FFF80000000000000
7FFF80000000000000
7FFF00000000000000
7FFF00000000000000
FFFF00000000000000
FFFE00000000000000
FFFE00000000000000
FFFE00000000000000
FFFE00000000000000
FFFE00000000000000
FFFE00000000000000
FFFE00000000000000
FFFE00000000000000
FFFE00000000000000
FFFE00000000000000
FFFE00000000000000
FFFE00000000000000
FFFE00000000000000
FFFE00000000000000
FFFF00000000000000
7FFF00000000000000
7FFF00000000000000
7FFF00000000000000
7FFF80000000000000
7FFFC0000000000000
7FFFF0000000000000
3FFFFFFFFFFFFFFFC0
3FFFFFFFFFFFFFFFC0
3FFFFFFFFFFFFFFFC0
1FFFFFFFFFFFFFFFC0
1FFFFFFFFFFFFFFFC0
0FFFFFFFFFFFFFFFC0
07FFFFFFFFFFFFFFC0
03FFFFFFFFFFFFFFC0
01FFFFFFFFFFFFFFC0
00FFFFFFFFFFFFFFC0
003FFFFFFFFFFFFFC0
0007FFFFFFFFFFFFC0
00007FFFFFFFFFFFC0
ENDCHAR
STARTCHAR 0064
ENCODING 100
SWIDTH 820 0
DWIDTH 82 0
BBX 72 72 5 0
BITMAP
000000000000007FFF
000000000000007FFF
000000000000007FFF
000000000000007FFF
000000000000007FFF
000000000000007FFF
000000000000007FFF
000000000000007FFF
000000000000007FFF
000000000000007FFF
000000000000007FFF
000000000000007FFF
000000000000007FFF
000000000000007FFF
000000000000007FFF
000000000000007FFF
000000000000007FFF
000000000000007FFF
00003FFFFFFFFFFFFF
0007FFFFFFFFFFFFFF
003FFFFFFFFFFFFFFF
00FFFFFFFFFFFFFFFF
01FFFFFFFFFFFFFFFF
07FFFFFFFFFFFFFFFF
07FFFFFFFFFFFFFFFF
0FFFFFFFFFFFFFFFFF
1FFFFFFFFFFFFFFFFF
1FFFFFFFFFFFFFFFFF
3FFFFFFFFFFFFFFFFF
3FFFFFFFFFFFFFFFFF
3FFFFFFFFFFFFFFFFF
7FFFF8000000007FFF
7FFFC0000000007FFF
7FFF80000000007FFF
7FFF00000000007FFF
7FFF00000000007FFF
FFFF00000000007FFF
FFFE00000000007FFF
FFFE00000000007FFF
FFFE00000000007FFF
FFFE00000000007FFF
FFFE00000000007FFF
FFFE00000000007FFF
FFFE00000000007FFF
FFFE00000000007FFF
FFFE00000000007FFF
FFFE00000000007FFF
FFFE00000000007FFF
FFFE00000000007FFF
FFFE00000000007FFE
FFFE00000000007FFE
FFFE0000000000FFFE
FFFE0000000000FFFE
FFFF0000000000FFFE
7FFF0000000000FFFE
7FFF0000000000FFFE
7FFF8000000001FFFE
7FFFC000000003FFFE
7FFFF00000000FFFFE
3FFFFFFFFFFFFFFFFC
3FFFFFFFFFFFFFFFFC
3FFFFFFFFFFFFFFFFC
1FFFFFFFFFFFFFFFF8
1FFFFFFFFFFFFFFFF8
0FFFFFFFFFFFFFFFF0
07FFFFFFFFFFFFFFE0
07FFFFFFFFFFFFFFC0
01FFFFFFFFFFFFFF80
00FFFFFFFFFFFFFF00
003FFFFFFFFFFFFC00
0007FFFFFFFFFFE000
00007FFFFFFFFC0000
ENDCHAR
STARTCHAR 0065
ENCODING 101
SWIDTH 810 0
DWIDTH 81 0
BBX 71 54 5 0
BITMAP
0000FFFFFFFFFFC000
001FFFFFFFFFFFFC00
007FFFFFFFFFFFFF00
01FFFFFFFFFFFFFFC0
03FFFFFFFFFFFFFFE0
07FFFFFFFFFFFFFFF0
0FFFFFFFFFFFFFFFF8
1FFFFFFFFFFFFFFFFC
1FFFFFFFFFFFFFFFFC
3FFFFFFFFFFFFFFFFC
3FFFFFFFFFFFFFFFFE
7FFFFFFFFFFFFFFFFE
7FFFC000000001FFFE
7FFF8000000000FFFE
7FFF0000000000FFFE
7FFF0000000000FFFE
7FFF0000000000FFFE
FFFE0000000000FFFE
FFFE0000000000FFFE
FFFE0000000000FFFE
FFFE0000000000FFFE
FFFE0000000000FFFE
FFFE0000000000FFFE
FFFFFFFFFFFFFFFFFE
FFFFFFFFFFFFFFFFFE
FFFFFFFFFFFFFFFFFE
FFFFFFFFFFFFFFFFFE
FFFFFFFFFFFFFFFFFE
FFFFFFFFFFFFFFFFFE
FFFFFFFFFFFFFFFFFE
FFFFFFFFFFFFFFFFFE
FFFFFFFFFFFFFFFFFE
FFFFFFFFFFFFFFFFFE
FFFE00000000000000
FFFE00000000000000
FFFE00000000000000
FFFE00000000000000
7FFE00000000000000
7FFF00000000000000
7FFF00000000000000
7FFF00000000000000
7FFF80000000000000
3FFFF8000000000000
3FFFFFFFFFC0000000
3FFFFFFFFFC0000000
1FFFFFFFFFC0000000
0FFFFFFFFFC0000000
0FFFFFFFFFC0000000
07FFFFFFFFC0000000
03FFFFFFFFC0000000
00FFFFFFFFC0000000
003FFFFFFFC0000000
000FFFFFFFC0000000
00007FFFFFC0000000
ENDCHAR
STARTCHAR 0066
ENCODING 102
SWIDTH 430 0
DWIDTH 43 0
BBX 35 72 6 0
BITMAP
0003FFFFE0
00FFFFFFE0
03FFFFFFE0
0FFFFFFFE0
1FFFFFFFE0
3FFFFFFFE0
3FFFFFFFE0
7FFFFFFFE0
7FFFFFFFE0
FFFFFFFFE0
FFFFFFFFE0
FFFF000000
FFFE000000
FFFE000000
FFFE000000
FFFE000000
FFFE000000
FFFE000000
FFFFFFFFE0
FFFFFFFFE0
FFFFFFFFE0
FFFFFFFFE0
FFFFFFFFE0
FFFFFFFFE0
FFFFFFFFE0
FFFFFFFFE0
FFFFFFFFE0
FFFFFFFFE0
FFFFFFFFE0
FFFFFFFFE0
FFFE000000
FFFE000000
FFFE000000
FFFE000000
FFFE000000
FFFE000000
FFFE000000
FFFE000000
FFFE000000
FFFE000000
FFFE000000
FFFE000000
FFFE000000
FFFE000000
FFFE000000
FFFE000000
FFFE000000
FFFE000000
FFFE000000
FFFE000000
FFFE000000
FFFE000000
FFFE000000
FFFE000000
FFFE000000
FFFE000000
FFFE000000
FFFE000000
FFFE000000
FFFE000000
FFFE000000
FFFE000000
FFFE000000
FFFE000000
FFFE000000
FFFE000000
FFFE000000
FFFE000000
FFFE000000
FFFE000000
FFFE000000
FFFE000000
ENDCHAR
STARTCHAR 0067
ENCODING 103
SWIDTH 820 0
DWIDTH 82 0
BBX 71 70 5 -16
BITMAP
0001FFFFFFFFFE0000
003FFFFFFFFFFFF000
00FFFFFFFFFFFFFC00
03FFFFFFFFFFFFFF00
07FFFFFFFFFFFFFFC0
0FFFFFFFFFFFFFFFE0
1FFFFFFFFFFFFFFFF0
1FFFFFFFFFFFFFFFF0
3FFFFFFFFFFFFFFFF8
3FFFFFFFFFFFFFFFF8
7FFFFFFFFFFFFFFFFC
7FFFFFFFFFFFFFFFFC
7FFFFFFFFFFFFFFFFC
7FFFC000000007FFFE
FFFF8000000001FFFE
FFFF0000000001FFFE
FFFE0000000000FFFE
FFFE0000000000FFFE
FFFE00000000007FFE
FFFE00000000007FFE
FFFE00000000007FFE
FFFE00000000007FFE
FFFE00000000007FFE
FFFE00000000007FFE
FFFE00000000007FFE
FFFE00000000007FFE
FFFE00000000007FFE
FFFE00000000007FFE
FFFE00000000007FFE
FFFE00000000007FFE
FFFE00000000007FFE
FFFE00000000007FFE
FFFE00000000007FFE
FFFF00000000007FFE
FFFF80000000007FFE
7FFFE0000000007FFE
7FFFFFFFFFFFFFFFFE
7FFFFFFFFFFFFFFFFE
7FFFFFFFFFFFFFFFFE
3FFFFFFFFFFFFFFFFE
1FFFFFFFFFFFFFFFFE
1FFFFFFFFFFFFFFFFE
0FFFFFFFFFFFFFFFFE
07FFFFFFFFFFFFFFFE
01FFFFFFFFFFFFFFFE
007FFFFFFFFFFFFFFE
000FFFFFFFFFFFFFFE
00000FFFFFFFFFFFFE
000000000000007FFE
000000000000007FFE
000000000000007FFE
000000000000007FFE
000000000000007FFE
000000000000007FFE
00000000000000FFFE
00000000000000FFFE
00000000000001FFFE
00000000000007FFFE
00000003FFFFFFFFFE
00000003FFFFFFFFFE
00000003FFFFFFFFFC
00000003FFFFFFFFFC
00000003FFFFFFFFF8
00000003FFFFFFFFF8
00000003FFFFFFFFF0
00000003FFFFFFFFE0
00000003FFFFFFFFC0
00000003FFFFFFFF80
00000003FFFFFFFC00
00000003FFFFFFE000
ENDCHAR
STARTCHAR 0068
ENCODING 104
SWIDTH 830 0
DWIDTH 83 0
BBX 71 72 6 0
BITMAP
FFFE00000000000000
FFFE00000000000000
FFFE00000000000000
FFFE00000000000000
FFFE00000000000000
FFFE00000000000000
FFFE00000000000000
FFFE00000000000000
FFFE00000000000000
FFFE00000000000000
FFFE00000000000000
FFFE00000000000000
FFFE00000000000000
FFFE00000000000000
FFFE00000000000000
FFFE00000000000000
FFFE00000000000000
FFFE00000000000000
FFFFFFFFFFFFF80000
FFFFFFFFFFFFFFC000
FFFFFFFFFFFFFFF800
FFFFFFFFFFFFFFFE00
FFFFFFFFFFFFFFFF80
FFFFFFFFFFFFFFFFC0
FFFFFFFFFFFFFFFFE0
FFFFFFFFFFFFFFFFF0
FFFFFFFFFFFFFFFFF0
FFFFFFFFFFFFFFFFF8
FFFFFFFFFFFFFFFFF8
FFFFFFFFFFFFFFFFFC
FFFFFFFFFFFFFFFFFC
FFFE000000001FFFFC
FFFE0000000007FFFC
FFFE0000000003FFFE
FFFE0000000001FFFE
FFFE0000000001FFFE
FFFE0000000000FFFE
FFFE0000000000FFFE
FFFE0000000000FFFE
FFFE0000000000FFFE
FFFE0000000000FFFE
FFFE0000000000FFFE
FFFE0000000000FFFE
FFFE0000000000FFFE
FFFE0000000000FFFE
FFFE0000000000FFFE
FFFE0000000000FFFE
FFFE0000000000FFFE
FFFE0000000000FFFE
FFFE0000000000FFFE
FFFE0000000000FFFE
FFFE0000000000FFFE
FFFE0000000000FFFE
FFFE0000000000FFFE
FFFE0000000000FFFE
FFFE0000000000FFFE
FFFE0000000000FFFE
FFFE0000000000FFFE
FFFE0000000000FFFE
FFFE0000000000FFFE
FFFE0000000000FFFE
FFFE0000000000FFFE
FFFE0000000000FFFE
FFFE0000000000FFFE
FFFE0000000000FFFE
FFFE0000000000FFFE
FFFE0000000000FFFE
FFFE0000000000FFFE
FFFE0000000000FFFE
FFFE0000000000FFFE
FFFE0000000000FFFE
FFFE0000000000FFFE
ENDCHAR
STARTCHAR 0069
ENCODING 105
SWIDTH 270 0
DWIDTH 27 0
BBX 15 72 6 0
BITMAP
3FF8
7FFC
FFFE
FFFE
FFFE
FFFE
FFFE
FFFE
FFFE
FFFE
FFFE
FFFE
FFFE
7FFC
3FF8
0000
0000
0000
0000
FFFE
FFFE
FFFE
FFFE
FFFE
FFFE
FFFE
FFFE
FFFE
FFFE
FFFE
FFFE
FFFE
FFFE
FFFE
FFFE
FFFE
FFFE
FFFE
FFFE
FFFE
FFFE
FFFE
FFFE
FFFE
FFFE
FFFE
FFFE
FFFE
FFFE
FFFE
FFFE
FFFE
FFFE
FFFE
FFFE
FFFE
FFFE
FFFE
FFFE
FFFE
FFFE
FFFE
FFFE
FFFE
FFFE
FFFE
FFFE
FFFE
FFFE
FFFE
FFFE
FFFE
ENDCHAR
STARTCHAR 006A
ENCODING 106
SWIDTH 290 0
DWIDTH 29 0
BBX 29 88 -6 -16
BITMAP
0000FFE0
0003FFF0
0003FFF0
0007FFF8
0007FFF8
0007FFF8
0007FFF8
0007FFF8
0007FFF8
0007FFF8
0007FFF8
0007FFF8
0003FFF0
0003FFF0
0000FFC0
00000000
00000000
00000000
00000000
0003FFF8
0003FFF8
0003FFF8
0003FFF8
0003FFF8
0003FFF8
0003FFF8
0003FFF8
0003FFF8
0003FFF8
0003FFF8
0003FFF8
0003FFF8
0003FFF8
0003FFF8
0003FFF8
0003FFF8
0003FFF8
0003FFF8
0003FFF8
0003FFF8
0003FFF8
0003FFF8
0003FFF8
0003FFF8
0003FFF8
0003FFF8
0003FFF8
0003FFF8
0003FFF8
0003FFF8
0003FFF8
0003FFF8
0003FFF8
0003FFF8
0003FFF8
0003FFF8
0003FFF8
0003FFF8
0003FFF8
0003FFF8
0003FFF8
0003FFF8
0003FFF8
0003FFF8
0003FFF8
0003FFF8
0003FFF8
0003FFF8
0003FFF8
0003FFF8
0007FFF0
0007FFF0
0007FFF0
000FFFF0
003FFFF0
FFFFFFF0
FFFFFFE0
FFFFFFE0
FFFFFFC0
FFFFFFC0
FFFFFF80
FFFFFF80
FFFFFF00
FFFFFE00
FFFFF800
FFFFE000
FFFF8000
FFF00000
ENDCHAR
STARTCHAR 006B
ENCODING 107
SWIDTH 730 0
DWIDTH 73 0
BBX 66 72 6 0
BITMAP
FFFE00000000000000
FFFE00000000000000
FFFE00000000000000
FFFE00000000000000
FFFE00000000000000
FFFE00000000000000
FFFE00000000000000
FFFE00000000000000
FFFE00000000000000
FFFE00000000000000
FFFE00000000000000
FFFE00000000000000
FFFE00000000000000
FFFE00000000000000
FFFE00000000000000
FFFE00000000000000
FFFE00000000000000
FFFE00000000000000
FFFE00000007FFFF80
FFFE0000000FFFFE00
FFFE0000001FFFFC00
FFFE0000007FFFF800
FFFE000000FFFFE000
FFFE000001FFFFC000
FFFE000003FFFF8000
FFFE00000FFFFE0000
FFFE00001FFFFC0000
FFFE00003FFFF80000
FFFE00007FFFF00000
FFFE0001FFFFC00000
FFFE0003FFFF800000
FFFE0007FFFF000000
FFFE000FFFFC000000
FFFE003FFFF8000000
FFFE007FFFF0000000
FFFE00FFFFE0000000
FFFE01FFFF80000000
FFFE07FFFF00000000
FFFE0FFFFE00000000
FFFE1FFFF800000000
FFFE3FFFF000000000
FFFEFFFFE000000000
FFFFFFFFC000000000
FFFFFFFF0000000000
FFFFFFFF8000000000
FFFFFFFFC000000000
FFFFFFFFE000000000
FFFEFFFFF000000000
FFFE3FFFFC00000000
FFFE1FFFFE00000000
FFFE0FFFFF00000000
FFFE07FFFF80000000
FFFE03FFFFE0000000
FFFE00FFFFF0000000
FFFE007FFFF8000000
FFFE003FFFFC000000
FFFE001FFFFE000000
FFFE0007FFFF800000
FFFE0003FFFFC00000
FFFE0001FFFFE00000
FFFE0000FFFFF00000
FFFE00003FFFFC0000
FFFE00001FFFFE0000
FFFE00000FFFFF0000
FFFE000007FFFF8000
FFFE000003FFFFE000
FFFE000000FFFFF000
FFFE0000007FFFF800
FFFE0000003FFFFC00
FFFE0000001FFFFE00
FFFE00000007FFFF80
FFFE00000003FFFFC0
ENDCHAR
STARTCHAR 006C
ENCODING 108
SWIDTH 270 0
DWIDTH 27 0
BBX 15 72 6 0
BITMAP
FFFE
FFFE
FFFE
FFFE
FFFE
FFFE
FFFE
FFFE
FFFE
FFFE
FFFE
FFFE
FFFE
FFFE
FFFE
FFFE
FFFE
FFFE
FFFE
FFFE
FFFE
FFFE
FFFE
FFFE
FFFE
FFFE
FFFE
FFFE
FFFE
FFFE
FFFE
FFFE
FFFE
FFFE
FFFE
FFFE
FFFE
FFFE
FFFE
FFFE
FFFE
FFFE
FFFE
FFFE
FFFE
FFFE
FFFE
FFFE
FFFE
FFFE
FFFE
FFFE
FFFE
FFFE
FFFE
FFFE
FFFE
FFFE
FFFE
FFFE
FFFE
FFFE
FFFE
FFFE
FFFE
FFFE
FFFE
FFFE
FFFE
FFFE
FFFE
FFFE
ENDCHAR
STARTCHAR 006D
ENCODING 109
SWIDTH 1110 0
DWIDTH 111 0
BBX 100 54 6 0
BITMAP
0007FFFFFC00000FFFFFFC0000
007FFFFFFFC0007FFFFFFFC000
01FFFFFFFFF001FFFFFFFFF000
07FFFFFFFFFC07FFFFFFFFFC00
0FFFFFFFFFFE0FFFFFFFFFFE00
1FFFFFFFFFFF1FFFFFFFFFFF00
3FFFFFFFFFFF1FFFFFFFFFFF80
3FFFFFFFFFFFBFFFFFFFFFFF80
7FFFFFFFFFFFBFFFFFFFFFFFC0
7FFFFFFFFFFFFFFFFFFFFFFFC0
7FFFFFFFFFFFFFFFFFFFFFFFE0
FFFFFFFFFFFFFFFFFFFFFFFFE0
FFFFFFFFFFFFFFFFFFFFFFFFE0
FFFFC00003FFFFF800007FFFE0
FFFF000000FFFFE000001FFFE0
FFFE0000003FFFC000000FFFF0
FFFE0000003FFF8000000FFFF0
FFFE0000001FFF80000007FFF0
FFFC0000001FFF00000007FFF0
FFFC0000001FFF00000007FFF0
FFFC0000001FFF00000007FFF0
FFFC0000001FFF00000007FFF0
FFFC0000001FFF00000007FFF0
FFFC0000001FFF00000007FFF0
FFFC0000001FFF00000007FFF0
FFFC0000001FFF00000007FFF0
FFFC0000001FFF00000007FFF0
FFFC0000001FFF00000007FFF0
FFFC0000001FFF00000007FFF0
FFFC0000001FFF00000007FFF0
FFFC0000001FFF00000007FFF0
FFFC0000001FFF00000007FFF0
FFFC0000001FFF00000007FFF0
FFFC0000001FFF00000007FFF0
FFFC0000001FFF00000007FFF0
FFFC0000001FFF00000007FFF0
FFFC0000001FFF00000007FFF0
FFFC0000001FFF00000007FFF0
FFFC0000001FFF00000007FFF0
FFFC0000001FFF00000007FFF0
FFFC0000001FFF00000007FFF0
FFFC0000001FFF00000007FFF0
FFFC0000001FFF00000007FFF0
FFFC0000001FFF00000007FFF0
FFFC0000001FFF00000007FFF0
FFFC0000001FFF00000007FFF0
FFFC0000001FFF00000007FFF0
FFFC0000001FFF00000007FFF0
FFFC0000001FFF00000007FFF0
FFFC0000001FFF00000007FFF0
FFFC0000001FFF00000007FFF0
FFFC0000001FFF00000007FFF0
FFFC0000001FFF00000007FFF0
FFFC0000001FFF00000007FFF0
ENDCHAR
STARTCHAR 006E
ENCODING 110
SWIDTH 810 0
DWIDTH 81 0
BBX 70 54 6 0
BITMAP
00007FFFFFFFF00000
000FFFFFFFFFFF8000
007FFFFFFFFFFFF000
01FFFFFFFFFFFFFC00
03FFFFFFFFFFFFFE00
07FFFFFFFFFFFFFF80
0FFFFFFFFFFFFFFF80
1FFFFFFFFFFFFFFFC0
3FFFFFFFFFFFFFFFE0
3FFFFFFFFFFFFFFFE0
7FFFFFFFFFFFFFFFF0
7FFFFFFFFFFFFFFFF0
7FFFFFFFFFFFFFFFF8
7FFFF00000003FFFF8
FFFFC00000000FFFF8
FFFF8000000007FFF8
FFFF0000000003FFF8
FFFE0000000003FFFC
FFFE0000000003FFFC
FFFE0000000001FFFC
FFFE0000000001FFFC
FFFE0000000001FFFC
FFFE0000000001FFFC
FFFE0000000001FFFC
FFFE0000000001FFFC
FFFE0000000001FFFC
FFFE0000000001FFFC
FFFE0000000001FFFC
FFFE0000000001FFFC
FFFE0000000001FFFC
FFFE0000000001FFFC
FFFE0000000001FFFC
FFFE0000000001FFFC
FFFE0000000001FFFC
FFFE0000000001FFFC
FFFE0000000001FFFC
FFFE0000000001FFFC
FFFE0000000001FFFC
FFFE0000000001FFFC
FFFE0000000001FFFC
FFFE0000000001FFFC
FFFE0000000001FFFC
FFFE0000000001FFFC
FFFE0000000001FFFC
FFFE0000000001FFFC
FFFE0000000001FFFC
FFFE0000000001FFFC
FFFE0000000001FFFC
FFFE0000000001FFFC
FFFE0000000001FFFC
FFFE0000000001FFFC
FFFE0000000001FFFC
FFFE0000000001FFFC
FFFE0000000001FFFC
ENDCHAR
STARTCHAR 006F
ENCODING 111
SWIDTH 810 0
DWIDTH 81 0
BBX 71 54 5 0
BITMAP
00003FFFFFFFF80000
0007FFFFFFFFFFC000
003FFFFFFFFFFFF800
00FFFFFFFFFFFFFE00
01FFFFFFFFFFFFFF00
03FFFFFFFFFFFFFF80
07FFFFFFFFFFFFFFC0
0FFFFFFFFFFFFFFFE0
1FFFFFFFFFFFFFFFF0
1FFFFFFFFFFFFFFFF0
3FFFFFFFFFFFFFFFF8
3FFFFFFFFFFFFFFFF8
3FFFFFFFFFFFFFFFF8
7FFFF80000003FFFFC
7FFFE000000007FFFC
7FFF8000000003FFFC
7FFF8000000003FFFC
7FFF0000000001FFFC
7FFF0000000001FFFC
FFFF0000000001FFFC
FFFE0000000000FFFE
FFFE0000000000FFFE
FFFE0000000000FFFE
FFFE0000000000FFFE
FFFE0000000000FFFE
FFFE0000000000FFFE
FFFE0000000000FFFE
FFFE0000000000FFFE
FFFE0000000000FFFE
FFFE0000000000FFFE
FFFE0000000000FFFE
FFFE0000000000FFFE
FFFE0000000000FFFE
FFFE0000000000FFFE
FFFF0000000001FFFC
7FFF0000000001FFFC
7FFF0000000001FFFC
7FFF8000000003FFFC
7FFF8000000003FFFC
7FFFC000000007FFFC
7FFFF00000001FFFFC
3FFFFFFFFFFFFFFFF8
3FFFFFFFFFFFFFFFF8
3FFFFFFFFFFFFFFFF8
1FFFFFFFFFFFFFFFF0
1FFFFFFFFFFFFFFFF0
0FFFFFFFFFFFFFFFE0
07FFFFFFFFFFFFFFC0
03FFFFFFFFFFFFFF80
01FFFFFFFFFFFFFF00
00FFFFFFFFFFFFFE00
003FFFFFFFFFFFF800
0007FFFFFFFFFFC000
00007FFFFFFFFC0000
ENDCHAR
STARTCHAR 0070
ENCODING 112
SWIDTH 820 0
DWIDTH 82 0
BBX 72 70 5 -16
BITMAP
00003FFFFFFFFC0000
0007FFFFFFFFFFE000
003FFFFFFFFFFFFC00
00FFFFFFFFFFFFFF00
01FFFFFFFFFFFFFF80
03FFFFFFFFFFFFFFC0
07FFFFFFFFFFFFFFE0
0FFFFFFFFFFFFFFFF0
1FFFFFFFFFFFFFFFF8
1FFFFFFFFFFFFFFFF8
3FFFFFFFFFFFFFFFFC
3FFFFFFFFFFFFFFFFC
3FFFFFFFFFFFFFFFFC
7FFFF00000000FFFFE
7FFFC000000003FFFE
7FFF8000000001FFFE
7FFF8000000000FFFE
7FFF0000000000FFFE
7FFF0000000000FFFE
7FFF0000000000FFFF
7FFF00000000007FFF
FFFE00000000007FFF
FFFE00000000007FFF
FFFE00000000007FFF
FFFE00000000007FFF
FFFE00000000007FFF
FFFE00000000007FFF
FFFE00000000007FFF
FFFE00000000007FFF
FFFE00000000007FFF
FFFE00000000007FFF
FFFE00000000007FFF
FFFE00000000007FFF
FFFE00000000007FFF
FFFE00000000007FFF
FFFE0000000000FFFE
FFFE0000000000FFFE
FFFE0000000000FFFE
FFFE0000000001FFFE
FFFE0000000003FFFE
FFFE000000000FFFFE
FFFFFFFFFFFFFFFFFC
FFFFFFFFFFFFFFFFFC
FFFFFFFFFFFFFFFFFC
FFFFFFFFFFFFFFFFF8
FFFFFFFFFFFFFFFFF8
FFFFFFFFFFFFFFFFF0
FFFFFFFFFFFFFFFFE0
FFFFFFFFFFFFFFFFE0
FFFFFFFFFFFFFFFF80
FFFFFFFFFFFFFFFF00
FFFFFFFFFFFFFFFC00
FFFFFFFFFFFFFFE000
FFFFFFFFFFFFFE0000
FFFE00000000000000
FFFE00000000000000
FFFE00000000000000
FFFE00000000000000
FFFE00000000000000
FFFE00000000000000
FFFE00000000000000
FFFE00000000000000
FFFE00000000000000
FFFE00000000000000
FFFE00000000000000
FFFE00000000000000
FFFE00000000000000
FFFE00000000000000
FFFE00000000000000
FFFE00000000000000
ENDCHAR
STARTCHAR 0071
ENCODING 113
SWIDTH 820 0
DWIDTH 82 0
BBX 72 70 5 -16
BITMAP
00003FFFFFFFFC0000
0007FFFFFFFFFFE000
003FFFFFFFFFFFFC00
00FFFFFFFFFFFFFF00
01FFFFFFFFFFFFFF80
07FFFFFFFFFFFFFFC0
07FFFFFFFFFFFFFFE0
0FFFFFFFFFFFFFFFF0
1FFFFFFFFFFFFFFFF8
1FFFFFFFFFFFFFFFF8
3FFFFFFFFFFFFFFFFC
3FFFFFFFFFFFFFFFFC
3FFFFFFFFFFFFFFFFC
7FFFF00000000FFFFE
7FFFC000000003FFFE
7FFF8000000001FFFE
7FFF0000000001FFFE
7FFF0000000000FFFE
FFFF0000000000FFFE
FFFE0000000000FFFE
FFFE0000000000FFFE
FFFE0000000000FFFE
FFFE00000000007FFE
FFFE00000000007FFF
FFFE00000000007FFF
FFFE00000000007FFF
FFFE00000000007FFF
FFFE00000000007FFF
FFFE00000000007FFF
FFFE00000000007FFF
FFFE00000000007FFF
FFFE00000000007FFF
FFFE00000000007FFF
FFFE00000000007FFF
FFFE00000000007FFF
FFFF00000000007FFF
7FFF00000000007FFF
7FFF00000000007FFF
7FFF80000000007FFF
7FFFC0000000007FFF
7FFFF0000000007FFF
3FFFFFFFFFFFFFFFFF
3FFFFFFFFFFFFFFFFF
3FFFFFFFFFFFFFFFFF
1FFFFFFFFFFFFFFFFF
1FFFFFFFFFFFFFFFFF
0FFFFFFFFFFFFFFFFF
07FFFFFFFFFFFFFFFF
07FFFFFFFFFFFFFFFF
01FFFFFFFFFFFFFFFF
00FFFFFFFFFFFFFFFF
003FFFFFFFFFFFFFFF
0007FFFFFFFFFFFFFF
00007FFFFFFFFFFFFF
000000000000007FFF
000000000000007FFF
000000000000007FFF
000000000000007FFF
000000000000007FFF
000000000000007FFF
000000000000007FFF
000000000000007FFF
000000000000007FFF
000000000000007FFF
000000000000007FFF
000000000000007FFF
000000000000007FFF
000000000000007FFF
000000000000007FFF
000000000000007FFF
ENDCHAR
STARTCHAR 0072
ENCODING 114
SWIDTH 440 0
DWIDTH 44 0
BBX 35 54 6 0
BITMAP
00007FFFE0
000FFFFFE0
003FFFFFE0
00FFFFFFE0
01FFFFFFE0
07FFFFFFE0
0FFFFFFFE0
0FFFFFFFE0
1FFFFFFFE0
3FFFFFFFE0
3FFFFFFFE0
3FFFFFFFE0
7FFFF00000
7FFFC00000
7FFF800000
FFFF000000
FFFF000000
FFFE000000
FFFE000000
FFFE000000
FFFE000000
FFFE000000
FFFE000000
FFFE000000
FFFE000000
FFFE000000
FFFE000000
FFFE000000
FFFE000000
FFFE000000
FFFE000000
FFFE000000
FFFE000000
FFFE000000
FFFE000000
FFFE000000
FFFE000000
FFFE000000
FFFE000000
FFFE000000
FFFE000000
FFFE000000
FFFE000000
FFFE000000
FFFE000000
FFFE000000
FFFE000000
FFFE000000
FFFE000000
FFFE000000
FFFE000000
FFFE000000
FFFE000000
FFFE000000
ENDCHAR
STARTCHAR 0073
ENCODING 115
SWIDTH 740 0
DWIDTH 74 0
BBX 65 54 5 0
BITMAP
01FFFFFFF000000000
07FFFFFFF000000000
1FFFFFFFF000000000
3FFFFFFFF000000000
7FFFFFFFF000000000
7FFFFFFFF000000000
7FFFFFFFF000000000
FFFFFFFFF000000000
FFFFFFFFF000000000
FFFFFFFFF000000000
FFFFFFFFF000000000
FFFF00000000000000
FFFE00000000000000
FFFC00000000000000
FFFC00000000000000
FFFC00000000000000
FFFC00000000000000
FFFC00000000000000
FFFC00000000000000
FFFE00000000000000
FFFF00000000000000
FFFFFFFFFFFFFC0000
FFFFFFFFFFFFFFC000
FFFFFFFFFFFFFFF000
7FFFFFFFFFFFFFF800
7FFFFFFFFFFFFFFC00
3FFFFFFFFFFFFFFE00
1FFFFFFFFFFFFFFE00
0FFFFFFFFFFFFFFF00
07FFFFFFFFFFFFFF00
007FFFFFFFFFFFFF00
000000000000FFFF00
0000000000007FFF00
0000000000003FFF00
0000000000003FFF80
0000000000003FFF80
0000000000003FFF80
0000000000003FFF80
0000000000003FFF80
0000000000003FFF80
0000000000007FFF80
000000000000FFFF80
FFFFFFFFFFFFFFFF00
FFFFFFFFFFFFFFFF00
FFFFFFFFFFFFFFFF00
FFFFFFFFFFFFFFFF00
FFFFFFFFFFFFFFFF00
FFFFFFFFFFFFFFFE00
FFFFFFFFFFFFFFFE00
FFFFFFFFFFFFFFFC00
FFFFFFFFFFFFFFFC00
FFFFFFFFFFFFFFF000
FFFFFFFFFFFFFFC000
FFFFFFFFFFFFFE0000
ENDCHAR
STARTCHAR 0074
ENCODING 116
SWIDTH 430 0
DWIDTH 43 0
BBX 40 70 1 0
BITMAP
00FFFE0000
00FFFE0000
00FFFE0000
00FFFE0000
00FFFE0000
00FFFE0000
00FFFE0000
00FFFE0000
00FFFE0000
00FFFE0000
00FFFE0000
00FFFE0000
00FFFE0000
00FFFE0000
00FFFE0000
00FFFE0000
FFFFFFFFFF
FFFFFFFFFF
FFFFFFFFFF
FFFFFFFFFF
FFFFFFFFFF
FFFFFFFFFF
FFFFFFFFFF
FFFFFFFFFF
FFFFFFFFFF
FFFFFFFFFF
FFFFFFFFFF
FFFFFFFFFF
00FFFE0000
00FFFE0000
00FFFE0000
00FFFE0000
00FFFE0000
00FFFE0000
00FFFE0000
00FFFE0000
00FFFE0000
00FFFE0000
00FFFE0000
00FFFE0000
00FFFE0000
00FFFE0000
00FFFE0000
00FFFE0000
00FFFE0000
00FFFE0000
00FFFE0000
00FFFE0000
00FFFE0000
00FFFE0000
00FFFE0000
00FFFE0000
00FFFE0000
00FFFE0000
00FFFE0000
00FFFE0000
00FFFE0000
00FFFE0000
00FFFE0000
00FFFE0000
00FFFE0000
00FFFE0000
00FFFE0000
00FFFE0000
00FFFE0000
00FFFE0000
00FFFE0000
00FFFE0000
00FFFE0000
00FFFE0000
ENDCHAR
STARTCHAR 0075
ENCODING 117
SWIDTH 810 0
DWIDTH 81 0
BBX 69 54 6 0
BITMAP
FFFE0000000001FFF8
FFFE0000000001FFF8
FFFE0000000001FFF8
FFFE0000000001FFF8
FFFE0000000001FFF8
FFFE0000000001FFF8
FFFE0000000001FFF8
FFFE0000000001FFF8
FFFE0000000001FFF8
FFFE0000000001FFF8
FFFE0000000001FFF8
FFFE0000000001FFF8
FFFE0000000001FFF8
FFFE0000000001FFF8
FFFE0000000001FFF8
FFFE0000000001FFF8
FFFE0000000001FFF8
FFFE0000000001FFF8
FFFE0000000001FFF8
FFFE0000000001FFF8
FFFE0000000001FFF8
FFFE0000000001FFF8
FFFE0000000001FFF8
FFFE0000000001FFF8
FFFE0000000001FFF8
FFFE0000000001FFF8
FFFE0000000001FFF8
FFFE0000000001FFF8
FFFE0000000001FFF8
FFFE0000000001FFF8
FFFE0000000001FFF8
FFFE0000000001FFF8
FFFE0000000001FFF8
FFFE0000000003FFF8
FFFE0000000003FFF8
FFFE0000000003FFF8
FFFE0000000003FFF8
FFFF0000000007FFF8
FFFF8000000007FFF8
FFFFC00000000FFFF8
7FFFF00000003FFFF0
7FFFFFFFFFFFFFFFF0
7FFFFFFFFFFFFFFFF0
7FFFFFFFFFFFFFFFE0
3FFFFFFFFFFFFFFFE0
3FFFFFFFFFFFFFFFC0
1FFFFFFFFFFFFFFFC0
0FFFFFFFFFFFFFFF80
07FFFFFFFFFFFFFF00
03FFFFFFFFFFFFFE00
01FFFFFFFFFFFFFC00
007FFFFFFFFFFFF000
000FFFFFFFFFFF8000
00007FFFFFFFF00000
ENDCHAR
STARTCHAR 0076
ENCODING 118
SWIDTH 940 0
DWIDTH 94 0
BBX 91 56 1 -2
BITMAP
FFFFC00000000000003FFFE0
7FFFE00000000000007FFFE0
3FFFE00000000000007FFFC0
3FFFF0000000000000FFFF80
1FFFF8000000000001FFFF80
0FFFF8000000000003FFFF00
0FFFFC000000000003FFFE00
07FFFE000000000007FFFE00
03FFFE00000000000FFFFC00
01FFFF00000000000FFFF800
01FFFF80000000001FFFF000
00FFFFC0000000003FFFF000
007FFFC0000000003FFFE000
007FFFE0000000007FFFC000
003FFFF000000000FFFFC000
001FFFF000000000FFFF8000
001FFFF800000001FFFF0000
000FFFFC00000003FFFF0000
0007FFFC00000003FFFE0000
0003FFFE00000007FFFC0000
0003FFFF0000000FFFF80000
0001FFFF0000000FFFF80000
0000FFFF8000001FFFF00000
0000FFFFC000003FFFE00000
00007FFFC000003FFFE00000
00003FFFE000007FFFC00000
00003FFFF00000FFFF800000
00001FFFF00000FFFF800000
00000FFFF80001FFFF000000
000007FFFC0003FFFE000000
000007FFFC0003FFFC000000
000003FFFE0007FFFC000000
000001FFFF000FFFF8000000
000001FFFF800FFFF0000000
000000FFFF801FFFF0000000
0000007FFFC03FFFE0000000
0000007FFFE03FFFC0000000
0000003FFFE07FFF80000000
0000001FFFF0FFFF80000000
0000000FFFF8FFFF00000000
0000000FFFF9FFFE00000000
00000007FFFFFFFE00000000
00000003FFFFFFFC00000000
00000003FFFFFFF800000000
00000001FFFFFFF800000000
00000000FFFFFFF000000000
000000007FFFFFE000000000
000000007FFFFFC000000000
000000003FFFFFC000000000
000000001FFFFF8000000000
000000001FFFFF0000000000
000000000FFFFF0000000000
0000000007FFFE0000000000
0000000003FFFC0000000000
0000000001FFF00000000000
00000000003FC00000000000
ENDCHAR
STARTCHAR 0077
ENCODING 119
SWIDTH 1100 0
DWIDTH 110 0
BBX 108 58 1 -2
BITMAP
0000000000001FC0000000000000
0000000000007FF0000000000000
FFFF00000000FFF800000007FFF0
7FFF00000001FFF800000007FFF0
7FFF00000001FFFC0000000FFFE0
3FFF80000003FFFC0000000FFFE0
3FFF80000003FFFE0000001FFFC0
1FFFC0000007FFFE0000001FFFC0
1FFFC0000007FFFF0000001FFF80
1FFFC000000FFFFF0000003FFF80
0FFFE000000FFFFF8000003FFF00
0FFFE000001FFFFF8000007FFF00
07FFF000001FFFFFC000007FFF00
07FFF000003FFFFFC00000FFFE00
07FFF800003FFFFFC00000FFFE00
03FFF800003FFFFFE00001FFFC00
03FFF800007FFFFFE00001FFFC00
01FFFC00007FFFFFF00001FFF800
01FFFC0000FFFFFFF00003FFF800
00FFFE0000FFFFFFF80003FFF000
00FFFE0001FFF9FFF80007FFF000
00FFFF0001FFF9FFFC0007FFF000
007FFF0003FFF0FFFC000FFFE000
007FFF0003FFF0FFFC000FFFE000
003FFF8007FFE07FFE001FFFC000
003FFF8007FFE07FFE001FFFC000
001FFFC00FFFC03FFF001FFF8000
001FFFC00FFFC03FFF003FFF8000
001FFFC01FFF801FFF803FFF0000
000FFFE01FFF801FFF807FFF0000
000FFFE03FFF001FFFC07FFF0000
0007FFF03FFF000FFFC0FFFE0000
0007FFF03FFF000FFFE0FFFE0000
0003FFF87FFE0007FFE1FFFC0000
0003FFF87FFE0007FFE1FFFC0000
0003FFF8FFFC0003FFF1FFF80000
0001FFFCFFFC0003FFF3FFF80000
0001FFFDFFF80001FFFBFFF00000
0000FFFFFFF80001FFFFFFF00000
0000FFFFFFF00001FFFFFFF00000
00007FFFFFF00000FFFFFFE00000
00007FFFFFE00000FFFFFFE00000
00007FFFFFE000007FFFFFC00000
00003FFFFFC000007FFFFFC00000
00003FFFFFC000003FFFFF800000
00001FFFFF8000003FFFFF800000
00001FFFFF8000001FFFFF000000
00000FFFFF0000001FFFFF000000
00000FFFFF0000000FFFFF000000
00000FFFFE0000000FFFFE000000
000007FFFE0000000FFFFE000000
000007FFFC00000007FFFC000000
000003FFFC00000007FFFC000000
000003FFF800000003FFF8000000
000001FFF800000001FFF8000000
000001FFF000000001FFF0000000
000000FFE0000000007FE0000000
0000003F80000000003F00000000
ENDCHAR
STARTCHAR 0078
ENCODING 120
SWIDTH 750 0
DWIDTH 75 0
BBX 73 54 1 0
BITMAP
3FFFF000000001FFFF80
1FFFF800000003FFFF00
0FFFFC00000007FFFE00
07FFFE0000000FFFFC00
03FFFF0000001FFFF000
01FFFF8000003FFFE000
00FFFFC000007FFFC000
007FFFE00000FFFF8000
003FFFF00001FFFF0000
001FFFF80003FFFE0000
000FFFFC0007FFFC0000
0007FFFE000FFFF80000
0003FFFF001FFFF00000
0001FFFF803FFFE00000
0000FFFF807FFFC00000
00007FFFC0FFFF800000
00003FFFE1FFFF000000
00001FFFF3FFFE000000
00000FFFFFFFFC000000
000007FFFFFFF8000000
000003FFFFFFF0000000
000001FFFFFFE0000000
000000FFFFFFC0000000
0000007FFFFF80000000
0000003FFFFF00000000
0000001FFFFE00000000
0000001FFFFC00000000
0000003FFFFE00000000
0000007FFFFF00000000
000000FFFFFF80000000
000001FFFFFFC0000000
000003FFFFFFE0000000
000007FFFFFFF0000000
00000FFFFFFFF8000000
00001FFFF7FFFC000000
00003FFFF7FFFE000000
00007FFFE3FFFF000000
0000FFFFC1FFFF800000
0001FFFF80FFFFC00000
0003FFFF007FFFE00000
0007FFFE003FFFF00000
000FFFFC001FFFF80000
001FFFF8000FFFFC0000
003FFFF00007FFFE0000
007FFFE00003FFFF0000
00FFFFC00001FFFF8000
01FFFF800000FFFFC000
03FFFF0000007FFFE000
07FFFE0000003FFFF000
0FFFFC0000001FFFF800
1FFFF80000000FFFFC00
3FFFF00000000FFFFE00
7FFFE000000007FFFF00
FFFFC000000003FFFF80
ENDCHAR
STARTCHAR 0079
ENCODING 121
SWIDTH 830 0
DWIDTH 83 0
BBX 71 70 6 -16
BITMAP
FFFE0000000000FFFE
FFFE0000000000FFFE
FFFE0000000000FFFE
FFFE0000000000FFFE
FFFE0000000000FFFE
FFFE0000000000FFFE
FFFE0000000000FFFE
FFFE0000000000FFFE
FFFE0000000000FFFE
FFFE0000000000FFFE
FFFE0000000000FFFE
FFFE0000000000FFFE
FFFE0000000000FFFE
FFFE0000000000FFFE
FFFE0000000000FFFE
FFFE0000000000FFFE
FFFE0000000000FFFE
FFFE0000000000FFFE
FFFE0000000000FFFE
FFFE0000000000FFFE
FFFE0000000000FFFE
FFFE0000000000FFFE
FFFE0000000000FFFE
FFFE0000000000FFFE
FFFE0000000000FFFE
FFFE0000000000FFFE
FFFE0000000000FFFE
FFFE0000000000FFFE
FFFE0000000000FFFE
FFFE0000000000FFFE
FFFE0000000000FFFE
FFFE0000000000FFFE
FFFE0000000000FFFE
FFFF0000000000FFFE
FFFF8000000000FFFE
FFFFE000000000FFFE
7FFFFFFFFFFFFFFFFE
7FFFFFFFFFFFFFFFFE
7FFFFFFFFFFFFFFFFE
3FFFFFFFFFFFFFFFFE
1FFFFFFFFFFFFFFFFE
1FFFFFFFFFFFFFFFFE
0FFFFFFFFFFFFFFFFE
07FFFFFFFFFFFFFFFE
01FFFFFFFFFFFFFFFE
007FFFFFFFFFFFFFFE
001FFFFFFFFFFFFFFE
0000FFFFFFFFFFFFFE
00000000000000FFFE
00000000000000FFFE
00000000000000FFFE
00000000000000FFFE
00000000000000FFFE
00000000000000FFFE
00000000000000FFFE
00000000000000FFFE
00000000000001FFFE
00000000000007FFFC
00000003FFFFFFFFFC
00000003FFFFFFFFFC
00000003FFFFFFFFFC
00000003FFFFFFFFF8
00000003FFFFFFFFF8
00000003FFFFFFFFF0
00000003FFFFFFFFF0
00000003FFFFFFFFE0
00000003FFFFFFFFC0
00000003FFFFFFFF00
00000003FFFFFFFC00
00000003FFFFFFC000
ENDCHAR
STARTCHAR 007A
ENCODING 122
SWIDTH 700 0
DWIDTH 70 0
BBX 63 54 4 0
BITMAP
7FFFFFFFFFFFFFC0
7FFFFFFFFFFFFFE0
7FFFFFFFFFFFFFF0
7FFFFFFFFFFFFFF8
7FFFFFFFFFFFFFF8
7FFFFFFFFFFFFFF8
7FFFFFFFFFFFFFF8
7FFFFFFFFFFFFFF8
7FFFFFFFFFFFFFF0
7FFFFFFFFFFFFFF0
7FFFFFFFFFFFFFE0
0000000000FFFF80
0000000001FFFF00
0000000003FFFE00
000000000FFFFC00
000000001FFFF800
000000003FFFF000
000000007FFFE000
00000000FFFF8000
00000003FFFF0000
00000007FFFE0000
0000000FFFFC0000
0000001FFFF80000
0000003FFFF00000
000000FFFFC00000
000001FFFF800000
000003FFFF000000
000007FFFE000000
00000FFFFC000000
00001FFFF8000000
00007FFFF0000000
0000FFFFC0000000
0001FFFF80000000
0003FFFF00000000
0007FFFE00000000
001FFFFC00000000
003FFFF800000000
007FFFE000000000
00FFFFC000000000
01FFFF8000000000
03FFFF0000000000
0FFFFE0000000000
1FFFFC0000000000
3FFFFFFFFFFFFFFE
7FFFFFFFFFFFFFFE
FFFFFFFFFFFFFFFE
FFFFFFFFFFFFFFFE
FFFFFFFFFFFFFFFE
FFFFFFFFFFFFFFFE
FFFFFFFFFFFFFFFE
FFFFFFFFFFFFFFFE
FFFFFFFFFFFFFFFE
7FFFFFFFFFFFFFFE
3FFFFFFFFFFFFFFE
ENDCHAR
STARTCHAR 007B
ENCODING 123
SWIDTH 330 0
DWIDTH 33 0
BBX 31 108 1 -22
BITMAP
00007FFE
0003FFFE
0007FFFE
000FFFFE
000FFFFE
001FFFFE
001FFFFE
001FFFFE
001FFC00
001FF800
001FF800
001FF800
001FF800
001FF800
001FF800
001FF800
001FF800
001FF800
001FF800
001FF800
001FF800
001FF800
001FF800
001FF800
001FF800
001FF800
001FF800
001FF800
001FF800
001FF800
001FF800
001FF800
001FF800
001FF800
001FF800
001FF800
001FF800
001FF800
001FF800
001FF800
001FF800
001FF800
001FF800
001FF800
001FF800
001FF800
003FF800
003FF800
007FF000
0FFFF000
7FFFF000
7FFFE000
FFFFE000
FFFF8000
FFFF0000
FFFFC000
FFFFE000
7FFFF000
3FFFF000
00FFF000
003FF800
003FF800
001FF800
001FF800
001FF800
001FF800
001FF800
001FF800
001FF800
001FF800
001FF800
001FF800
001FF800
001FF800
001FF800
001FF800
001FF800
001FF800
001FF800
001FF800
001FF800
001FF800
001FF800
001FF800
001FF800
001FF800
001FF800
001FF800
001FF800
001FF800
001FF800
001FF800
001FF800
001FF800
001FF800
001FF800
001FF800
001FF800
001FF800
001FFC00
001FFFFE
001FFFFE
001FFFFE
000FFFFE
000FFFFE
0007FFFE
0003FFFE
00007FFE
ENDCHAR
STARTCHAR 007C
ENCODING 124
SWIDTH 270 0
DWIDTH 27 0
BBX 10 108 8 -22
BITMAP
FFC0
FFC0
FFC0
FFC0
FFC0
FFC0
FFC0
FFC0
FFC0
FFC0
FFC0
FFC0
FFC0
FFC0
FFC0
FFC0
FFC0
FFC0
FFC0
FFC0
FFC0
FFC0
FFC0
FFC0
FFC0
FFC0
FFC0
FFC0
FFC0
FFC0
FFC0
FFC0
FFC0
FFC0
FFC0
FFC0
FFC0
FFC0
FFC0
FFC0
FFC0
FFC0
FFC0
FFC0
FFC0
FFC0
FFC0
FFC0
FFC0
FFC0
FFC0
FFC0
FFC0
FFC0
FFC0
FFC0
FFC0
FFC0
FFC0
FFC0
FFC0
FFC0
FFC0
FFC0
FFC0
FFC0
FFC0
FFC0
FFC0
FFC0
FFC0
FFC0
FFC0
FFC0
FFC0
FFC0
FFC0
FFC0
FFC0
FFC0
FFC0
FFC0
FFC0
FFC0
FFC0
FFC0
FFC0
FFC0
FFC0
FFC0
FFC0
FFC0
FFC0
FFC0
FFC0
FFC0
FFC0
FFC0
FFC0
FFC0
FFC0
FFC0
FFC0
FFC0
FFC0
FFC0
FFC0
FFC0
ENDCHAR
STARTCHAR 007D
ENCODING 125
SWIDTH 330 0
DWIDTH 33 0
BBX 31 108 1 -22
BITMAP
FFFC0000
FFFF8000
FFFFC000
FFFFE000
FFFFE000
FFFFF000
FFFFF000
FFFFF000
007FF000
003FF000
003FF000
003FF000
003FF000
003FF000
003FF000
003FF000
003FF000
003FF000
003FF000
003FF000
003FF000
003FF000
003FF000
003FF000
003FF000
003FF000
003FF000
003FF000
003FF000
003FF000
003FF000
003FF000
003FF000
003FF000
003FF000
003FF000
003FF000
003FF000
003FF000
003FF000
003FF000
003FF000
003FF000
003FF000
003FF000
003FF800
003FF800
001FF800
001FFC00
001FFFE0
001FFFFC
000FFFFE
0007FFFE
0003FFFE
0001FFFE
0007FFFE
000FFFFE
000FFFFC
001FFFF8
001FFE00
001FFC00
003FF800
003FF800
003FF000
003FF000
003FF000
003FF000
003FF000
003FF000
003FF000
003FF000
003FF000
003FF000
003FF000
003FF000
003FF000
003FF000
003FF000
003FF000
003FF000
003FF000
003FF000
003FF000
003FF000
003FF000
003FF000
003FF000
003FF000
003FF000
003FF000
003FF000
003FF000
003FF000
003FF000
003FF000
003FF000
003FF000
003FF000
003FF000
007FF000
FFFFF000
FFFFF000
FFFFF000
FFFFE000
FFFFE000
FFFFC000
FFFF8000
FFFE0000
ENDCHAR
STARTCHAR 007E
ENCODING 126
SWIDTH 590 0
DWIDTH 59 0
BBX 47 17 6 27
BITMAP
003E00000000
00FFC0000000
07FFF8000006
1FFFFF00003E
FFFFFFE000FE
FFFFFFF807FE
FFFFFFFFBFFE
FFFFFFFFFFFE
FFFFFFFFFFFE
FFFFFFFFFFFE
FFFBFFFFFFFE
FFC07FFFFFFE
FE000FFFFFFE
F80001FFFFF0
C000003FFFC0
00000007FE00
00000000F800
ENDCHAR
STARTCHAR 00A0
ENCODING 160
SWIDTH 400 0
DWIDTH 40 0
BBX 0 0 0 0
BITMAP
ENDCHAR
STARTCHAR 00A1
ENCODING 161
SWIDTH 280 0
DWIDTH 28 0
BBX 15 68 7 0
BITMAP
3FF8
FFFC
FFFC
FFFE
FFFE
FFFE
FFFE
FFFE
FFFE
FFFE
FFFE
FFFE
FFFC
FFFC
3FF0
0000
0000
0000
0000
0000
0000
FFFE
FFFE
FFFE
FFFE
FFFE
FFFE
FFFE
FFFE
FFFE
FFFE
FFFE
FFFE
FFFE
FFFE
FFFE
FFFE
FFFE
FFFE
FFFE
FFFE
FFFE
FFFE
FFFE
FFFE
FFFE
FFFE
FFFE
FFFE
FFFE
FFFE
FFFE
FFFE
FFFE
FFFE
FFFE
FFFE
FFFE
FFFE
FFFE
FFFE
FFFE
FFFE
FFFE
FFFE
FFFE
FFFE
FFFE
ENDCHAR
STARTCHAR 00A2
ENCODING 162
SWIDTH 730 0
DWIDTH 73 0
BBX 65 68 5 0
BITMAP
000000007FF0000000
000000007FF0000000
000000007FF0000000
000000007FF0000000
000000007FF0000000
000000007FF0000000
000000007FF0000000
00000FFFFFFFFFFF80
0007FFFFFFFFFFFF80
003FFFFFFFFFFFFF80
00FFFFFFFFFFFFFF80
03FFFFFFFFFFFFFF80
07FFFFFFFFFFFFFF80
0FFFFFFFFFFFFFFF80
1FFFFFFFFFFFFFFF80
1FFFFFFFFFFFFFFF80
3FFFFFFFFFFFFFFF80
3FFFFFFFFFFFFFFF80
7FFFFFFFFFFFFFFF80
7FFFFFFFFFFFFFFF80
7FFFF8007FF0000000
FFFFC0007FF0000000
FFFF80007FF0000000
FFFF00007FF0000000
FFFE00007FF0000000
FFFE00007FF0000000
FFFE00007FF0000000
FFFE00007FF0000000
FFFE00007FF0000000
FFFE00007FF0000000
FFFE00007FF0000000
FFFE00007FF0000000
FFFE00007FF0000000
FFFE00007FF0000000
FFFE00007FF0000000
FFFE00007FF0000000
FFFE00007FF0000000
FFFE00007FF0000000
FFFE00007FF0000000
FFFE00007FF0000000
FFFE00007FF0000000
FFFE00007FF0000000
FFFE00007FF0000000
FFFE00007FF0000000
FFFE00007FF0000000
FFFF00007FF0000000
FFFF80007FF0000000
FFFFC0007FF0000000
7FFFF8007FF0000000
7FFFFFFFFFFFFFFF80
7FFFFFFFFFFFFFFF80
3FFFFFFFFFFFFFFF80
3FFFFFFFFFFFFFFF80
1FFFFFFFFFFFFFFF80
1FFFFFFFFFFFFFFF80
0FFFFFFFFFFFFFFF80
07FFFFFFFFFFFFFF80
01FFFFFFFFFFFFFF80
00FFFFFFFFFFFFFF80
003FFFFFFFFFFFFF80
0003FFFFFFFFFFFF80
000001FFFFFFFFFF80
000000007FF0000000
000000007FF0000000
000000007FF0000000
000000007FF0000000
000000007FF0000000
000000007FF0000000
ENDCHAR
STARTCHAR 00A3
ENCODING 163
SWIDTH 840 0
DWIDTH 84 0
BBX 78 68 2 0
BITMAP
0000001FFFFFE0000000
000003FFFFFFE0000000
00001FFFFFFFE0000000
00007FFFFFFFE0000000
0000FFFFFFFFE0000000
0001FFFFFFFFE0000000
0003FFFFFFFFE0000000
0007FFFFFFFFE0000000
000FFFFFFFFFE0000000
000FFFFFFFFFE0000000
001FFFFFFFFFE0000000
001FFFFFFFFFE0000000
001FFFFFFFFFE0000000
003FFFFC000000000000
003FFFF0000000000000
003FFFE0000000000000
003FFFC0000000000000
003FFFC0000000000000
003FFF80000000000000
007FFF80000000000000
007FFF80000000000000
007FFF80000000000000
007FFF80000000000000
007FFF80000000000000
007FFF80000000000000
007FFF80000000000000
007FFF80000000000000
007FFF80000000000000
007FFFFFFFFFFFFFFFFC
007FFFFFFFFFFFFFFFFC
007FFFFFFFFFFFFFFFFC
007FFFFFFFFFFFFFFFFC
007FFFFFFFFFFFFFFFFC
007FFFFFFFFFFFFFFFFC
007FFFFFFFFFFFFFFFFC
007FFFFFFFFFFFFFFFFC
007FFFFFFFFFFFFFFFFC
007FFFFFFFFFFFFFFFFC
007FFFFFFFFFFFFFFFFC
007FFFFFFFFFFFFFFFFC
007FFF80000000000000
007FFF80000000000000
007FFF80000000000000
007FFF80000000000000
007FFF80000000000000
007FFF80000000000000
007FFF80000000000000
007FFF80000000000000
007FFF80000000000000
007FFF80000000000000
007FFF80000000000000
007FFF80000000000000
007FFF80000000000000
007FFF80000000000000
007FFF80000000000000
FFFFFFFFFFFFFFFFFFFC
FFFFFFFFFFFFFFFFFFFC
FFFFFFFFFFFFFFFFFFFC
FFFFFFFFFFFFFFFFFFFC
FFFFFFFFFFFFFFFFFFFC
FFFFFFFFFFFFFFFFFFFC
FFFFFFFFFFFFFFFFFFFC
FFFFFFFFFFFFFFFFFFFC
FFFFFFFFFFFFFFFFFFFC
FFFFFFFFFFFFFFFFFFFC
FFFFFFFFFFFFFFFFFFFC
FFFFFFFFFFFFFFFFFFFC
FFFFFFFFFFFFFFFFFFFC
ENDCHAR
STARTCHAR 00A4
ENCODING 164
SWIDTH 720 0
DWIDTH 72 0
BBX 66 66 3 1
BITMAP
040000000000000800
0E0000000000001C00
1F0000000000003E00
3F8000000000007F00
7FC00000000000FF80
FFE00000000001FFC0
7FF00000000003FFC0
3FF80000000007FF80
1FFC000000000FFF00
0FFE000000001FFE00
07FF000000003FFC00
03FF800000007FF800
01FFC0000000FFE000
00FFE0000001FFC000
007FF0000003FF8000
003FFFFFFFFFFF0000
001FFFFFFFFFFE0000
000FFFFFFFFFFC0000
0007FFFFFFFFF80000
0003FFFFFFFFF00000
0001FFFFFFFFE00000
0001FFFFFFFFE00000
0001FFFFFFFFE00000
0001FFFFFFFFE00000
0001FF00003FE00000
0001FF00003FE00000
0001FF00003FE00000
0001FF00003FE00000
0001FF00003FE00000
0001FF00003FE00000
0001FF00003FE00000
0001FF00003FE00000
0001FF00003FE00000
0001FF00003FE00000
0001FF00003FE00000
0001FF00003FE00000
0001FF00003FE00000
0001FF00003FE00000
0001FF00003FE00000
0001FF00003FE00000
0001FF00003FE00000
0001FF00003FE00000
0001FFFFFFFFE00000
0001FFFFFFFFE00000
0001FFFFFFFFE00000
0001FFFFFFFFE00000
0003FFFFFFFFF00000
0007FFFFFFFFF80000
000FFFFFFFFFFC0000
001FFFFFFFFFFE0000
003FFFFFFFFFFF0000
007FF0000003FF8000
00FFE0000001FFC000
01FFC0000000FFE000
03FF800000007FF800
07FF000000003FFC00
0FFE000000001FFE00
1FFC000000000FFF00
3FF80000000007FF80
7FF00000000003FFC0
FFE00000000001FFC0
7FC00000000000FF80
3F8000000000007F00
1F0000000000003E00
0E0000000000001C00
040000000000000800
ENDCHAR
STARTCHAR 00A5
ENCODING 165
SWIDTH 870 0
DWIDTH 87 0
BBX 85 68 1 0
BITMAP
FFFFE000000000000FFFF8
7FFFF000000000001FFFF0
3FFFF800000000003FFFE0
1FFFFC00000000007FFFC0
0FFFFE0000000001FFFF80
07FFFF0000000003FFFF00
03FFFF8000000007FFFE00
01FFFFC00000000FFFFC00
007FFFE00000001FFFF800
003FFFF00000003FFFF000
001FFFF80000007FFFE000
000FFFFC000000FFFF8000
0007FFFE000001FFFF0000
0003FFFF000003FFFE0000
0001FFFF800007FFFC0000
0000FFFFC0000FFFF80000
00007FFFE0001FFFF00000
00003FFFF0003FFFE00000
00001FFFF8007FFFC00000
00000FFFFC00FFFF800000
000007FFFE01FFFF000000
000003FFFF03FFFE000000
000001FFFF8FFFFC000000
000000FFFFDFFFF8000000
0000007FFFFFFFF0000000
0000001FFFFFFFC0000000
0000000FFFFFFF80000000
00000007FFFFFF00000000
00000003FFFFFE00000000
00000001FFFFFC00000000
00000000FFFFF800000000
000000007FFFF000000000
003FFFFFFFFFFFFFFFE000
003FFFFFFFFFFFFFFFE000
003FFFFFFFFFFFFFFFE000
003FFFFFFFFFFFFFFFE000
003FFFFFFFFFFFFFFFE000
003FFFFFFFFFFFFFFFE000
003FFFFFFFFFFFFFFFE000
003FFFFFFFFFFFFFFFE000
003FFFFFFFFFFFFFFFE000
003FFFFFFFFFFFFFFFE000
000000001FFFC000000000
000000001FFFC000000000
000000001FFFC000000000
000000001FFFC000000000
000000001FFFC000000000
000000001FFFC000000000
000000001FFFC000000000
003FFFFFFFFFFFFFFFE000
003FFFFFFFFFFFFFFFE000
003FFFFFFFFFFFFFFFE000
003FFFFFFFFFFFFFFFE000
003FFFFFFFFFFFFFFFE000
003FFFFFFFFFFFFFFFE000
003FFFFFFFFFFFFFFFE000
003FFFFFFFFFFFFFFFE000
003FFFFFFFFFFFFFFFE000
003FFFFFFFFFFFFFFFE000
000000001FFFC000000000
000000001FFFC000000000
000000001FFFC000000000
000000001FFFC000000000
000000001FFFC000000000
000000001FFFC000000000
000000001FFFC000000000
000000001FFFC000000000
000000001FFFC000000000
ENDCHAR
STARTCHAR 00A6
ENCODING 166
SWIDTH 270 0
DWIDTH 27 0
BBX 10 108 8 -22
BITMAP
FFC0
FFC0
FFC0
FFC0
FFC0
FFC0
FFC0
FFC0
FFC0
FFC0
FFC0
FFC0
FFC0
FFC0
FFC0
FFC0
FFC0
FFC0
FFC0
FFC0
FFC0
FFC0
FFC0
FFC0
FFC0
FFC0
FFC0
FFC0
FFC0
FFC0
FFC0
FFC0
FFC0
FFC0
FFC0
FFC0
FFC0
FFC0
FFC0
FFC0
FFC0
FFC0
FFC0
FFC0
FFC0
FFC0
0000
0000
0000
0000
0000
0000
0000
0000
0000
0000
0000
0000
0000
0000
0000
0000
FFC0
FFC0
FFC0
FFC0
FFC0
FFC0
FFC0
FFC0
FFC0
FFC0
FFC0
FFC0
FFC0
FFC0
FFC0
FFC0
FFC0
FFC0
FFC0
FFC0
FFC0
FFC0
FFC0
FFC0
FFC0
FFC0
FFC0
FFC0
FFC0
FFC0
FFC0
FFC0
FFC0
FFC0
FFC0
FFC0
FFC0
FFC0
FFC0
FFC0
FFC0
FFC0
FFC0
FFC0
FFC0
FFC0
ENDCHAR
STARTCHAR 00A7
ENCODING 167
SWIDTH 740 0
DWIDTH 74 0
BBX 62 90 4 -22
BITMAP
0003FFFFFFF00000
003FFFFFFFF00000
01FFFFFFFFF00000
03FFFFFFFFF00000
07FFFFFFFFF00000
0FFFFFFFFFF00000
1FFFFFFFFFF00000
3FFFFFFFFFF00000
3FFFFFFFFFF00000
7FFFFFFFFFF00000
7FFFFFFFFFF00000
7FFFF00000000000
7FFF000000000000
FFFE000000000000
FFFC000000000000
FFFC000000000000
FFF8000000000000
FFF8000000000000
FFF8000000000000
FFF8000000000000
FFF8000000000000
FFF8000000000000
FFF8000000000000
FFF8000000000000
FFF8000000000000
FFF8000000000000
FFF8000000000000
FFFFFFFFFFFF8000
FFFFFFFFFFFFF800
FFFFFFFFFFFFFE00
FFFFFFFFFFFFFF80
FFFFFFFFFFFFFFC0
FFFFFFFFFFFFFFE0
FFFFFFFFFFFFFFF0
FFFFFFFFFFFFFFF0
FFFFFFFFFFFFFFF8
FFFFFFFFFFFFFFF8
FFFFFFFFFFFFFFF8
FFF800000007FFFC
FFF800000001FFFC
FFF800000000FFFC
FFF800000000FFFC
FFF8000000007FFC
FFF8000000007FFC
FFF8000000007FFC
FFF8000000007FFC
FFF8000000007FFC
FFF8000000007FFC
FFFC000000007FFC
FFFC000000007FFC
FFFE000000007FFC
7FFF800000007FFC
7FFFFFFFFFFFFFFC
7FFFFFFFFFFFFFFC
3FFFFFFFFFFFFFFC
3FFFFFFFFFFFFFFC
1FFFFFFFFFFFFFFC
1FFFFFFFFFFFFFFC
0FFFFFFFFFFFFFFC
03FFFFFFFFFFFFFC
01FFFFFFFFFFFFFC
007FFFFFFFFFFFFC
0007FFFFFFFFFFFC
0000000000007FFC
0000000000007FFC
0000000000007FFC
0000000000007FFC
0000000000007FFC
0000000000007FFC
0000000000007FFC
0000000000007FFC
0000000000007FFC
0000000000007FFC
0000000000007FFC
0000000000007FFC
000000000000FFFC
000000000000FFFC
000000000003FFFC
00000000001FFFFC
FFFFFFFFFFFFFFF8
FFFFFFFFFFFFFFF8
FFFFFFFFFFFFFFF0
FFFFFFFFFFFFFFF0
FFFFFFFFFFFFFFE0
FFFFFFFFFFFFFFE0
FFFFFFFFFFFFFFC0
FFFFFFFFFFFFFF00
FFFFFFFFFFFFFE00
FFFFFFFFFFFFF000
FFFFFFFFFFFF0000
ENDCHAR
STARTCHAR 00A8
ENCODING 168
SWIDTH 520 0
DWIDTH 52 0
BBX 40 15 6 57
BITMAP
3FF0000FFC
FFFC003FFE
FFFC003FFF
FFFE003FFF
FFFE007FFF
FFFE007FFF
FFFE007FFF
FFFE007FFF
FFFE007FFF
FFFE007FFF
FFFE007FFF
FFFC003FFF
FFFC003FFF
7FFC003FFE
3FF0000FFC
ENDCHAR
STARTCHAR 00A9
ENCODING 169
SWIDTH 870 0
DWIDTH 87 0
BBX 76 68 5 0
BITMAP
00003FFFFFFFFFE00000
0007FFFFFFFFFFFF0000
003FFFFFFFFFFFFFE000
00FFFFFFFFFFFFFFF800
01FFFFFFFFFFFFFFFC00
03FFFFFFFFFFFFFFFE00
07FFFFFFFFFFFFFFFF00
0FFFF0000000007FFF80
1FFE000000000003FF80
1FF8000000000000FFC0
3FE00000000000007FC0
3FC00000000000003FE0
3FC00000000000001FE0
7F800000000000000FE0
7F800000000000000FF0
7F000000000000000FF0
7F0000000000000007F0
7F00000FFFFFFE0007F0
7F0000FFFFFFFE0007F0
FF0001FFFFFFFE0007F0
FE0003FFFFFFFE0007F0
FE0007FFFFFFFE0007F0
FE0007FFFFFFFE0007F0
FE000FF80000000007F0
FE000FF00000000007F0
FE000FE00000000007F0
FE000FE00000000007F0
FE000FE00000000007F0
FE000FE00000000007F0
FE000FE00000000007F0
FE000FE00000000007F0
FE000FE00000000007F0
FE000FE00000000007F0
FE000FE00000000007F0
FE000FE00000000007F0
FE000FE00000000007F0
FE000FE00000000007F0
FE000FE00000000007F0
FE000FE00000000007F0
FE000FE00000000007F0
FE000FE00000000007F0
FE000FF00000000007F0
FE000FF80000000007F0
FE0007FFFFFFFE0007F0
FE0007FFFFFFFE0007F0
FE0003FFFFFFFE0007F0
FE0001FFFFFFFE0007F0
FE0000FFFFFFFE0007F0
FF00001FFFFFFE0007F0
7F0000000000000007F0
7F0000000000000007F0
7F0000000000000007F0
7F000000000000000FF0
7F800000000000000FF0
7F800000000000000FE0
3FC00000000000001FE0
3FC00000000000003FE0
3FE00000000000007FC0
1FF8000000000000FFC0
1FFE000000000003FF80
0FFFE0000000007FFF80
07FFFFFFFFFFFFFFFF00
03FFFFFFFFFFFFFFFE00
01FFFFFFFFFFFFFFFC00
00FFFFFFFFFFFFFFF800
003FFFFFFFFFFFFFE000
0007FFFFFFFFFFFF0000
00007FFFFFFFFFE00000
ENDCHAR
STARTCHAR 00AA
ENCODING 170
SWIDTH 530 0
DWIDTH 53 0
BBX 42 30 5 30
BITMAP
00000FFF8000
00000FFFF800
00000FFFFC00
00000FFFFE00
00000FFFFF00
00000FFFFF80
00000FFFFF80
00000003FF80
00000001FFC0
00000000FFC0
00000000FFC0
03FFFFFFFFC0
1FFFFFFFFFC0
3FFFFFFFFFC0
7FFFFFFFFFC0
7FFFFFFFFFC0
7FFFFFFFFFC0
FFE00000FFC0
FFE00000FFC0
FFE00000FFC0
FFE00001FFC0
FFE00001FF80
FFE00003FF80
FFFFFFFFFF80
7FFFFFFFFF80
7FFFFFFFFF00
7FFFFFFFFF00
3FFFFFFFFE00
0FFFFFFFF800
03FFFFFFC000
ENDCHAR
STARTCHAR 00AB
ENCODING 171
SWIDTH 580 0
DWIDTH 58 0
BBX 53 46 2 10
BITMAP
00000100000008
00000300000038
00000F00000078
00001F000000F8
00003F000003F8
0000FF000007F8
0001FF00000FF8
0003FF00001FF8
000FFF00007FF8
001FFF0000FFF8
003FFF0001FFF8
00FFFF0007FFF8
01FFFF000FFFF8
03FFFF001FFFF8
0FFFFC007FFFE0
1FFFF800FFFFC0
3FFFE001FFFF00
7FFFC003FFFE00
7FFF8003FFFC00
FFFE0007FFF000
FFFC0007FFE000
FFF80007FFC000
FFE00007FF0000
FFE00007FF0000
FFF00007FF8000
FFFC0007FFE000
FFFE0007FFF000
7FFF8003FFF800
7FFFC003FFFE00
3FFFE001FFFF00
1FFFF800FFFF80
0FFFFC007FFFE0
07FFFE003FFFF0
01FFFF000FFFF8
00FFFF0007FFF8
003FFF0003FFF8
001FFF0000FFF8
000FFF00007FF8
0003FF00003FF8
0001FF00000FF8
0000FF000007F8
00003F000003F8
00001F000000F8
00000F00000078
00000300000038
00000100000008
ENDCHAR
STARTCHAR 00AC
ENCODING 172
SWIDTH 580 0
DWIDTH 58 0
BBX 48 42 4 0
BITMAP
FFFFFFFFFFFF
FFFFFFFFFFFF
FFFFFFFFFFFF
FFFFFFFFFFFF
FFFFFFFFFFFF
FFFFFFFFFFFF
FFFFFFFFFFFF
FFFFFFFFFFFF
FFFFFFFFFFFF
FFFFFFFFFFFF
0000000003FF
0000000003FF
0000000003FF
0000000003FF
0000000003FF
0000000003FF
0000000003FF
0000000003FF
0000000003FF
0000000003FF
0000000003FF
0000000003FF
0000000003FF
0000000003FF
0000000003FF
0000000003FF
0000000003FF
0000000003FF
0000000003FF
0000000003FF
0000000003FF
0000000003FF
0000000003FF
0000000003FF
0000000003FF
0000000003FF
0000000003FF
0000000003FF
0000000003FF
0000000003FF
0000000003FF
0000000003FF
ENDCHAR
STARTCHAR 00AE
ENCODING 174
SWIDTH 870 0
DWIDTH 87 0
BBX 76 68 5 0
BITMAP
00003FFFFFFFFFE00000
0007FFFFFFFFFFFF0000
003FFFFFFFFFFFFFE000
00FFFFFFFFFFFFFFF800
01FFFFFFFFFFFFFFFC00
07FFFFFFFFFFFFFFFE00
07FFFFFFFFFFFFFFFF00
0FFFF0000000007FFF80
1FFE000000000003FFC0
1FF8000000000000FFC0
3FE00000000000007FC0
3FC00000000000003FE0
3FC00000000000001FE0
7F800000000000000FE0
7F800000000000000FF0
7F000000000000000FF0
7F0000000000000007F0
7F000FFFFFFFE00007F0
FF000FFFFFFFFC0007F0
FF000FFFFFFFFF0007F0
FE000FFFFFFFFF0007F0
FE000FFFFFFFFF8007F0
FE000FFFFFFFFF8007F0
FE000FE000007FC007F0
FE000FE000003FC007F0
FE000FE000001FC007F0
FE000FE000001FC007F0
FE000FE000001FC007F0
FE000FE000001FC007F0
FE000FE000001FC007F0
FE000FE000001FC007F0
FE000FE000003FC007F0
FE000FE000007F8007F0
FE000FFFFFFFFF8007F0
FE000FFFFFFFFF0007F0
FE000FFFFFFFFF0007F0
FE000FFFFFFFFC0007F0
FE000FFFFFFFE00007F0
FE000FEFFE00000007F0
FE000FE3FF80000007F0
FE000FE0FFE0000007F0
FE000FE07FF8000007F0
FE000FE01FFC000007F0
FE000FE007FF000007F0
FE000FE001FFC00007F0
FE000FE000FFF00007F0
FE000FE0003FFC0007F0
FE000FE0000FFE0007F0
FF000FE00007FF8007F0
FF0000000000000007F0
7F0000000000000007F0
7F0000000000000007F0
7F000000000000000FF0
7F800000000000000FF0
7F800000000000000FE0
3F800000000000001FE0
3FC00000000000003FE0
3FE00000000000007FC0
1FF8000000000000FFC0
1FFE000000000003FFC0
0FFFE0000000007FFF80
07FFFFFFFFFFFFFFFF00
07FFFFFFFFFFFFFFFE00
01FFFFFFFFFFFFFFFC00
00FFFFFFFFFFFFFFF800
003FFFFFFFFFFFFFE000
0007FFFFFFFFFFFF0000
00007FFFFFFFFFE00000
ENDCHAR
STARTCHAR 00AF
ENCODING 175
SWIDTH 650 0
DWIDTH 65 0
BBX 53 11 6 66
BITMAP
FFFFFFFFFFFFF8
FFFFFFFFFFFFF8
FFFFFFFFFFFFF8
FFFFFFFFFFFFF8
FFFFFFFFFFFFF8
FFFFFFFFFFFFF8
FFFFFFFFFFFFF8
FFFFFFFFFFFFF8
FFFFFFFFFFFFF8
FFFFFFFFFFFFF8
FFFFFFFFFFFFF8
ENDCHAR
STARTCHAR 00B0
ENCODING 176
SWIDTH 450 0
DWIDTH 45 0
BBX 39 35 3 33
BITMAP
007FFFF800
03FFFFFF80
0FFFFFFFE0
1FFFFFFFF0
3FFFFFFFF8
3FFFFFFFF8
7FFFFFFFFC
7FFFFFFFFC
7FFFFFFFFC
7FE0000FFC
FFE0000FFE
FFC00007FE
FFC00007FE
FFC00007FE
FFC00007FE
FFC00007FE
FFC00007FE
FFC00007FE
FFC00007FE
FFC00007FE
FFC00007FE
FFC00007FE
FFC00007FE
FFC00007FE
FFE00007FE
7FE0000FFE
7FFC007FFC
7FFFFFFFFC
7FFFFFFFFC
3FFFFFFFF8
3FFFFFFFF8
1FFFFFFFF0
0FFFFFFFE0
03FFFFFF80
007FFFFC00
ENDCHAR
STARTCHAR 00B1
ENCODING 177
SWIDTH 590 0
DWIDTH 59 0
BBX 47 61 6 -2
BITMAP
00001FF00000
00001FF00000
00001FF00000
00001FF00000
00001FF00000
00001FF00000
00001FF00000
00001FF00000
00001FF00000
00001FF00000
00001FF00000
00001FF00000
00001FF00000
00001FF00000
00001FF00000
00001FF00000
00001FF00000
00001FF00000
00001FF00000
FFFFFFFFFFFE
FFFFFFFFFFFE
FFFFFFFFFFFE
FFFFFFFFFFFE
FFFFFFFFFFFE
FFFFFFFFFFFE
FFFFFFFFFFFE
FFFFFFFFFFFE
FFFFFFFFFFFE
FFFFFFFFFFFE
00001FF00000
00001FF00000
00001FF00000
00001FF00000
00001FF00000
00001FF00000
00001FF00000
00001FF00000
00001FF00000
00001FF00000
00001FF00000
00001FF00000
00001FF00000
00001FF00000
00001FF00000
00001FF00000
00001FF00000
00001FF00000
00001FF00000
000000000000
000000000000
000000000000
FFFFFFFFFFFE
FFFFFFFFFFFE
FFFFFFFFFFFE
FFFFFFFFFFFE
FFFFFFFFFFFE
FFFFFFFFFFFE
FFFFFFFFFFFE
FFFFFFFFFFFE
FFFFFFFFFFFE
FFFFFFFFFFFE
ENDCHAR
STARTCHAR 00B2
ENCODING 178
SWIDTH 490 0
DWIDTH 49 0
BBX 41 34 4 35
BITMAP
00003FFFE000
00003FFFFC00
00003FFFFE00
00003FFFFF00
00003FFFFF00
00003FFFFF80
00003FFFFF80
00003FFFFF80
00000000FF80
000000007F80
000000007F80
000000007F80
00000000FF80
03FFFFFFFF80
1FFFFFFFFF80
3FFFFFFFFF80
7FFFFFFFFF00
7FFFFFFFFF00
FFFFFFFFFE00
FFFFFFFFF000
FFC000000000
FF8000000000
FF0000000000
FF0000000000
FF0000000000
FF0000000000
FFFFFFFFFF80
FFFFFFFFFF80
FFFFFFFFFF80
FFFFFFFFFF80
FFFFFFFFFF80
FFFFFFFFFF80
FFFFFFFFFF80
FFFFFFFFFF80
ENDCHAR
STARTCHAR 00B3
ENCODING 179
SWIDTH 490 0
DWIDTH 49 0
BBX 41 34 4 35
BITMAP
00003FFFC000
00003FFFF800
00003FFFFE00
00003FFFFE00
00003FFFFF00
00003FFFFF00
00003FFFFF00
00003FFFFF00
00000001FF80
00000000FF80
00000000FF00
00000000FF00
00000001FF00
FFFFFFFFFF00
FFFFFFFFFE00
FFFFFFFFFC00
FFFFFFFFFC00
FFFFFFFFFE00
FFFFFFFFFF00
FFFFFFFFFF80
00000000FF80
00000000FF80
00000000FF80
00000000FF80
00000000FF80
00000000FF80
FFFFFFFFFF80
FFFFFFFFFF80
FFFFFFFFFF80
FFFFFFFFFF00
FFFFFFFFFF00
FFFFFFFFFE00
FFFFFFFFF800
FFFFFFFE0000
ENDCHAR
STARTCHAR 00B4
ENCODING 180
SWIDTH 400 0
DWIDTH 40 0
BBX 28 22 6 61
BITMAP
000FFFF0
000FFFE0
001FFFC0
003FFFC0
003FFF80
007FFF00
007FFE00
00FFFE00
00FFFC00
01FFF800
03FFF800
03FFF000
07FFE000
07FFC000
0FFFC000
0FFF8000
1FFF0000
3FFE0000
3FFE0000
7FFC0000
7FF80000
FFF80000
ENDCHAR
STARTCHAR 00B6
ENCODING 182
SWIDTH 870 0
DWIDTH 87 0
BBX 79 88 3 -16
BITMAP
0007FFFFFFFFFFFFFFFE
007FFFFFFFFFFFFFFFFE
01FFFFFFFFFFFFFFFFFE
07FFFFFFFFFFFFFFFFFE
0FFFFFFFFFFFFFFFFFFE
1FFFFFFFFFFFFFFFFFFE
3FFFFFFFFFFFFFFFFFFE
3FFFFFFFFFFFFFFFFFFE
7FFFFFFFFFFFFFFFFFFE
7FFFFFFFFFFFFFFFFFFE
7FFFFFFFFFFFFFFFFFFE
FFFF80003FFE00003FFE
FFFE00003FFE00003FFE
FFFC00003FFE00003FFE
FFF800003FFE00003FFE
FFF800003FFE00003FFE
FFF800003FFE00003FFE
FFF800003FFE00003FFE
FFF800003FFE00003FFE
FFF800003FFE00003FFE
FFF800003FFE00003FFE
FFF800003FFE00003FFE
FFF800003FFE00003FFE
FFF800003FFE00003FFE
FFF800003FFE00003FFE
FFF800003FFE00003FFE
FFF800003FFE00003FFE
FFF800003FFE00003FFE
FFF800003FFE00003FFE
FFF800003FFE00003FFE
FFF800003FFE00003FFE
FFFC00003FFE00003FFE
FFFE00003FFE00003FFE
FFFF00003FFE00003FFE
7FFFFFFFFFFE00003FFE
7FFFFFFFFFFE00003FFE
7FFFFFFFFFFE00003FFE
3FFFFFFFFFFE00003FFE
3FFFFFFFFFFE00003FFE
1FFFFFFFFFFE00003FFE
0FFFFFFFFFFE00003FFE
07FFFFFFFFFE00003FFE
01FFFFFFFFFE00003FFE
007FFFFFFFFE00003FFE
0003FFFFFFFE00003FFE
000000003FFE00003FFE
000000003FFE00003FFE
000000003FFE00003FFE
000000003FFE00003FFE
000000003FFE00003FFE
000000003FFE00003FFE
000000003FFE00003FFE
000000003FFE00003FFE
000000003FFE00003FFE
000000003FFE00003FFE
000000003FFE00003FFE
000000003FFE00003FFE
000000003FFE00003FFE
000000003FFE00003FFE
000000003FFE00003FFE
000000003FFE00003FFE
000000003FFE00003FFE
000000003FFE00003FFE
000000003FFE00003FFE
000000003FFE00003FFE
000000003FFE00003FFE
000000003FFE00003FFE
000000003FFE00003FFE
000000003FFE00003FFE
000000003FFE00003FFE
000000003FFE00003FFE
000000003FFE00003FFE
000000003FFE00003FFE
000000003FFE00003FFE
000000003FFE00003FFE
000000003FFE00003FFE
000000003FFE00003FFE
000000003FFE00003FFE
000000003FFE00003FFE
000000003FFE00003FFE
000000003FFE00003FFE
000000003FFE00003FFE
000000003FFE00003FFE
000000003FFE00003FFE
000000003FFE00003FFE
000000003FFE00003FFE
000000003FFE00003FFE
000000003FFE00003FFE
ENDCHAR
STARTCHAR 00B7
ENCODING 183
SWIDTH 270 0
DWIDTH 27 0
BBX 15 17 6 24
BITMAP
3FF8
7FFC
FFFE
FFFE
FFFE
FFFE
FFFE
FFFE
FFFE
FFFE
FFFE
FFFE
FFFE
FFFE
FFFE
7FFC
3FF8
ENDCHAR
STARTCHAR 00B8
ENCODING 184
SWIDTH 280 0
DWIDTH 28 0
BBX 15 19 6 -22
BITMAP
3FFE
3FFE
3FFE
3FFE
3FFC
7FFC
7FFC
7FF8
7FF8
7FF8
7FF8
7FF0
7FF0
7FF0
FFE0
FFE0
FFE0
FFE0
FFC0
ENDCHAR
STARTCHAR 00B9
ENCODING 185
SWIDTH 180 0
DWIDTH 18 0
BBX 10 34 4 35
BITMAP
FFC0
FFC0
FFC0
FFC0
FFC0
FFC0
FFC0
FFC0
FFC0
FFC0
FFC0
FFC0
FFC0
FFC0
FFC0
FFC0
FFC0
FFC0
FFC0
FFC0
FFC0
FFC0
FFC0
FFC0
FFC0
FFC0
FFC0
FFC0
FFC0
FFC0
FFC0
FFC0
FFC0
FFC0
ENDCHAR
STARTCHAR 00BA
ENCODING 186
SWIDTH 510 0
DWIDTH 51 0
BBX 39 30 6 30
BITMAP
00FFFFFE00
07FFFFFFC0
1FFFFFFFF0
3FFFFFFFF8
3FFFFFFFF8
7FFFFFFFFC
7FFFFFFFFC
FFFFFFFFFE
FFFFFFFFFE
FFE0000FFE
FFC00007FE
FFC00007FE
FFC00007FE
FFC00007FE
FFC00007FE
FFC00007FE
FFC00007FE
FFC00007FE
FFC00007FE
FFC00007FE
FFE0000FFE
FFFFFFFFFE
FFFFFFFFFE
7FFFFFFFFC
7FFFFFFFFC
3FFFFFFFF8
3FFFFFFFF8
1FFFFFFFF0
07FFFFFFC0
00FFFFFE00
ENDCHAR
STARTCHAR 00BB
ENCODING 187
SWIDTH 580 0
DWIDTH 58 0
BBX 52 46 2 10
BITMAP
80000008000000
C0000006000000
E0000007000000
F8000007800000
FC000007E00000
FE000007F00000
FF800007F80000
FFC00007FE0000
FFE00007FF0000
FFF80007FF8000
FFFC0007FFE000
FFFE0007FFF000
FFFF8007FFF800
FFFFC007FFFE00
7FFFE003FFFF00
1FFFF000FFFF80
0FFFF8007FFFC0
07FFFC003FFFE0
01FFFE000FFFF0
00FFFE0007FFF0
007FFE0003FFF0
001FFF0000FFF0
000FFF00007FF0
000FFF00007FF0
001FFF0000FFF0
003FFE0001FFF0
00FFFE0007FFF0
01FFFE000FFFF0
03FFFC003FFFE0
0FFFF8007FFFC0
1FFFF800FFFF80
3FFFE003FFFF00
FFFFC007FFFE00
FFFF8007FFFC00
FFFE0007FFF000
FFFC0007FFE000
FFF80007FFC000
FFE00007FF0000
FFC00007FE0000
FF800007FC0000
FE000007F00000
FC000007E00000
F8000007800000
E0000007000000
C0000006000000
80000008000000
ENDCHAR
STARTCHAR 00BC
ENCODING 188
SWIDTH 930 0
DWIDTH 93 0
BBX 82 70 6 -1
BITMAP
0FFC000000000000000000
0FFC00000001FFE0000000
0FFC00000003FFC0000000
0FFC00000003FF80000000
0FFC00000007FF00000000
0FFC0000000FFF00000000
0FFC0000001FFE00000000
0FFC0000001FFC00000000
0FFC0000003FFC00000000
0FFC0000007FF800000000
0FFC0000007FF000000000
0FFC000000FFF000000000
0FFC000001FFE000000000
0FFC000003FFC000000000
0FFC000003FF8000000000
0FFC000007FF8000000000
0FFC00000FFF0000000000
0FFC00000FFE0000000000
0FFC00001FFE0000000000
0FFC00003FFC0000000000
0FFC00003FF80000000000
0FFC00007FF00000000000
0FFC0000FFF00000000000
0FFC0001FFE00000000000
0FFC0001FFC00000000000
0FFC0003FFC00000000000
0FFC0007FF800000000000
0FFC0007FF000000000000
0FFC000FFF000000000000
0FFC001FFE000000000000
0FFC003FFC000000000000
0FFC003FF8000000000000
0FFC007FF8000000000000
0FFC00FFF0000000000000
000000FFE0000000000000
000001FFE0000000000000
000003FFC0FF8000007FC0
000003FF80FF8000007FC0
000007FF00FF8000007FC0
00000FFF00FF8000007FC0
00001FFE00FF8000007FC0
00001FFC00FF8000007FC0
00003FFC00FF8000007FC0
00007FF800FF8000007FC0
00007FF000FF8000007FC0
0000FFF000FF8000007FC0
0001FFE000FF8000007FC0
0001FFC000FF8000007FC0
0003FF8000FF8000007FC0
0007FF8000FF8000007FC0
000FFF0000FF8000007FC0
000FFE0000FF8000007FC0
001FFE0000FF8000007FC0
003FFC0000FFFFFFFFFFC0
003FF80000FFFFFFFFFFC0
007FF80000FFFFFFFFFFC0
00FFF00000FFFFFFFFFFC0
01FFE00000FFFFFFFFFFC0
01FFC00000FFFFFFFFFFC0
03FFC00000FFFFFFFFFFC0
07FF800000FFFFFFFFFFC0
07FF000000000000007FC0
0FFF000000000000007FC0
1FFE000000000000007FC0
1FFC000000000000007FC0
3FF8000000000000007FC0
7FF8000000000000007FC0
FFF0000000000000007FC0
FFE0000000000000007FC0
0000000000000000007FC0
ENDCHAR
STARTCHAR 00BD
ENCODING 189
SWIDTH 840 0
DWIDTH 84 0
BBX 73 70 6 -1
BITMAP
0FFC0000000000000000
0FFC00000001FFE00000
0FFC00000003FFC00000
0FFC00000003FF800000
0FFC00000007FF000000
0FFC0000000FFF000000
0FFC0000001FFE000000
0FFC0000001FFC000000
0FFC0000003FFC000000
0FFC0000007FF8000000
0FFC0000007FF0000000
0FFC000000FFF0000000
0FFC000001FFE0000000
0FFC000003FFC0000000
0FFC000003FF80000000
0FFC000007FF80000000
0FFC00000FFF00000000
0FFC00000FFE00000000
0FFC00001FFE00000000
0FFC00003FFC00000000
0FFC00003FF800000000
0FFC00007FF000000000
0FFC0000FFF000000000
0FFC0001FFE000000000
0FFC0001FFC000000000
0FFC0003FFC000000000
0FFC0007FF8000000000
0FFC0007FF0000000000
0FFC000FFF0000000000
0FFC001FFE0000000000
0FFC003FFC0000000000
0FFC003FF80000000000
0FFC007FF80000000000
0FFC00FFF00000000000
000000FFE00000000000
000001FFE00000000000
000003FFC0003FFFE000
000003FF80003FFFF800
000007FF00003FFFFE00
00000FFF00003FFFFE00
00001FFE00003FFFFF00
00001FFC00003FFFFF00
00003FFC00003FFFFF80
00007FF800003FFFFF80
00007FF000000000FF80
0000FFF000000000FF80
0001FFE000000000FF80
0001FFC000000000FF80
0003FF8000000000FF80
0007FF8007FFFFFFFF80
000FFF001FFFFFFFFF80
000FFE007FFFFFFFFF00
001FFE007FFFFFFFFF00
003FFC00FFFFFFFFFE00
003FF800FFFFFFFFFC00
007FF800FFFFFFFFF000
00FFF001FF8000000000
01FFE001FF0000000000
01FFC001FF0000000000
03FFC001FF0000000000
07FF8001FF0000000000
07FF0001FF0000000000
0FFF0001FFFFFFFFFF80
1FFE0001FFFFFFFFFF80
1FFC0001FFFFFFFFFF80
3FF80001FFFFFFFFFF80
7FF80001FFFFFFFFFF80
FFF00001FFFFFFFFFF80
FFE00001FFFFFFFFFF80
00000001FFFFFFFFFF80
ENDCHAR
STARTCHAR 00BE
ENCODING 190
SWIDTH 1110 0
DWIDTH 111 0
BBX 101 70 5 -1
BITMAP
00001FFFE00000000000000000
00001FFFFC0000001FFC000000
00001FFFFE0000003FFC000000
00001FFFFF0000007FF8000000
00001FFFFF0000007FF0000000
00001FFFFF800000FFF0000000
00001FFFFF800001FFE0000000
00001FFFFF800001FFC0000000
00000000FF800003FFC0000000
00000000FF800007FF80000000
00000000FF800007FF00000000
00000000FF80000FFE00000000
00000000FF80001FFE00000000
FFFFFFFFFF80003FFC00000000
FFFFFFFFFF00003FF800000000
FFFFFFFFFE00007FF800000000
FFFFFFFFFE0000FFF000000000
FFFFFFFFFF0000FFE000000000
FFFFFFFFFF8001FFC000000000
FFFFFFFFFF8003FFC000000000
00000000FF8007FF8000000000
000000007FC007FF0000000000
000000007FC00FFF0000000000
000000007FC01FFE0000000000
000000007FC01FFC0000000000
00000000FFC03FFC0000000000
FFFFFFFFFFC07FF80000000000
FFFFFFFFFF807FF00000000000
FFFFFFFFFF80FFE00000000000
FFFFFFFFFF81FFE00000000000
FFFFFFFFFF03FFC00000000000
FFFFFFFFFE03FF800000000000
FFFFFFFFFC07FF800000000000
FFFFFFFE400FFF000000000000
00000000000FFE000000000000
00000000001FFE000000000000
00000000003FFC1FF000000FF8
00000000007FF81FF000000FF8
00000000007FF01FF000000FF8
0000000000FFF01FF000000FF8
0000000001FFE01FF000000FF8
0000000001FFC01FF000000FF8
0000000003FFC01FF000000FF8
0000000007FF801FF000000FF8
0000000007FF001FF000000FF8
000000000FFE001FF000000FF8
000000001FFE001FF000000FF8
000000003FFC001FF000000FF8
000000003FF8001FF000000FF8
000000007FF8001FF000000FF8
00000000FFF0001FF000000FF8
00000000FFE0001FF000000FF8
00000001FFE0001FF000000FF8
00000003FFC0001FFFFFFFFFF8
00000003FF80001FFFFFFFFFF8
00000007FF00001FFFFFFFFFF8
0000000FFF00001FFFFFFFFFF8
0000001FFE00001FFFFFFFFFF8
0000001FFC00001FFFFFFFFFF8
0000003FFC00001FFFFFFFFFF8
0000007FF800001FFFFFFFFFF8
0000007FF00000000000000FF8
000000FFE00000000000000FF8
000001FFE00000000000000FF8
000003FFC00000000000000FF8
000003FF800000000000000FF8
000007FF800000000000000FF8
00000FFF000000000000000FF8
00000FFE000000000000000FF8
00000000000000000000000FF8
ENDCHAR
STARTCHAR 00BF
ENCODING 191
SWIDTH 600 0
DWIDTH 60 0
BBX 52 68 3 0
BITMAP
0000000001FFC0
0000000007FFE0
0000000007FFE0
000000000FFFF0
000000000FFFF0
000000000FFFF0
000000000FFFF0
000000000FFFF0
000000000FFFF0
000000000FFFF0
000000000FFFF0
000000000FFFF0
0000000007FFE0
0000000007FFE0
0000000001FF80
00000000000000
00000000000000
00000000000000
00000000000000
00000000000000
0000000007FFF0
0000000007FFF0
0000000007FFF0
0000000007FFF0
0000000007FFF0
0000000007FFF0
000000000FFFF0
000000001FFFE0
000FFFFFFFFFE0
00FFFFFFFFFFE0
03FFFFFFFFFFE0
0FFFFFFFFFFFE0
1FFFFFFFFFFFC0
1FFFFFFFFFFFC0
3FFFFFFFFFFF80
7FFFFFFFFFFF00
7FFFFFFFFFFE00
7FFFFFFFFFF800
7FFFFFFFFF8000
FFFF8000000000
FFFE0000000000
FFFE0000000000
FFFC0000000000
FFFC0000000000
FFFC0000000000
FFFC0000000000
FFFC0000000000
FFFC0000000000
FFFC0000000000
FFFC0000000000
FFFC0000000000
FFFC0000000000
FFFE0000000000
FFFE0000000000
FFFF8000000000
7FFFFFFFF00000
7FFFFFFFF00000
7FFFFFFFF00000
7FFFFFFFF00000
3FFFFFFFF00000
3FFFFFFFF00000
1FFFFFFFF00000
0FFFFFFFF00000
0FFFFFFFF00000
03FFFFFFF00000
01FFFFFFF00000
007FFFFFF00000
0007FFFFF00000
ENDCHAR
STARTCHAR 00C0
ENCODING 192
SWIDTH 1040 0
DWIDTH 104 0
BBX 101 97 1 0
BITMAP
00000000FFFF00000000000000
000000007FFF00000000000000
000000007FFF80000000000000
000000003FFF80000000000000
000000001FFFC0000000000000
000000000FFFE0000000000000
000000000FFFE0000000000000
0000000007FFF0000000000000
0000000003FFF0000000000000
0000000001FFF8000000000000
0000000001FFFC000000000000
0000000000FFFC000000000000
00000000007FFE000000000000
00000000003FFE000000000000
00000000003FFF000000000000
00000000001FFF800000000000
00000000000FFF800000000000
000000000007FFC00000000000
000000000007FFC00000000000
000000000003FFE00000000000
000000000001FFF00000000000
00000000000000000000000000
00000000000000000000000000
00000000000000000000000000
00000000000000000000000000
00000000000000000000000000
00000000000000000000000000
000000000001FE000000000000
00000000000FFF800000000000
00000000001FFFE00000000000
00000000003FFFF00000000000
00000000007FFFF80000000000
0000000000FFFFFC0000000000
0000000000FFFFFC0000000000
0000000001FFFFFE0000000000
0000000003FFFFFE0000000000
0000000003FFFFFF0000000000
0000000007FFFFFF8000000000
000000000FFFFFFF8000000000
000000000FFFFFFFC000000000
000000001FFFFFFFE000000000
000000001FFFFFFFE000000000
000000003FFFFFFFF000000000
000000007FFFDFFFF000000000
000000007FFF8FFFF800000000
00000000FFFF8FFFFC00000000
00000001FFFF07FFFC00000000
00000001FFFE03FFFE00000000
00000003FFFE03FFFF00000000
00000007FFFC01FFFF00000000
00000007FFFC00FFFF80000000
0000000FFFF800FFFF80000000
0000000FFFF0007FFFC0000000
0000001FFFF0007FFFE0000000
0000003FFFE0003FFFE0000000
0000003FFFE0001FFFF0000000
0000007FFFC0001FFFF8000000
000000FFFF80000FFFF8000000
000000FFFF80000FFFFC000000
000001FFFF000007FFFC000000
000001FFFE000003FFFE000000
000003FFFE000003FFFF000000
000007FFFC000001FFFF000000
000007FFFC000000FFFF800000
00000FFFF8000000FFFF800000
00001FFFF00000007FFFC00000
00001FFFF00000007FFFE00000
00003FFFE00000003FFFE00000
00003FFFE00000001FFFF00000
00007FFFFFFFFFFFFFFFF80000
0000FFFFFFFFFFFFFFFFF80000
0000FFFFFFFFFFFFFFFFFC0000
0001FFFFFFFFFFFFFFFFFC0000
0003FFFFFFFFFFFFFFFFFE0000
0003FFFFFFFFFFFFFFFFFF0000
0007FFFFFFFFFFFFFFFFFF0000
0007FFFFFFFFFFFFFFFFFF8000
000FFFFFFFFFFFFFFFFFFFC000
001FFFFFFFFFFFFFFFFFFFC000
001FFFFFFFFFFFFFFFFFFFE000
003FFFFFFFFFFFFFFFFFFFE000
007FFFE000000000001FFFF000
007FFFC000000000001FFFF800
00FFFF8000000000000FFFF800
00FFFF8000000000000FFFFC00
01FFFF00000000000007FFFE00
03FFFF00000000000003FFFE00
03FFFE00000000000003FFFF00
07FFFC00000000000001FFFF00
0FFFFC00000000000001FFFF80
0FFFF800000000000000FFFFC0
1FFFF8000000000000007FFFC0
1FFFF0000000000000007FFFE0
3FFFE0000000000000003FFFF0
7FFFE0000000000000001FFFF0
7FFFC0000000000000001FFFF8
FFFFC0000000000000000FFFF8
ENDCHAR
STARTCHAR 00C1
ENCODING 193
SWIDTH 1040 0
DWIDTH 104 0
BBX 101 97 1 0
BITMAP
00000000000003FFF800000000
00000000000007FFF800000000
00000000000007FFF000000000
0000000000000FFFE000000000
0000000000001FFFC000000000
0000000000001FFFC000000000
0000000000003FFF8000000000
0000000000003FFF0000000000
0000000000007FFE0000000000
000000000000FFFE0000000000
000000000000FFFC0000000000
000000000001FFF80000000000
000000000001FFF00000000000
000000000003FFF00000000000
000000000007FFE00000000000
000000000007FFC00000000000
00000000000FFF800000000000
00000000000FFF800000000000
00000000001FFF000000000000
00000000003FFE000000000000
00000000003FFC000000000000
00000000000000000000000000
00000000000000000000000000
00000000000000000000000000
00000000000000000000000000
00000000000000000000000000
00000000000000000000000000
000000000001FE000000000000
00000000000FFF800000000000
00000000001FFFE00000000000
00000000003FFFF00000000000
00000000007FFFF80000000000
0000000000FFFFFC0000000000
0000000000FFFFFC0000000000
0000000001FFFFFE0000000000
0000000003FFFFFE0000000000
0000000003FFFFFF0000000000
0000000007FFFFFF8000000000
000000000FFFFFFF8000000000
000000000FFFFFFFC000000000
000000001FFFFFFFE000000000
000000001FFFFFFFE000000000
000000003FFFFFFFF000000000
000000007FFFDFFFF000000000
000000007FFF8FFFF800000000
00000000FFFF8FFFFC00000000
00000001FFFF07FFFC00000000
00000001FFFE03FFFE00000000
00000003FFFE03FFFF00000000
00000007FFFC01FFFF00000000
00000007FFFC00FFFF80000000
0000000FFFF800FFFF80000000
0000000FFFF0007FFFC0000000
0000001FFFF0007FFFE0000000
0000003FFFE0003FFFE0000000
0000003FFFE0001FFFF0000000
0000007FFFC0001FFFF8000000
000000FFFF80000FFFF8000000
000000FFFF80000FFFFC000000
000001FFFF000007FFFC000000
000001FFFE000003FFFE000000
000003FFFE000003FFFF000000
000007FFFC000001FFFF000000
000007FFFC000000FFFF800000
00000FFFF8000000FFFF800000
00001FFFF00000007FFFC00000
00001FFFF00000007FFFE00000
00003FFFE00000003FFFE00000
00003FFFE00000001FFFF00000
00007FFFFFFFFFFFFFFFF80000
0000FFFFFFFFFFFFFFFFF80000
0000FFFFFFFFFFFFFFFFFC0000
0001FFFFFFFFFFFFFFFFFC0000
0003FFFFFFFFFFFFFFFFFE0000
0003FFFFFFFFFFFFFFFFFF0000
0007FFFFFFFFFFFFFFFFFF0000
0007FFFFFFFFFFFFFFFFFF8000
000FFFFFFFFFFFFFFFFFFFC000
001FFFFFFFFFFFFFFFFFFFC000
001FFFFFFFFFFFFFFFFFFFE000
003FFFFFFFFFFFFFFFFFFFE000
007FFFE000000000001FFFF000
007FFFC000000000001FFFF800
00FFFF8000000000000FFFF800
00FFFF8000000000000FFFFC00
01FFFF00000000000007FFFE00
03FFFF00000000000003FFFE00
03FFFE00000000000003FFFF00
07FFFC00000000000001FFFF00
0FFFFC00000000000001FFFF80
0FFFF800000000000000FFFFC0
1FFFF8000000000000007FFFC0
1FFFF0000000000000007FFFE0
3FFFE0000000000000003FFFF0
7FFFE0000000000000001FFFF0
7FFFC0000000000000001FFFF8
FFFFC0000000000000000FFFF8
ENDCHAR
STARTCHAR 00C2
ENCODING 194
SWIDTH 1040 0
DWIDTH 104 0
BBX 101 98 1 0
BITMAP
000000000001FE000000000000
000000000007FF800000000000
00000000001FFFC00000000000
00000000003FFFE00000000000
00000000003FFFF00000000000
00000000007FFFF80000000000
0000000000FFFFF80000000000
0000000001FFFFFC0000000000
0000000003FFFFFE0000000000
0000000003FFFFFF0000000000
0000000007FFFFFF8000000000
000000000FFFDFFF8000000000
000000001FFFCFFFC000000000
000000001FFF8FFFE000000000
000000003FFF07FFF000000000
000000007FFE03FFF000000000
00000000FFFE01FFF800000000
00000000FFFC01FFFC00000000
00000001FFF800FFFE00000000
00000003FFF0007FFE00000000
00000007FFF0003FFF00000000
0000000FFFE0003FFF80000000
0000000FFFC0001FFFC0000000
0000001FFF80000FFFE0000000
0000003FFF800007FFE0000000
0000007FFF000007FFF0000000
00000000000000000000000000
00000000000000000000000000
000000000001FE000000000000
00000000000FFF800000000000
00000000001FFFE00000000000
00000000003FFFF00000000000
00000000007FFFF80000000000
0000000000FFFFFC0000000000
0000000000FFFFFC0000000000
0000000001FFFFFE0000000000
0000000003FFFFFE0000000000
0000000003FFFFFF0000000000
0000000007FFFFFF8000000000
000000000FFFFFFF8000000000
000000000FFFFFFFC000000000
000000001FFFFFFFE000000000
000000001FFFFFFFE000000000
000000003FFFFFFFF000000000
000000007FFFDFFFF000000000
000000007FFF8FFFF800000000
00000000FFFF8FFFFC00000000
00000001FFFF07FFFC00000000
00000001FFFE03FFFE00000000
00000003FFFE03FFFF00000000
00000007FFFC01FFFF00000000
00000007FFFC00FFFF80000000
0000000FFFF800FFFF80000000
0000000FFFF0007FFFC0000000
0000001FFFF0007FFFE0000000
0000003FFFE0003FFFE0000000
0000003FFFE0001FFFF0000000
0000007FFFC0001FFFF8000000
000000FFFF80000FFFF8000000
000000FFFF80000FFFFC000000
000001FFFF000007FFFC000000
000001FFFE000003FFFE000000
000003FFFE000003FFFF000000
000007FFFC000001FFFF000000
000007FFFC000000FFFF800000
00000FFFF8000000FFFF800000
00001FFFF00000007FFFC00000
00001FFFF00000007FFFE00000
00003FFFE00000003FFFE00000
00003FFFE00000001FFFF00000
00007FFFFFFFFFFFFFFFF80000
0000FFFFFFFFFFFFFFFFF80000
0000FFFFFFFFFFFFFFFFFC0000
0001FFFFFFFFFFFFFFFFFC0000
0003FFFFFFFFFFFFFFFFFE0000
0003FFFFFFFFFFFFFFFFFF0000
0007FFFFFFFFFFFFFFFFFF0000
0007FFFFFFFFFFFFFFFFFF8000
000FFFFFFFFFFFFFFFFFFFC000
001FFFFFFFFFFFFFFFFFFFC000
001FFFFFFFFFFFFFFFFFFFE000
003FFFFFFFFFFFFFFFFFFFE000
007FFFE000000000001FFFF000
007FFFC000000000001FFFF800
00FFFF8000000000000FFFF800
00FFFF8000000000000FFFFC00
01FFFF00000000000007FFFE00
03FFFF00000000000003FFFE00
03FFFE00000000000003FFFF00
07FFFC00000000000001FFFF00
0FFFFC00000000000001FFFF80
0FFFF800000000000000FFFFC0
1FFFF8000000000000007FFFC0
1FFFF0000000000000007FFFE0
3FFFE0000000000000003FFFF0
7FFFE0000000000000001FFFF0
7FFFC0000000000000001FFFF8
FFFFC0000000000000000FFFF8
ENDCHAR
STARTCHAR 00C3
ENCODING 195
SWIDTH 1040 0
DWIDTH 104 0
BBX 101 91 1 0
BITMAP
000000FFFFFFFFFFFFF8000000
000000FFFFFFFFFFFFF8000000
000000FFFFFFFFFFFFF8000000
000000FFFFFFFFFFFFF8000000
000000FFFFFFFFFFFFF8000000
000000FFFFFFFFFFFFF8000000
000000FFFFFFFFFFFFF8000000
000000FFFFFFFFFFFFF8000000
000000FFFFFFFFFFFFF8000000
000000FFFFFFFFFFFFF8000000
000000FFFFFFFFFFFFF8000000
00000000000000000000000000
00000000000000000000000000
00000000000000000000000000
00000000000000000000000000
00000000000000000000000000
00000000000000000000000000
00000000000000000000000000
00000000000000000000000000
00000000000000000000000000
00000000000000000000000000
000000000001FE000000000000
00000000000FFF800000000000
00000000001FFFE00000000000
00000000003FFFF00000000000
00000000007FFFF80000000000
0000000000FFFFFC0000000000
0000000000FFFFFC0000000000
0000000001FFFFFE0000000000
0000000003FFFFFE0000000000
0000000003FFFFFF0000000000
0000000007FFFFFF8000000000
000000000FFFFFFF8000000000
000000000FFFFFFFC000000000
000000001FFFFFFFE000000000
000000001FFFFFFFE000000000
000000003FFFFFFFF000000000
000000007FFFDFFFF000000000
000000007FFF8FFFF800000000
00000000FFFF8FFFFC00000000
00000001FFFF07FFFC00000000
00000001FFFE03FFFE00000000
00000003FFFE03FFFF00000000
00000007FFFC01FFFF00000000
00000007FFFC00FFFF80000000
0000000FFFF800FFFF80000000
0000000FFFF0007FFFC0000000
0000001FFFF0007FFFE0000000
0000003FFFE0003FFFE0000000
0000003FFFE0001FFFF0000000
0000007FFFC0001FFFF8000000
000000FFFF80000FFFF8000000
000000FFFF80000FFFFC000000
000001FFFF000007FFFC000000
000001FFFE000003FFFE000000
000003FFFE000003FFFF000000
000007FFFC000001FFFF000000
000007FFFC000000FFFF800000
00000FFFF8000000FFFF800000
00001FFFF00000007FFFC00000
00001FFFF00000007FFFE00000
00003FFFE00000003FFFE00000
00003FFFE00000001FFFF00000
00007FFFFFFFFFFFFFFFF80000
0000FFFFFFFFFFFFFFFFF80000
0000FFFFFFFFFFFFFFFFFC0000
0001FFFFFFFFFFFFFFFFFC0000
0003FFFFFFFFFFFFFFFFFE0000
0003FFFFFFFFFFFFFFFFFF0000
0007FFFFFFFFFFFFFFFFFF0000
0007FFFFFFFFFFFFFFFFFF8000
000FFFFFFFFFFFFFFFFFFFC000
001FFFFFFFFFFFFFFFFFFFC000
001FFFFFFFFFFFFFFFFFFFE000
003FFFFFFFFFFFFFFFFFFFE000
007FFFE000000000001FFFF000
007FFFC000000000001FFFF800
00FFFF8000000000000FFFF800
00FFFF8000000000000FFFFC00
01FFFF00000000000007FFFE00
03FFFF00000000000003FFFE00
03FFFE00000000000003FFFF00
07FFFC00000000000001FFFF00
0FFFFC00000000000001FFFF80
0FFFF800000000000000FFFFC0
1FFFF8000000000000007FFFC0
1FFFF0000000000000007FFFE0
3FFFE0000000000000003FFFF0
7FFFE0000000000000001FFFF0
7FFFC0000000000000001FFFF8
FFFFC0000000000000000FFFF8
ENDCHAR
STARTCHAR 00C4
ENCODING 196
SWIDTH 1040 0
DWIDTH 104 0
BBX 101 87 1 0
BITMAP
000000007FE0001FF800000000
00000001FFF0007FFC00000000
00000001FFF8007FFE00000000
00000003FFF800FFFE00000000
00000003FFF800FFFE00000000
00000003FFF800FFFE00000000
00000003FFF800FFFE00000000
00000003FFF800FFFE00000000
00000003FFF800FFFE00000000
00000003FFF800FFFE00000000
00000003FFF800FFFE00000000
00000001FFF800FFFE00000000
00000001FFF800FFFE00000000
00000001FFF8007FFC00000000
000000007FE0003FF800000000
00000000000000000000000000
00000000000000000000000000
000000000001FE000000000000
00000000000FFF800000000000
00000000001FFFE00000000000
00000000003FFFF00000000000
00000000007FFFF80000000000
0000000000FFFFFC0000000000
0000000000FFFFFC0000000000
0000000001FFFFFE0000000000
0000000003FFFFFE0000000000
0000000003FFFFFF0000000000
0000000007FFFFFF8000000000
000000000FFFFFFF8000000000
000000000FFFFFFFC000000000
000000001FFFFFFFE000000000
000000001FFFFFFFE000000000
000000003FFFFFFFF000000000
000000007FFFDFFFF000000000
000000007FFF8FFFF800000000
00000000FFFF8FFFFC00000000
00000001FFFF07FFFC00000000
00000001FFFE03FFFE00000000
00000003FFFE03FFFF00000000
00000007FFFC01FFFF00000000
00000007FFFC00FFFF80000000
0000000FFFF800FFFF80000000
0000000FFFF0007FFFC0000000
0000001FFFF0007FFFE0000000
0000003FFFE0003FFFE0000000
0000003FFFE0001FFFF0000000
0000007FFFC0001FFFF8000000
000000FFFF80000FFFF8000000
000000FFFF80000FFFFC000000
000001FFFF000007FFFC000000
000001FFFE000003FFFE000000
000003FFFE000003FFFF000000
000007FFFC000001FFFF000000
000007FFFC000000FFFF800000
00000FFFF8000000FFFF800000
00001FFFF00000007FFFC00000
00001FFFF00000007FFFE00000
00003FFFE00000003FFFE00000
00003FFFE00000001FFFF00000
00007FFFFFFFFFFFFFFFF80000
0000FFFFFFFFFFFFFFFFF80000
0000FFFFFFFFFFFFFFFFFC0000
0001FFFFFFFFFFFFFFFFFC0000
0003FFFFFFFFFFFFFFFFFE0000
0003FFFFFFFFFFFFFFFFFF0000
0007FFFFFFFFFFFFFFFFFF0000
0007FFFFFFFFFFFFFFFFFF8000
000FFFFFFFFFFFFFFFFFFFC000
001FFFFFFFFFFFFFFFFFFFC000
001FFFFFFFFFFFFFFFFFFFE000
003FFFFFFFFFFFFFFFFFFFE000
007FFFE000000000001FFFF000
007FFFC000000000001FFFF800
00FFFF8000000000000FFFF800
00FFFF8000000000000FFFFC00
01FFFF00000000000007FFFE00
03FFFF00000000000003FFFE00
03FFFE00000000000003FFFF00
07FFFC00000000000001FFFF00
0FFFFC00000000000001FFFF80
0FFFF800000000000000FFFFC0
1FFFF8000000000000007FFFC0
1FFFF0000000000000007FFFE0
3FFFE0000000000000003FFFF0
7FFFE0000000000000001FFFF0
7FFFC0000000000000001FFFF8
FFFFC0000000000000000FFFF8
ENDCHAR
STARTCHAR 00C5
ENCODING 197
SWIDTH 1040 0
DWIDTH 104 0
BBX 101 98 1 0
BITMAP
0000000001FFFFFC0000000000
0000000007FFFFFF8000000000
000000000FFFFFFFC000000000
000000001FFFFFFFC000000000
000000003FFFFFFFE000000000
000000003FFFFFFFE000000000
000000003FE0001FF000000000
000000003FC0000FF000000000
000000003F80000FF000000000
000000003F800007F000000000
000000003F800007F000000000
000000003F800007F000000000
000000003F800007F000000000
000000003F800007F000000000
000000003F800007F000000000
000000003F800007F000000000
000000003F800007F000000000
000000003F80000FF000000000
000000003F80000FF000000000
000000003FC0000FF000000000
000000003FE0003FE000000000
000000003FFFFFFFE000000000
000000001FFFFFFFE000000000
000000001FFFFFFFC000000000
000000000FFFFFFF8000000000
0000000007FFFFFF0000000000
0000000000FFFFF80000000000
00000000000000000000000000
000000000001FE000000000000
00000000000FFF800000000000
00000000001FFFE00000000000
00000000003FFFF00000000000
00000000007FFFF80000000000
0000000000FFFFFC0000000000
0000000000FFFFFC0000000000
0000000001FFFFFE0000000000
0000000003FFFFFE0000000000
0000000003FFFFFF0000000000
0000000007FFFFFF8000000000
000000000FFFFFFF8000000000
000000000FFFFFFFC000000000
000000001FFFFFFFE000000000
000000001FFFFFFFE000000000
000000003FFFFFFFF000000000
000000007FFFDFFFF000000000
000000007FFF8FFFF800000000
00000000FFFF8FFFFC00000000
00000001FFFF07FFFC00000000
00000001FFFE03FFFE00000000
00000003FFFE03FFFF00000000
00000007FFFC01FFFF00000000
00000007FFFC00FFFF80000000
0000000FFFF800FFFF80000000
0000000FFFF0007FFFC0000000
0000001FFFF0007FFFE0000000
0000003FFFE0003FFFE0000000
0000003FFFE0001FFFF0000000
0000007FFFC0001FFFF8000000
000000FFFF80000FFFF8000000
000000FFFF80000FFFFC000000
000001FFFF000007FFFC000000
000001FFFE000003FFFE000000
000003FFFE000003FFFF000000
000007FFFC000001FFFF000000
000007FFFC000000FFFF800000
00000FFFF8000000FFFF800000
00001FFFF00000007FFFC00000
00001FFFF00000007FFFE00000
00003FFFE00000003FFFE00000
00003FFFE00000001FFFF00000
00007FFFFFFFFFFFFFFFF80000
0000FFFFFFFFFFFFFFFFF80000
0000FFFFFFFFFFFFFFFFFC0000
0001FFFFFFFFFFFFFFFFFC0000
0003FFFFFFFFFFFFFFFFFE0000
0003FFFFFFFFFFFFFFFFFF0000
0007FFFFFFFFFFFFFFFFFF0000
0007FFFFFFFFFFFFFFFFFF8000
000FFFFFFFFFFFFFFFFFFFC000
001FFFFFFFFFFFFFFFFFFFC000
001FFFFFFFFFFFFFFFFFFFE000
003FFFFFFFFFFFFFFFFFFFE000
007FFFE000000000001FFFF000
007FFFC000000000001FFFF800
00FFFF8000000000000FFFF800
00FFFF8000000000000FFFFC00
01FFFF00000000000007FFFE00
03FFFF00000000000003FFFE00
03FFFE00000000000003FFFF00
07FFFC00000000000001FFFF00
0FFFFC00000000000001FFFF80
0FFFF800000000000000FFFFC0
1FFFF8000000000000007FFFC0
1FFFF0000000000000007FFFE0
3FFFE0000000000000003FFFF0
7FFFE0000000000000001FFFF0
7FFFC0000000000000001FFFF8
FFFFC0000000000000000FFFF8
ENDCHAR
STARTCHAR 00C6
ENCODING 198
SWIDTH 1350 0
DWIDTH 135 0
BBX 130 68 1 0
BITMAP
000000000003FFFFFFFFFFFFF800000000
00000000000FFFFFFFFFFFFFF800000000
00000000003FFFFFFFFFFFFFF800000000
00000000007FFFFFFFFFFFFFF800000000
0000000000FFFFFFFFFFFFFFF800000000
0000000001FFFFFFFFFFFFFFF800000000
0000000001FFFFFFFFFFFFFFF800000000
0000000003FFFFFFFFFFFFFFF800000000
0000000007FFFFFFFFFFFFFFF800000000
0000000007FFFFFFFFFFFFFFF800000000
000000000FFFFFFFFFFFFFFFF800000000
000000000FFFFFFFFFFFFFFFF800000000
000000001FFFFFFFFFFFFFFFF800000000
000000003FFFE03FFF8000000000000000
000000003FFFE03FFF8000000000000000
000000007FFFC03FFF8000000000000000
00000000FFFFC03FFF8000000000000000
00000000FFFF803FFF8000000000000000
00000001FFFF003FFF8000000000000000
00000003FFFF003FFF8000000000000000
00000003FFFE003FFF8000000000000000
00000007FFFC003FFF8000000000000000
00000007FFFC003FFF8000000000000000
0000000FFFF8003FFF8000000000000000
0000001FFFF8003FFF8000000000000000
0000001FFFF0003FFF8000000000000000
0000003FFFE0003FFF8000000000000000
0000007FFFE0003FFF8000000000000000
0000007FFFC0003FFFFFFFFFFFFFFFFFC0
000000FFFF80003FFFFFFFFFFFFFFFFFC0
000001FFFF80003FFFFFFFFFFFFFFFFFC0
000001FFFF00003FFFFFFFFFFFFFFFFFC0
000003FFFF00003FFFFFFFFFFFFFFFFFC0
000003FFFE00003FFFFFFFFFFFFFFFFFC0
000007FFFC00003FFFFFFFFFFFFFFFFFC0
00000FFFFC00003FFFFFFFFFFFFFFFFFC0
00000FFFF800003FFFFFFFFFFFFFFFFFC0
00001FFFF000003FFFFFFFFFFFFFFFFFC0
00003FFFF000003FFFFFFFFFFFFFFFFFC0
00003FFFE000003FFFFFFFFFFFFFFFFFC0
00007FFFFFFFFFFFFF8000000000000000
00007FFFFFFFFFFFFF8000000000000000
0000FFFFFFFFFFFFFF8000000000000000
0001FFFFFFFFFFFFFF8000000000000000
0001FFFFFFFFFFFFFF8000000000000000
0003FFFFFFFFFFFFFF8000000000000000
0007FFFFFFFFFFFFFF8000000000000000
0007FFFFFFFFFFFFFF8000000000000000
000FFFFFFFFFFFFFFF8000000000000000
001FFFFFFFFFFFFFFF8000000000000000
001FFFFFFFFFFFFFFFC000000000000000
003FFFFFFFFFFFFFFFC000000000000000
003FFFE00000001FFFC000000000000000
007FFFE00000001FFFE000000000000000
00FFFFC00000001FFFF800000000000000
00FFFFC00000001FFFFFFFFFFFFFFFFFC0
01FFFF800000000FFFFFFFFFFFFFFFFFC0
03FFFF000000000FFFFFFFFFFFFFFFFFC0
03FFFF000000000FFFFFFFFFFFFFFFFFC0
07FFFE0000000007FFFFFFFFFFFFFFFFC0
07FFFE0000000007FFFFFFFFFFFFFFFFC0
0FFFFC0000000003FFFFFFFFFFFFFFFFC0
1FFFF80000000001FFFFFFFFFFFFFFFFC0
1FFFF80000000000FFFFFFFFFFFFFFFFC0
3FFFF000000000007FFFFFFFFFFFFFFFC0
7FFFF000000000001FFFFFFFFFFFFFFFC0
7FFFE0000000000003FFFFFFFFFFFFFFC0
FFFFC00000000000003FFFFFFFFFFFFFC0
ENDCHAR
STARTCHAR 00C7
ENCODING 199
SWIDTH 830 0
DWIDTH 83 0
BBX 74 90 5 -22
BITMAP
00003FFFFFFFFFFFFFC0
0007FFFFFFFFFFFFFFC0
003FFFFFFFFFFFFFFFC0
00FFFFFFFFFFFFFFFFC0
01FFFFFFFFFFFFFFFFC0
03FFFFFFFFFFFFFFFFC0
07FFFFFFFFFFFFFFFFC0
0FFFFFFFFFFFFFFFFFC0
1FFFFFFFFFFFFFFFFFC0
1FFFFFFFFFFFFFFFFFC0
3FFFFFFFFFFFFFFFFFC0
3FFFFFFFFFFFFFFFFFC0
3FFFFFFFFFFFFFFFFFC0
7FFFFC00000000000000
7FFFE000000000000000
7FFFC000000000000000
7FFF8000000000000000
7FFF0000000000000000
7FFF0000000000000000
FFFF0000000000000000
FFFF0000000000000000
FFFF0000000000000000
FFFF0000000000000000
FFFF0000000000000000
FFFF0000000000000000
FFFF0000000000000000
FFFF0000000000000000
FFFF0000000000000000
FFFF0000000000000000
FFFF0000000000000000
FFFF0000000000000000
FFFF0000000000000000
FFFF0000000000000000
FFFF0000000000000000
FFFF0000000000000000
FFFF0000000000000000
FFFF0000000000000000
FFFF0000000000000000
FFFF0000000000000000
FFFF0000000000000000
FFFF0000000000000000
FFFF0000000000000000
FFFF0000000000000000
FFFF0000000000000000
FFFF0000000000000000
FFFF0000000000000000
FFFF0000000000000000
FFFF0000000000000000
FFFF0000000000000000
7FFF0000000000000000
7FFF0000000000000000
7FFF8000000000000000
7FFFC000000000000000
7FFFE000000000000000
7FFFFC00000000000000
3FFFFFFFFFFFFFFFFFC0
3FFFFFFFFFFFFFFFFFC0
3FFFFFFFFFFFFFFFFFC0
1FFFFFFFFFFFFFFFFFC0
1FFFFFFFFFFFFFFFFFC0
0FFFFFFFFFFFFFFFFFC0
07FFFFFFFFFFFFFFFFC0
03FFFFFFFFFFFFFFFFC0
01FFFFFFFFFFFFFFFFC0
00FFFFFFFFFFFFFFFFC0
003FFFFFFFFFFFFFFFC0
0007FFFFFFFFFFFFFFC0
00007FFFFFFFFFFFFFC0
00000000000000000000
00000000000000000000
00000000000000000000
00000000FFFC00000000
00000000FFFC00000000
00000000FFF800000000
00000000FFF800000000
00000000FFF800000000
00000000FFF000000000
00000000FFF000000000
00000000FFF000000000
00000000FFF000000000
00000001FFE000000000
00000001FFE000000000
00000001FFE000000000
00000001FFE000000000
00000001FFC000000000
00000001FFC000000000
00000001FFC000000000
00000001FF8000000000
00000001FF8000000000
00000003FF8000000000
ENDCHAR
STARTCHAR 00C8
ENCODING 200
SWIDTH 830 0
DWIDTH 83 0
BBX 74 97 5 0
BITMAP
00003FFF800000000000
00003FFFC00000000000
00001FFFC00000000000
00000FFFE00000000000
000007FFE00000000000
000007FFF00000000000
000003FFF80000000000
000001FFF80000000000
000001FFFC0000000000
000000FFFC0000000000
0000007FFE0000000000
0000003FFF0000000000
0000003FFF0000000000
0000001FFF8000000000
0000000FFF8000000000
0000000FFFC000000000
00000007FFC000000000
00000003FFE000000000
00000001FFF000000000
00000001FFF000000000
00000000FFF800000000
000000007FF800000000
00000000000000000000
00000000000000000000
00000000000000000000
00000000000000000000
00000000000000000000
00000000000000000000
00000000000000000000
00003FFFFFE000000000
0007FFFFFFE000000000
003FFFFFFFE000000000
00FFFFFFFFE000000000
01FFFFFFFFE000000000
03FFFFFFFFE000000000
07FFFFFFFFE000000000
0FFFFFFFFFE000000000
1FFFFFFFFFE000000000
1FFFFFFFFFE000000000
3FFFFFFFFFE000000000
3FFFFFFFFFE000000000
3FFFFFFFFFE000000000
7FFFF800000000000000
7FFFE000000000000000
7FFF8000000000000000
7FFF8000000000000000
7FFF0000000000000000
7FFF0000000000000000
FFFF0000000000000000
FFFF0000000000000000
FFFF0000000000000000
FFFF0000000000000000
FFFF0000000000000000
FFFF0000000000000000
FFFF0000000000000000
FFFF0000000000000000
FFFF0000000000000000
FFFFFFFFFFFFFFFFFFC0
FFFFFFFFFFFFFFFFFFC0
FFFFFFFFFFFFFFFFFFC0
FFFFFFFFFFFFFFFFFFC0
FFFFFFFFFFFFFFFFFFC0
FFFFFFFFFFFFFFFFFFC0
FFFFFFFFFFFFFFFFFFC0
FFFFFFFFFFFFFFFFFFC0
FFFFFFFFFFFFFFFFFFC0
FFFFFFFFFFFFFFFFFFC0
FFFFFFFFFFFFFFFFFFC0
FFFFFFFFFFFFFFFFFFC0
FFFF0000000000000000
FFFF0000000000000000
FFFF0000000000000000
FFFF0000000000000000
FFFF0000000000000000
FFFF0000000000000000
FFFF0000000000000000
FFFF0000000000000000
FFFF0000000000000000
7FFF0000000000000000
7FFF0000000000000000
7FFF8000000000000000
7FFF8000000000000000
7FFFC000000000000000
7FFFF000000000000000
3FFFFFFFFFFFFFFFFFC0
3FFFFFFFFFFFFFFFFFC0
3FFFFFFFFFFFFFFFFFC0
1FFFFFFFFFFFFFFFFFC0
1FFFFFFFFFFFFFFFFFC0
0FFFFFFFFFFFFFFFFFC0
07FFFFFFFFFFFFFFFFC0
03FFFFFFFFFFFFFFFFC0
01FFFFFFFFFFFFFFFFC0
00FFFFFFFFFFFFFFFFC0
003FFFFFFFFFFFFFFFC0
0007FFFFFFFFFFFFFFC0
00007FFFFFFFFFFFFFC0
ENDCHAR
STARTCHAR 00C9
ENCODING 201
SWIDTH 830 0
DWIDTH 83 0
BBX 74 97 5 0
BITMAP
0000000000FFFE000000
0000000001FFFC000000
0000000003FFFC000000
0000000003FFF8000000
0000000007FFF0000000
0000000007FFF0000000
000000000FFFE0000000
000000000FFFC0000000
000000001FFF80000000
000000003FFF80000000
000000003FFF00000000
000000007FFE00000000
000000007FFC00000000
00000000FFFC00000000
00000000FFF800000000
00000001FFF000000000
00000003FFF000000000
00000003FFE000000000
00000007FFC000000000
00000007FF8000000000
0000000FFF8000000000
0000000FFF0000000000
00000000000000000000
00000000000000000000
00000000000000000000
00000000000000000000
00000000000000000000
00000000000000000000
00000000000000000000
00003FFFFFE000000000
0007FFFFFFE000000000
003FFFFFFFE000000000
00FFFFFFFFE000000000
01FFFFFFFFE000000000
03FFFFFFFFE000000000
07FFFFFFFFE000000000
0FFFFFFFFFE000000000
1FFFFFFFFFE000000000
1FFFFFFFFFE000000000
3FFFFFFFFFE000000000
3FFFFFFFFFE000000000
3FFFFFFFFFE000000000
7FFFF800000000000000
7FFFE000000000000000
7FFF8000000000000000
7FFF8000000000000000
7FFF0000000000000000
7FFF0000000000000000
FFFF0000000000000000
FFFF0000000000000000
FFFF0000000000000000
FFFF0000000000000000
FFFF0000000000000000
FFFF0000000000000000
FFFF0000000000000000
FFFF0000000000000000
FFFF0000000000000000
FFFFFFFFFFFFFFFFFFC0
FFFFFFFFFFFFFFFFFFC0
FFFFFFFFFFFFFFFFFFC0
FFFFFFFFFFFFFFFFFFC0
FFFFFFFFFFFFFFFFFFC0
FFFFFFFFFFFFFFFFFFC0
FFFFFFFFFFFFFFFFFFC0
FFFFFFFFFFFFFFFFFFC0
FFFFFFFFFFFFFFFFFFC0
FFFFFFFFFFFFFFFFFFC0
FFFFFFFFFFFFFFFFFFC0
FFFFFFFFFFFFFFFFFFC0
FFFF0000000000000000
FFFF0000000000000000
FFFF0000000000000000
FFFF0000000000000000
FFFF0000000000000000
FFFF0000000000000000
FFFF0000000000000000
FFFF0000000000000000
FFFF0000000000000000
7FFF0000000000000000
7FFF0000000000000000
7FFF8000000000000000
7FFF8000000000000000
7FFFC000000000000000
7FFFF000000000000000
3FFFFFFFFFFFFFFFFFC0
3FFFFFFFFFFFFFFFFFC0
3FFFFFFFFFFFFFFFFFC0
1FFFFFFFFFFFFFFFFFC0
1FFFFFFFFFFFFFFFFFC0
0FFFFFFFFFFFFFFFFFC0
07FFFFFFFFFFFFFFFFC0
03FFFFFFFFFFFFFFFFC0
01FFFFFFFFFFFFFFFFC0
00FFFFFFFFFFFFFFFFC0
003FFFFFFFFFFFFFFFC0
0007FFFFFFFFFFFFFFC0
00007FFFFFFFFFFFFFC0
ENDCHAR
STARTCHAR 00CA
ENCODING 202
SWIDTH 830 0
DWIDTH 83 0
BBX 74 98 5 0
BITMAP
000000000FE000000000
000000007FF800000000
00000000FFFE00000000
00000001FFFF00000000
00000003FFFF00000000
00000003FFFF80000000
00000007FFFFC0000000
0000000FFFFFE0000000
0000001FFFFFE0000000
0000001FFFFFF0000000
0000003FFFFFF8000000
0000007FFFFFFC000000
000000FFFEFFFC000000
000000FFFC7FFE000000
000001FFF87FFF000000
000003FFF03FFF800000
000007FFF01FFF800000
000007FFE00FFFC00000
00000FFFC00FFFE00000
00001FFFC007FFF00000
00003FFF8003FFF00000
00003FFF0003FFF80000
00007FFE0001FFFC0000
0000FFFE0000FFFE0000
0000FFFC00007FFE0000
0001FFF800007FFF0000
0003FFF000003FFF8000
00000000000000000000
00000000000000000000
00000000000000000000
00003FFFFFE000000000
0007FFFFFFE000000000
003FFFFFFFE000000000
00FFFFFFFFE000000000
01FFFFFFFFE000000000
03FFFFFFFFE000000000
07FFFFFFFFE000000000
0FFFFFFFFFE000000000
1FFFFFFFFFE000000000
1FFFFFFFFFE000000000
3FFFFFFFFFE000000000
3FFFFFFFFFE000000000
3FFFFFFFFFE000000000
7FFFF800000000000000
7FFFE000000000000000
7FFF8000000000000000
7FFF8000000000000000
7FFF0000000000000000
7FFF0000000000000000
FFFF0000000000000000
FFFF0000000000000000
FFFF0000000000000000
FFFF0000000000000000
FFFF0000000000000000
FFFF0000000000000000
FFFF0000000000000000
FFFF0000000000000000
FFFF0000000000000000
FFFFFFFFFFFFFFFFFFC0
FFFFFFFFFFFFFFFFFFC0
FFFFFFFFFFFFFFFFFFC0
FFFFFFFFFFFFFFFFFFC0
FFFFFFFFFFFFFFFFFFC0
FFFFFFFFFFFFFFFFFFC0
FFFFFFFFFFFFFFFFFFC0
FFFFFFFFFFFFFFFFFFC0
FFFFFFFFFFFFFFFFFFC0
FFFFFFFFFFFFFFFFFFC0
FFFFFFFFFFFFFFFFFFC0
FFFFFFFFFFFFFFFFFFC0
FFFF0000000000000000
FFFF0000000000000000
FFFF0000000000000000
FFFF0000000000000000
FFFF0000000000000000
FFFF0000000000000000
FFFF0000000000000000
FFFF0000000000000000
FFFF0000000000000000
7FFF0000000000000000
7FFF0000000000000000
7FFF8000000000000000
7FFF8000000000000000
7FFFC000000000000000
7FFFF000000000000000
3FFFFFFFFFFFFFFFFFC0
3FFFFFFFFFFFFFFFFFC0
3FFFFFFFFFFFFFFFFFC0
1FFFFFFFFFFFFFFFFFC0
1FFFFFFFFFFFFFFFFFC0
0FFFFFFFFFFFFFFFFFC0
07FFFFFFFFFFFFFFFFC0
03FFFFFFFFFFFFFFFFC0
01FFFFFFFFFFFFFFFFC0
00FFFFFFFFFFFFFFFFC0
003FFFFFFFFFFFFFFFC0
0007FFFFFFFFFFFFFFC0
00007FFFFFFFFFFFFFC0
ENDCHAR
STARTCHAR 00CB
ENCODING 203
SWIDTH 830 0
DWIDTH 83 0
BBX 74 86 5 0
BITMAP
000007FF0001FF800000
00000FFF8003FFE00000
00001FFFC007FFE00000
00001FFFC007FFF00000
00001FFFC007FFF00000
00001FFFC007FFF00000
00001FFFC007FFF00000
00001FFFC007FFF00000
00001FFFC007FFF00000
00001FFFC007FFF00000
00001FFFC007FFF00000
00001FFFC007FFF00000
00001FFFC007FFE00000
00000FFF8003FFE00000
000003FF0001FF800000
00000000000000000000
00000000000000000000
00000000000000000000
00003FFFFFE000000000
0007FFFFFFE000000000
003FFFFFFFE000000000
00FFFFFFFFE000000000
01FFFFFFFFE000000000
03FFFFFFFFE000000000
07FFFFFFFFE000000000
0FFFFFFFFFE000000000
1FFFFFFFFFE000000000
1FFFFFFFFFE000000000
3FFFFFFFFFE000000000
3FFFFFFFFFE000000000
3FFFFFFFFFE000000000
7FFFF800000000000000
7FFFE000000000000000
7FFF8000000000000000
7FFF8000000000000000
7FFF0000000000000000
7FFF0000000000000000
FFFF0000000000000000
FFFF0000000000000000
FFFF0000000000000000
FFFF0000000000000000
FFFF0000000000000000
FFFF0000000000000000
FFFF0000000000000000
FFFF0000000000000000
FFFF0000000000000000
FFFFFFFFFFFFFFFFFFC0
FFFFFFFFFFFFFFFFFFC0
FFFFFFFFFFFFFFFFFFC0
FFFFFFFFFFFFFFFFFFC0
FFFFFFFFFFFFFFFFFFC0
FFFFFFFFFFFFFFFFFFC0
FFFFFFFFFFFFFFFFFFC0
FFFFFFFFFFFFFFFFFFC0
FFFFFFFFFFFFFFFFFFC0
FFFFFFFFFFFFFFFFFFC0
FFFFFFFFFFFFFFFFFFC0
FFFFFFFFFFFFFFFFFFC0
FFFF0000000000000000
FFFF0000000000000000
FFFF0000000000000000
FFFF0000000000000000
FFFF0000000000000000
FFFF0000000000000000
FFFF0000000000000000
FFFF0000000000000000
FFFF0000000000000000
7FFF0000000000000000
7FFF0000000000000000
7FFF8000000000000000
7FFF8000000000000000
7FFFC000000000000000
7FFFF000000000000000
3FFFFFFFFFFFFFFFFFC0
3FFFFFFFFFFFFFFFFFC0
3FFFFFFFFFFFFFFFFFC0
1FFFFFFFFFFFFFFFFFC0
1FFFFFFFFFFFFFFFFFC0
0FFFFFFFFFFFFFFFFFC0
07FFFFFFFFFFFFFFFFC0
03FFFFFFFFFFFFFFFFC0
01FFFFFFFFFFFFFFFFC0
00FFFFFFFFFFFFFFFFC0
003FFFFFFFFFFFFFFFC0
0007FFFFFFFFFFFFFFC0
00007FFFFFFFFFFFFFC0
ENDCHAR
STARTCHAR 00CC
ENCODING 204
SWIDTH 270 0
DWIDTH 27 0
BBX 28 97 -5 0
BITMAP
FFFE0000
7FFF0000
7FFF8000
3FFF8000
1FFFC000
0FFFC000
0FFFE000
07FFF000
03FFF000
03FFF800
01FFF800
00FFFC00
007FFC00
007FFE00
003FFF00
001FFF00
001FFF80
000FFF80
0007FFC0
0003FFC0
0003FFE0
0001FFF0
00000000
00000000
00000000
00000000
00000000
00000000
00000000
001FFFC0
001FFFC0
001FFFC0
001FFFC0
001FFFC0
001FFFC0
001FFFC0
001FFFC0
001FFFC0
001FFFC0
001FFFC0
001FFFC0
001FFFC0
001FFFC0
001FFFC0
001FFFC0
001FFFC0
001FFFC0
001FFFC0
001FFFC0
001FFFC0
001FFFC0
001FFFC0
001FFFC0
001FFFC0
001FFFC0
001FFFC0
001FFFC0
001FFFC0
001FFFC0
001FFFC0
001FFFC0
001FFFC0
001FFFC0
001FFFC0
001FFFC0
001FFFC0
001FFFC0
001FFFC0
001FFFC0
001FFFC0
001FFFC0
001FFFC0
001FFFC0
001FFFC0
001FFFC0
001FFFC0
001FFFC0
001FFFC0
001FFFC0
001FFFC0
001FFFC0
001FFFC0
001FFFC0
001FFFC0
001FFFC0
001FFFC0
001FFFC0
001FFFC0
001FFFC0
001FFFC0
001FFFC0
001FFFC0
001FFFC0
001FFFC0
001FFFC0
001FFFC0
001FFFC0
ENDCHAR
STARTCHAR 00CD
ENCODING 205
SWIDTH 270 0
DWIDTH 27 0
BBX 27 97 5 0
BITMAP
000FFFE0
001FFFE0
001FFFC0
003FFF80
003FFF80
007FFF00
00FFFE00
00FFFC00
01FFFC00
01FFF800
03FFF000
03FFE000
07FFE000
0FFFC000
0FFF8000
1FFF8000
1FFF0000
3FFE0000
3FFC0000
7FFC0000
FFF80000
FFF00000
00000000
00000000
00000000
00000000
00000000
00000000
00000000
7FFF0000
7FFF0000
7FFF0000
7FFF0000
7FFF0000
7FFF0000
7FFF0000
7FFF0000
7FFF0000
7FFF0000
7FFF0000
7FFF0000
7FFF0000
7FFF0000
7FFF0000
7FFF0000
7FFF0000
7FFF0000
7FFF0000
7FFF0000
7FFF0000
7FFF0000
7FFF0000
7FFF0000
7FFF0000
7FFF0000
7FFF0000
7FFF0000
7FFF0000
7FFF0000
7FFF0000
7FFF0000
7FFF0000
7FFF0000
7FFF0000
7FFF0000
7FFF0000
7FFF0000
7FFF0000
7FFF0000
7FFF0000
7FFF0000
7FFF0000
7FFF0000
7FFF0000
7FFF0000
7FFF0000
7FFF0000
7FFF0000
7FFF0000
7FFF0000
7FFF0000
7FFF0000
7FFF0000
7FFF0000
7FFF0000
7FFF0000
7FFF0000
7FFF0000
7FFF0000
7FFF0000
7FFF0000
7FFF0000
7FFF0000
7FFF0000
7FFF0000
7FFF0000
7FFF0000
ENDCHAR
STARTCHAR 00CE
ENCODING 206
SWIDTH 270 0
DWIDTH 27 0
BBX 51 98 -12 0
BITMAP
000003F8000000
00000FFF000000
00003FFF800000
00007FFFC00000
00007FFFE00000
0000FFFFE00000
0001FFFFF00000
0003FFFFF80000
0003FFFFFC0000
0007FFFFFC0000
000FFFFFFE0000
001FFFFFFF0000
001FFFBFFF8000
003FFF1FFF8000
007FFE0FFFC000
00FFFE0FFFE000
00FFFC07FFF000
01FFF803FFF000
03FFF003FFF800
07FFF001FFFC00
07FFE000FFFE00
0FFFC0007FFE00
1FFFC0007FFF00
3FFF80003FFF80
3FFF00001FFFC0
7FFE00000FFFC0
FFFE00000FFFE0
00000000000000
00000000000000
00000000000000
00003FFF800000
00003FFF800000
00003FFF800000
00003FFF800000
00003FFF800000
00003FFF800000
00003FFF800000
00003FFF800000
00003FFF800000
00003FFF800000
00003FFF800000
00003FFF800000
00003FFF800000
00003FFF800000
00003FFF800000
00003FFF800000
00003FFF800000
00003FFF800000
00003FFF800000
00003FFF800000
00003FFF800000
00003FFF800000
00003FFF800000
00003FFF800000
00003FFF800000
00003FFF800000
00003FFF800000
00003FFF800000
00003FFF800000
00003FFF800000
00003FFF800000
00003FFF800000
00003FFF800000
00003FFF800000
00003FFF800000
00003FFF800000
00003FFF800000
00003FFF800000
00003FFF800000
00003FFF800000
00003FFF800000
00003FFF800000
00003FFF800000
00003FFF800000
00003FFF800000
00003FFF800000
00003FFF800000
00003FFF800000
00003FFF800000
00003FFF800000
00003FFF800000
00003FFF800000
00003FFF800000
00003FFF800000
00003FFF800000
00003FFF800000
00003FFF800000
00003FFF800000
00003FFF800000
00003FFF800000
00003FFF800000
00003FFF800000
00003FFF800000
00003FFF800000
00003FFF800000
00003FFF800000
00003FFF800000
00003FFF800000
ENDCHAR
STARTCHAR 00CF
ENCODING 207
SWIDTH 270 0
DWIDTH 27 0
BBX 41 86 -7 0
BITMAP
1FF8000FFE00
7FFC001FFF00
7FFE003FFF80
FFFE003FFF80
FFFE003FFF80
FFFE003FFF80
FFFE003FFF80
FFFE003FFF80
FFFE003FFF80
FFFE003FFF80
FFFE003FFF80
7FFE003FFF80
7FFE003FFF80
7FFC001FFF00
1FF80007FE00
000000000000
000000000000
000000000000
0007FFF00000
0007FFF00000
0007FFF00000
0007FFF00000
0007FFF00000
0007FFF00000
0007FFF00000
0007FFF00000
0007FFF00000
0007FFF00000
0007FFF00000
0007FFF00000
0007FFF00000
0007FFF00000
0007FFF00000
0007FFF00000
0007FFF00000
0007FFF00000
0007FFF00000
0007FFF00000
0007FFF00000
0007FFF00000
0007FFF00000
0007FFF00000
0007FFF00000
0007FFF00000
0007FFF00000
0007FFF00000
0007FFF00000
0007FFF00000
0007FFF00000
0007FFF00000
0007FFF00000
0007FFF00000
0007FFF00000
0007FFF00000
0007FFF00000
0007FFF00000
0007FFF00000
0007FFF00000
0007FFF00000
0007FFF00000
0007FFF00000
0007FFF00000
0007FFF00000
0007FFF00000
0007FFF00000
0007FFF00000
0007FFF00000
0007FFF00000
0007FFF00000
0007FFF00000
0007FFF00000
0007FFF00000
0007FFF00000
0007FFF00000
0007FFF00000
0007FFF00000
0007FFF00000
0007FFF00000
0007FFF00000
0007FFF00000
0007FFF00000
0007FFF00000
0007FFF00000
0007FFF00000
0007FFF00000
0007FFF00000
ENDCHAR
STARTCHAR 00D0
ENCODING 208
SWIDTH 940 0
DWIDTH 94 0
BBX 89 68 0 0
BITMAP
00FFFFFFFFFFFFFFFE000000
00FFFFFFFFFFFFFFFFF00000
00FFFFFFFFFFFFFFFFFE0000
00FFFFFFFFFFFFFFFFFF8000
00FFFFFFFFFFFFFFFFFFC000
00FFFFFFFFFFFFFFFFFFF000
00FFFFFFFFFFFFFFFFFFF000
00FFFFFFFFFFFFFFFFFFF800
00FFFFFFFFFFFFFFFFFFFC00
00FFFFFFFFFFFFFFFFFFFC00
00FFFFFFFFFFFFFFFFFFFE00
00FFFFFFFFFFFFFFFFFFFE00
00FFFFFFFFFFFFFFFFFFFF00
00FFFF00000000000FFFFF00
00FFFF000000000003FFFF00
00FFFF000000000000FFFF00
00FFFF000000000000FFFF00
00FFFF0000000000007FFF00
00FFFF0000000000007FFF80
00FFFF0000000000007FFF80
00FFFF0000000000007FFF80
00FFFF0000000000007FFF80
00FFFF0000000000007FFF80
00FFFF0000000000007FFF80
00FFFF0000000000007FFF80
00FFFF0000000000007FFF80
00FFFF0000000000007FFF80
00FFFF0000000000007FFF80
FFFFFFFFFFFFF000007FFF80
FFFFFFFFFFFFF000007FFF80
FFFFFFFFFFFFF000007FFF80
FFFFFFFFFFFFF000007FFF80
FFFFFFFFFFFFF000007FFF80
FFFFFFFFFFFFF000007FFF80
FFFFFFFFFFFFF000007FFF80
FFFFFFFFFFFFF000007FFF80
FFFFFFFFFFFFF000007FFF80
FFFFFFFFFFFFF000007FFF80
FFFFFFFFFFFFF000007FFF80
00FFFF0000000000007FFF80
00FFFF0000000000007FFF80
00FFFF0000000000007FFF80
00FFFF0000000000007FFF80
00FFFF0000000000007FFF80
00FFFF0000000000007FFF80
00FFFF0000000000007FFF80
00FFFF0000000000007FFF80
00FFFF0000000000007FFF80
00FFFF0000000000007FFF80
00FFFF0000000000007FFF00
00FFFF000000000000FFFF00
00FFFF000000000000FFFF00
00FFFF000000000001FFFF00
00FFFF000000000003FFFF00
00FFFF00000000000FFFFF00
00FFFFFFFFFFFFFFFFFFFE00
00FFFFFFFFFFFFFFFFFFFE00
00FFFFFFFFFFFFFFFFFFFE00
00FFFFFFFFFFFFFFFFFFFC00
00FFFFFFFFFFFFFFFFFFFC00
00FFFFFFFFFFFFFFFFFFF800
00FFFFFFFFFFFFFFFFFFF000
00FFFFFFFFFFFFFFFFFFE000
00FFFFFFFFFFFFFFFFFFC000
00FFFFFFFFFFFFFFFFFF8000
00FFFFFFFFFFFFFFFFFE0000
00FFFFFFFFFFFFFFFFF00000
00FFFFFFFFFFFFFFFF000000
ENDCHAR
STARTCHAR 00D1
ENCODING 209
SWIDTH 910 0
DWIDTH 91 0
BBX 80 93 6 -2
BITMAP
0007FFFFFFFFFFFFC000
0007FFFFFFFFFFFFC000
0007FFFFFFFFFFFFC000
0007FFFFFFFFFFFFC000
0007FFFFFFFFFFFFC000
0007FFFFFFFFFFFFC000
0007FFFFFFFFFFFFC000
0007FFFFFFFFFFFFC000
0007FFFFFFFFFFFFC000
0007FFFFFFFFFFFFC000
0007FFFFFFFFFFFFC000
00000000000000000000
00000000000000000000
00000000000000000000
00000000000000000000
00000000000000000000
00000000000000000000
00000000000000000000
00000000000000000000
00000000000000000000
00000000000000000000
0FE00000000000000000
3FF80000000000000000
7FFE0000000000007FFF
FFFF0000000000007FFF
FFFF8000000000007FFF
FFFFC000000000007FFF
FFFFE000000000007FFF
FFFFF000000000007FFF
FFFFF800000000007FFF
FFFFFC00000000007FFF
FFFFFE00000000007FFF
FFFFFF00000000007FFF
FFFFFF80000000007FFF
FFFFFFC0000000007FFF
FFFFFFE0000000007FFF
FFFFFFF0000000007FFF
FFFFFFF8000000007FFF
FFFFFFFC000000007FFF
FFFFFFFE000000007FFF
FFFFFFFF000000007FFF
FFFFFFFF800000007FFF
FFFFFFFFC00000007FFF
FFFDFFFFE00000007FFF
FFFCFFFFF00000007FFF
FFFC7FFFF80000007FFF
FFFC3FFFFC0000007FFF
FFFC1FFFFE0000007FFF
FFFC0FFFFF0000007FFF
FFFC07FFFF8000007FFF
FFFC01FFFFC000007FFF
FFFC00FFFFE000007FFF
FFFC007FFFF000007FFF
FFFC003FFFF800007FFF
FFFC001FFFFE00007FFF
FFFC000FFFFF00007FFF
FFFC0007FFFF80007FFF
FFFC0003FFFFC0007FFF
FFFC0001FFFFE0007FFF
FFFC0000FFFFF0007FFF
FFFC00007FFFF8007FFF
FFFC00003FFFFC007FFF
FFFC00001FFFFE007FFF
FFFC00000FFFFF007FFF
FFFC000007FFFF807FFF
FFFC000003FFFFC07FFF
FFFC000001FFFFE07FFF
FFFC0000007FFFF07FFF
FFFC0000003FFFF87FFF
FFFC0000001FFFFC7FFF
FFFC0000000FFFFE7FFF
FFFC00000007FFFF7FFF
FFFC00000003FFFFFFFF
FFFC00000001FFFFFFFF
FFFC00000000FFFFFFFF
FFFC000000007FFFFFFF
FFFC000000003FFFFFFF
FFFC000000001FFFFFFF
FFFC000000000FFFFFFF
FFFC0000000007FFFFFF
FFFC0000000003FFFFFF
FFFC0000000001FFFFFF
FFFC0000000000FFFFFF
FFFC00000000007FFFFF
FFFC00000000001FFFFF
FFFC00000000000FFFFF
FFFC000000000007FFFF
FFFC000000000003FFFE
FFFC000000000001FFFE
FFFC000000000000FFFE
FFFC0000000000007FFC
00000000000000003FF8
00000000000000000FE0
ENDCHAR
STARTCHAR 00D2
ENCODING 210
SWIDTH 890 0
DWIDTH 89 0
BBX 78 97 5 0
BITMAP
000007FFF00000000000
000007FFF80000000000
000003FFF80000000000
000001FFFC0000000000
000000FFFC0000000000
000000FFFE0000000000
0000007FFF0000000000
0000003FFF0000000000
0000003FFF8000000000
0000001FFF8000000000
0000000FFFC000000000
00000007FFE000000000
00000007FFE000000000
00000003FFF000000000
00000001FFF000000000
00000001FFF800000000
00000000FFF800000000
000000007FFC00000000
000000003FFE00000000
000000003FFE00000000
000000001FFF00000000
000000000FFF00000000
00000000000000000000
00000000000000000000
00000000000000000000
00000000000000000000
00000000000000000000
00000000000000000000
00000000000000000000
00003FFFFFFFFFF80000
0007FFFFFFFFFFFFC000
003FFFFFFFFFFFFFF800
00FFFFFFFFFFFFFFFE00
01FFFFFFFFFFFFFFFF00
03FFFFFFFFFFFFFFFF80
07FFFFFFFFFFFFFFFFC0
0FFFFFFFFFFFFFFFFFE0
1FFFFFFFFFFFFFFFFFE0
1FFFFFFFFFFFFFFFFFF0
3FFFFFFFFFFFFFFFFFF0
3FFFFFFFFFFFFFFFFFF8
3FFFFFFFFFFFFFFFFFF8
7FFFFC00000000FFFFF8
7FFFE0000000000FFFFC
7FFFC00000000007FFFC
7FFF800000000003FFFC
7FFF000000000003FFFC
7FFF000000000001FFFC
FFFF000000000001FFFC
FFFF000000000001FFFC
FFFF000000000001FFFC
FFFF000000000001FFFC
FFFF000000000001FFFC
FFFF000000000001FFFC
FFFF000000000001FFFC
FFFF000000000001FFFC
FFFF000000000001FFFC
FFFF000000000001FFFC
FFFF000000000001FFFC
FFFF000000000001FFFC
FFFF000000000001FFFC
FFFF000000000001FFFC
FFFF000000000001FFFC
FFFF000000000001FFFC
FFFF000000000001FFFC
FFFF000000000001FFFC
FFFF000000000001FFFC
FFFF000000000001FFFC
FFFF000000000001FFFC
FFFF000000000001FFFC
FFFF000000000001FFFC
FFFF000000000001FFFC
FFFF000000000001FFFC
FFFF000000000001FFFC
FFFF000000000001FFFC
FFFF000000000001FFFC
FFFF000000000001FFFC
FFFF000000000001FFFC
7FFF000000000001FFFC
7FFF000000000003FFFC
7FFF800000000003FFFC
7FFF800000000007FFFC
7FFFE0000000000FFFFC
7FFFF8000000007FFFF8
3FFFFFFFFFFFFFFFFFF8
3FFFFFFFFFFFFFFFFFF8
3FFFFFFFFFFFFFFFFFF0
1FFFFFFFFFFFFFFFFFF0
1FFFFFFFFFFFFFFFFFE0
0FFFFFFFFFFFFFFFFFE0
07FFFFFFFFFFFFFFFFC0
03FFFFFFFFFFFFFFFF80
01FFFFFFFFFFFFFFFF00
00FFFFFFFFFFFFFFFE00
003FFFFFFFFFFFFFF800
0007FFFFFFFFFFFFC000
00007FFFFFFFFFF80000
ENDCHAR
STARTCHAR 00D3
ENCODING 211
SWIDTH 890 0
DWIDTH 89 0
BBX 78 97 5 0
BITMAP
00000000001FFFC00000
00000000003FFF800000
00000000007FFF800000
00000000007FFF000000
0000000000FFFE000000
0000000000FFFE000000
0000000001FFFC000000
0000000001FFF8000000
0000000003FFF0000000
0000000007FFF0000000
0000000007FFE0000000
000000000FFFC0000000
000000000FFF80000000
000000001FFF80000000
000000001FFF00000000
000000003FFE00000000
000000007FFE00000000
000000007FFC00000000
00000000FFF800000000
00000000FFF000000000
00000001FFF000000000
00000001FFE000000000
00000000000000000000
00000000000000000000
00000000000000000000
00000000000000000000
00000000000000000000
00000000000000000000
00000000000000000000
00003FFFFFFFFFF80000
0007FFFFFFFFFFFFC000
003FFFFFFFFFFFFFF800
00FFFFFFFFFFFFFFFE00
01FFFFFFFFFFFFFFFF00
03FFFFFFFFFFFFFFFF80
07FFFFFFFFFFFFFFFFC0
0FFFFFFFFFFFFFFFFFE0
1FFFFFFFFFFFFFFFFFE0
1FFFFFFFFFFFFFFFFFF0
3FFFFFFFFFFFFFFFFFF0
3FFFFFFFFFFFFFFFFFF8
3FFFFFFFFFFFFFFFFFF8
7FFFFC00000000FFFFF8
7FFFE0000000000FFFFC
7FFFC00000000007FFFC
7FFF800000000003FFFC
7FFF000000000003FFFC
7FFF000000000001FFFC
FFFF000000000001FFFC
FFFF000000000001FFFC
FFFF000000000001FFFC
FFFF000000000001FFFC
FFFF000000000001FFFC
FFFF000000000001FFFC
FFFF000000000001FFFC
FFFF000000000001FFFC
FFFF000000000001FFFC
FFFF000000000001FFFC
FFFF000000000001FFFC
FFFF000000000001FFFC
FFFF000000000001FFFC
FFFF000000000001FFFC
FFFF000000000001FFFC
FFFF000000000001FFFC
FFFF000000000001FFFC
FFFF000000000001FFFC
FFFF000000000001FFFC
FFFF000000000001FFFC
FFFF000000000001FFFC
FFFF000000000001FFFC
FFFF000000000001FFFC
FFFF000000000001FFFC
FFFF000000000001FFFC
FFFF000000000001FFFC
FFFF000000000001FFFC
FFFF000000000001FFFC
FFFF000000000001FFFC
FFFF000000000001FFFC
7FFF000000000001FFFC
7FFF000000000003FFFC
7FFF800000000003FFFC
7FFF800000000007FFFC
7FFFE0000000000FFFFC
7FFFF8000000007FFFF8
3FFFFFFFFFFFFFFFFFF8
3FFFFFFFFFFFFFFFFFF8
3FFFFFFFFFFFFFFFFFF0
1FFFFFFFFFFFFFFFFFF0
1FFFFFFFFFFFFFFFFFE0
0FFFFFFFFFFFFFFFFFE0
07FFFFFFFFFFFFFFFFC0
03FFFFFFFFFFFFFFFF80
01FFFFFFFFFFFFFFFF00
00FFFFFFFFFFFFFFFE00
003FFFFFFFFFFFFFF800
0007FFFFFFFFFFFFC000
00007FFFFFFFFFF80000
ENDCHAR
STARTCHAR 00D4
ENCODING 212
SWIDTH 890 0
DWIDTH 89 0
BBX 78 98 5 0
BITMAP
000000000FE000000000
000000007FF800000000
00000000FFFE00000000
00000001FFFF00000000
00000003FFFF00000000
00000003FFFF80000000
00000007FFFFC0000000
0000000FFFFFE0000000
0000001FFFFFE0000000
0000001FFFFFF0000000
0000003FFFFFF8000000
0000007FFFFFFC000000
000000FFFCFFFC000000
000000FFFCFFFE000000
000001FFF87FFF000000
000003FFF03FFF800000
000007FFF01FFF800000
000007FFE01FFFC00000
00000FFFC00FFFE00000
00001FFF8007FFF00000
00003FFF8003FFF00000
00003FFF0003FFF80000
00007FFE0001FFFC0000
0000FFFE0000FFFE0000
0001FFFC00007FFE0000
0001FFF800007FFF0000
0003FFF000003FFF8000
00000000000000000000
00000000000000000000
00000000000000000000
00003FFFFFFFFFF80000
0007FFFFFFFFFFFFC000
003FFFFFFFFFFFFFF800
00FFFFFFFFFFFFFFFE00
01FFFFFFFFFFFFFFFF00
03FFFFFFFFFFFFFFFF80
07FFFFFFFFFFFFFFFFC0
0FFFFFFFFFFFFFFFFFE0
1FFFFFFFFFFFFFFFFFE0
1FFFFFFFFFFFFFFFFFF0
3FFFFFFFFFFFFFFFFFF0
3FFFFFFFFFFFFFFFFFF8
3FFFFFFFFFFFFFFFFFF8
7FFFFC00000000FFFFF8
7FFFE0000000000FFFFC
7FFFC00000000007FFFC
7FFF800000000003FFFC
7FFF000000000003FFFC
7FFF000000000001FFFC
FFFF000000000001FFFC
FFFF000000000001FFFC
FFFF000000000001FFFC
FFFF000000000001FFFC
FFFF000000000001FFFC
FFFF000000000001FFFC
FFFF000000000001FFFC
FFFF000000000001FFFC
FFFF000000000001FFFC
FFFF000000000001FFFC
FFFF000000000001FFFC
FFFF000000000001FFFC
FFFF000000000001FFFC
FFFF000000000001FFFC
FFFF000000000001FFFC
FFFF000000000001FFFC
FFFF000000000001FFFC
FFFF000000000001FFFC
FFFF000000000001FFFC
FFFF000000000001FFFC
FFFF000000000001FFFC
FFFF000000000001FFFC
FFFF000000000001FFFC
FFFF000000000001FFFC
FFFF000000000001FFFC
FFFF000000000001FFFC
FFFF000000000001FFFC
FFFF000000000001FFFC
FFFF000000000001FFFC
FFFF000000000001FFFC
7FFF000000000001FFFC
7FFF000000000003FFFC
7FFF800000000003FFFC
7FFF800000000007FFFC
7FFFE0000000000FFFFC
7FFFF8000000007FFFF8
3FFFFFFFFFFFFFFFFFF8
3FFFFFFFFFFFFFFFFFF8
3FFFFFFFFFFFFFFFFFF0
1FFFFFFFFFFFFFFFFFF0
1FFFFFFFFFFFFFFFFFE0
0FFFFFFFFFFFFFFFFFE0
07FFFFFFFFFFFFFFFFC0
03FFFFFFFFFFFFFFFF80
01FFFFFFFFFFFFFFFF00
00FFFFFFFFFFFFFFFE00
003FFFFFFFFFFFFFF800
0007FFFFFFFFFFFFC000
00007FFFFFFFFFF80000
ENDCHAR
STARTCHAR 00D5
ENCODING 213
SWIDTH 890 0
DWIDTH 89 0
BBX 78 90 5 0
BITMAP
0007FFFFFFFFFFFFC000
0007FFFFFFFFFFFFC000
0007FFFFFFFFFFFFC000
0007FFFFFFFFFFFFC000
0007FFFFFFFFFFFFC000
0007FFFFFFFFFFFFC000
0007FFFFFFFFFFFFC000
0007FFFFFFFFFFFFC000
0007FFFFFFFFFFFFC000
0007FFFFFFFFFFFFC000
0007FFFFFFFFFFFFC000
00000000000000000000
00000000000000000000
00000000000000000000
00000000000000000000
00000000000000000000
00000000000000000000
00000000000000000000
00000000000000000000
00000000000000000000
00000000000000000000
00000000000000000000
00003FFFFFFFFFF80000
0007FFFFFFFFFFFFC000
003FFFFFFFFFFFFFF800
00FFFFFFFFFFFFFFFE00
01FFFFFFFFFFFFFFFF00
03FFFFFFFFFFFFFFFF80
07FFFFFFFFFFFFFFFFC0
0FFFFFFFFFFFFFFFFFE0
1FFFFFFFFFFFFFFFFFE0
1FFFFFFFFFFFFFFFFFF0
3FFFFFFFFFFFFFFFFFF0
3FFFFFFFFFFFFFFFFFF8
3FFFFFFFFFFFFFFFFFF8
7FFFFC00000000FFFFF8
7FFFE0000000000FFFFC
7FFFC00000000007FFFC
7FFF800000000003FFFC
7FFF000000000003FFFC
7FFF000000000001FFFC
FFFF000000000001FFFC
FFFF000000000001FFFC
FFFF000000000001FFFC
FFFF000000000001FFFC
FFFF000000000001FFFC
FFFF000000000001FFFC
FFFF000000000001FFFC
FFFF000000000001FFFC
FFFF000000000001FFFC
FFFF000000000001FFFC
FFFF000000000001FFFC
FFFF000000000001FFFC
FFFF000000000001FFFC
FFFF000000000001FFFC
FFFF000000000001FFFC
FFFF000000000001FFFC
FFFF000000000001FFFC
FFFF000000000001FFFC
FFFF000000000001FFFC
FFFF000000000001FFFC
FFFF000000000001FFFC
FFFF000000000001FFFC
FFFF000000000001FFFC
FFFF000000000001FFFC
FFFF000000000001FFFC
FFFF000000000001FFFC
FFFF000000000001FFFC
FFFF000000000001FFFC
FFFF000000000001FFFC
FFFF000000000001FFFC
7FFF000000000001FFFC
7FFF000000000003FFFC
7FFF800000000003FFFC
7FFF800000000007FFFC
7FFFE0000000000FFFFC
7FFFF8000000007FFFF8
3FFFFFFFFFFFFFFFFFF8
3FFFFFFFFFFFFFFFFFF8
3FFFFFFFFFFFFFFFFFF0
1FFFFFFFFFFFFFFFFFF0
1FFFFFFFFFFFFFFFFFE0
0FFFFFFFFFFFFFFFFFE0
07FFFFFFFFFFFFFFFFC0
03FFFFFFFFFFFFFFFF80
01FFFFFFFFFFFFFFFF00
00FFFFFFFFFFFFFFFE00
003FFFFFFFFFFFFFF800
0007FFFFFFFFFFFFC000
00007FFFFFFFFFF80000
ENDCHAR
STARTCHAR 00D6
ENCODING 214
SWIDTH 890 0
DWIDTH 89 0
BBX 78 86 5 0
BITMAP
000007FF0001FF800000
00000FFF8003FFE00000
00001FFFC007FFE00000
00001FFFC007FFF00000
00001FFFC007FFF00000
00001FFFC007FFF00000
00001FFFC007FFF00000
00001FFFC007FFF00000
00001FFFC007FFF00000
00001FFFC007FFF00000
00001FFFC007FFF00000
00001FFFC007FFF00000
00001FFFC007FFE00000
00000FFF8003FFE00000
000003FF0001FF800000
00000000000000000000
00000000000000000000
00000000000000000000
00003FFFFFFFFFF80000
0007FFFFFFFFFFFFC000
003FFFFFFFFFFFFFF800
00FFFFFFFFFFFFFFFE00
01FFFFFFFFFFFFFFFF00
03FFFFFFFFFFFFFFFF80
07FFFFFFFFFFFFFFFFC0
0FFFFFFFFFFFFFFFFFE0
1FFFFFFFFFFFFFFFFFE0
1FFFFFFFFFFFFFFFFFF0
3FFFFFFFFFFFFFFFFFF0
3FFFFFFFFFFFFFFFFFF8
3FFFFFFFFFFFFFFFFFF8
7FFFFC00000000FFFFF8
7FFFE0000000000FFFFC
7FFFC00000000007FFFC
7FFF800000000003FFFC
7FFF000000000003FFFC
7FFF000000000001FFFC
FFFF000000000001FFFC
FFFF000000000001FFFC
FFFF000000000001FFFC
FFFF000000000001FFFC
FFFF000000000001FFFC
FFFF000000000001FFFC
FFFF000000000001FFFC
FFFF000000000001FFFC
FFFF000000000001FFFC
FFFF000000000001FFFC
FFFF000000000001FFFC
FFFF000000000001FFFC
FFFF000000000001FFFC
FFFF000000000001FFFC
FFFF000000000001FFFC
FFFF000000000001FFFC
FFFF000000000001FFFC
FFFF000000000001FFFC
FFFF000000000001FFFC
FFFF000000000001FFFC
FFFF000000000001FFFC
FFFF000000000001FFFC
FFFF000000000001FFFC
FFFF000000000001FFFC
FFFF000000000001FFFC
FFFF000000000001FFFC
FFFF000000000001FFFC
FFFF000000000001FFFC
FFFF000000000001FFFC
FFFF000000000001FFFC
7FFF000000000001FFFC
7FFF000000000003FFFC
7FFF800000000003FFFC
7FFF800000000007FFFC
7FFFE0000000000FFFFC
7FFFF8000000007FFFF8
3FFFFFFFFFFFFFFFFFF8
3FFFFFFFFFFFFFFFFFF8
3FFFFFFFFFFFFFFFFFF0
1FFFFFFFFFFFFFFFFFF0
1FFFFFFFFFFFFFFFFFE0
0FFFFFFFFFFFFFFFFFE0
07FFFFFFFFFFFFFFFFC0
03FFFFFFFFFFFFFFFF80
01FFFFFFFFFFFFFFFF00
00FFFFFFFFFFFFFFFE00
003FFFFFFFFFFFFFF800
0007FFFFFFFFFFFFC000
00007FFFFFFFFFF80000
ENDCHAR
STARTCHAR 00D7
ENCODING 215
SWIDTH 590 0
DWIDTH 59 0
BBX 39 41 10 15
BITMAP
0200000080
07000001C0
0F800003E0
1FC00007F0
3FE0000FF8
7FF0001FFC
FFF8003FFE
FFFC007FFE
7FFE00FFFC
3FFF01FFF8
1FFF83FFF0
0FFFC7FFE0
07FFEFFFC0
03FFFFFF80
01FFFFFF00
00FFFFFE00
007FFFFC00
003FFFF800
001FFFF000
000FFFE000
0007FFC000
000FFFE000
001FFFF000
003FFFF800
007FFFFC00
00FFFFFE00
01FFFFFF00
03FFFFFF80
07FFEFFFC0
0FFFC7FFE0
1FFF83FFF0
3FFF01FFF8
7FFE00FFFC
FFFC007FFE
FFF8003FFE
7FF0001FFC
3FE0000FF8
1FC00007F0
0F800003E0
07000001C0
0200000080
ENDCHAR
STARTCHAR 00D8
ENCODING 216
SWIDTH 890 0
DWIDTH 89 0
BBX 78 86 5 -9
BITMAP
0000000000000001FFFC
0000000000000003FFF8
0000000000000007FFF8
000000000000000FFFF0
000000000000000FFFE0
000000000000001FFFC0
000000000000003FFFC0
000000000000007FFF80
000000000000007FFF00
00003FFFFFFFFFFFFE00
0007FFFFFFFFFFFFFE00
003FFFFFFFFFFFFFFC00
00FFFFFFFFFFFFFFFC00
01FFFFFFFFFFFFFFFF00
03FFFFFFFFFFFFFFFF80
07FFFFFFFFFFFFFFFFC0
0FFFFFFFFFFFFFFFFFE0
1FFFFFFFFFFFFFFFFFE0
1FFFFFFFFFFFFFFFFFF0
3FFFFFFFFFFFFFFFFFF0
3FFFFFFFFFFFFFFFFFF8
3FFFFFFFFFFFFFFFFFF8
7FFFFC000001FFFFFFF8
7FFFE0000003FFFFFFFC
7FFFC0000007FFF7FFFC
7FFF8000000FFFF3FFFC
7FFF0000000FFFE3FFFC
7FFF0000001FFFC1FFFC
FFFF0000003FFFC1FFFC
FFFF0000003FFF81FFFC
FFFF0000007FFF01FFFC
FFFF000000FFFE01FFFC
FFFF000001FFFE01FFFC
FFFF000001FFFC01FFFC
FFFF000003FFF801FFFC
FFFF000007FFF001FFFC
FFFF00000FFFF001FFFC
FFFF00000FFFE001FFFC
FFFF00001FFFC001FFFC
FFFF00003FFFC001FFFC
FFFF00003FFF8001FFFC
FFFF00007FFF0001FFFC
FFFF0000FFFE0001FFFC
FFFF0001FFFE0001FFFC
FFFF0001FFFC0001FFFC
FFFF0003FFF80001FFFC
FFFF0007FFF00001FFFC
FFFF000FFFF00001FFFC
FFFF000FFFE00001FFFC
FFFF001FFFC00001FFFC
FFFF003FFFC00001FFFC
FFFF003FFF800001FFFC
FFFF007FFF000001FFFC
FFFF00FFFE000001FFFC
FFFF01FFFE000001FFFC
FFFF01FFFC000001FFFC
FFFF03FFF8000001FFFC
FFFF07FFF0000001FFFC
7FFF0FFFF0000001FFFC
7FFF0FFFE0000003FFFC
7FFF9FFFC0000003FFFC
7FFFBFFFC0000007FFFC
7FFFFFFF8000000FFFFC
7FFFFFFF0000007FFFF8
3FFFFFFFFFFFFFFFFFF8
3FFFFFFFFFFFFFFFFFF8
3FFFFFFFFFFFFFFFFFF0
1FFFFFFFFFFFFFFFFFF0
1FFFFFFFFFFFFFFFFFE0
0FFFFFFFFFFFFFFFFFE0
07FFFFFFFFFFFFFFFFC0
07FFFFFFFFFFFFFFFF80
01FFFFFFFFFFFFFFFF00
00FFFFFFFFFFFFFFFE00
007FFFFFFFFFFFFFF800
00FFFFFFFFFFFFFFC000
01FFFFFFFFFFFFF80000
01FFFC00000000000000
03FFF800000000000000
07FFF000000000000000
0FFFF000000000000000
0FFFE000000000000000
1FFFC000000000000000
3FFF8000000000000000
7FFF8000000000000000
7FFF0000000000000000
ENDCHAR
STARTCHAR 00D9
ENCODING 217
SWIDTH 890 0
DWIDTH 89 0
BBX 77 97 6 0
BITMAP
00000FFFE00000000000
00000FFFF00000000000
000007FFF00000000000
000003FFF80000000000
000001FFF80000000000
000001FFFC0000000000
000000FFFE0000000000
0000007FFE0000000000
0000007FFF0000000000
0000003FFF0000000000
0000001FFF8000000000
0000000FFFC000000000
0000000FFFC000000000
00000007FFE000000000
00000003FFE000000000
00000003FFF000000000
00000001FFF000000000
00000000FFF800000000
000000007FFC00000000
000000007FFC00000000
000000003FFE00000000
000000001FFE00000000
00000000000000000000
00000000000000000000
00000000000000000000
00000000000000000000
00000000000000000000
00000000000000000000
00000000000000000000
FFFE000000000003FFF8
FFFE000000000003FFF8
FFFE000000000003FFF8
FFFE000000000003FFF8
FFFE000000000003FFF8
FFFE000000000003FFF8
FFFE000000000003FFF8
FFFE000000000003FFF8
FFFE000000000003FFF8
FFFE000000000003FFF8
FFFE000000000003FFF8
FFFE000000000003FFF8
FFFE000000000003FFF8
FFFE000000000003FFF8
FFFE000000000003FFF8
FFFE000000000003FFF8
FFFE000000000003FFF8
FFFE000000000003FFF8
FFFE000000000003FFF8
FFFE000000000003FFF8
FFFE000000000003FFF8
FFFE000000000003FFF8
FFFE000000000003FFF8
FFFE000000000003FFF8
FFFE000000000003FFF8
FFFE000000000003FFF8
FFFE000000000003FFF8
FFFE000000000003FFF8
FFFE000000000003FFF8
FFFE000000000003FFF8
FFFE000000000003FFF8
FFFE000000000003FFF8
FFFE000000000003FFF8
FFFE000000000003FFF8
FFFE000000000003FFF8
FFFE000000000003FFF8
FFFE000000000003FFF8
FFFE000000000003FFF8
FFFE000000000003FFF8
FFFE000000000003FFF8
FFFE000000000003FFF8
FFFE000000000003FFF8
FFFE000000000003FFF8
FFFE000000000003FFF8
FFFE000000000003FFF8
FFFE000000000003FFF8
FFFE000000000003FFF8
FFFE000000000003FFF8
FFFE000000000003FFF8
FFFF000000000007FFF8
FFFF000000000007FFF8
FFFF000000000007FFF8
FFFF80000000000FFFF8
FFFFE0000000003FFFF8
7FFFF800000000FFFFF0
7FFFFFFFFFFFFFFFFFF0
7FFFFFFFFFFFFFFFFFF0
7FFFFFFFFFFFFFFFFFE0
3FFFFFFFFFFFFFFFFFE0
3FFFFFFFFFFFFFFFFFC0
1FFFFFFFFFFFFFFFFFC0
0FFFFFFFFFFFFFFFFF80
07FFFFFFFFFFFFFFFF00
03FFFFFFFFFFFFFFFE00
01FFFFFFFFFFFFFFFC00
007FFFFFFFFFFFFFF000
000FFFFFFFFFFFFF8000
00007FFFFFFFFFF00000
ENDCHAR
STARTCHAR 00DA
ENCODING 218
SWIDTH 890 0
DWIDTH 89 0
BBX 77 97 6 0
BITMAP
00000000003FFF800000
00000000007FFF000000
0000000000FFFF000000
0000000000FFFE000000
0000000001FFFC000000
0000000001FFFC000000
0000000003FFF8000000
0000000003FFF0000000
0000000007FFE0000000
000000000FFFE0000000
000000000FFFC0000000
000000001FFF80000000
000000001FFF00000000
000000003FFF00000000
000000003FFE00000000
000000007FFC00000000
00000000FFFC00000000
00000000FFF800000000
00000001FFF000000000
00000001FFE000000000
00000003FFE000000000
00000003FFC000000000
00000000000000000000
00000000000000000000
00000000000000000000
00000000000000000000
00000000000000000000
00000000000000000000
00000000000000000000
FFFE000000000003FFF8
FFFE000000000003FFF8
FFFE000000000003FFF8
FFFE000000000003FFF8
FFFE000000000003FFF8
FFFE000000000003FFF8
FFFE000000000003FFF8
FFFE000000000003FFF8
FFFE000000000003FFF8
FFFE000000000003FFF8
FFFE000000000003FFF8
FFFE000000000003FFF8
FFFE000000000003FFF8
FFFE000000000003FFF8
FFFE000000000003FFF8
FFFE000000000003FFF8
FFFE000000000003FFF8
FFFE000000000003FFF8
FFFE000000000003FFF8
FFFE000000000003FFF8
FFFE000000000003FFF8
FFFE000000000003FFF8
FFFE000000000003FFF8
FFFE000000000003FFF8
FFFE000000000003FFF8
FFFE000000000003FFF8
FFFE000000000003FFF8
FFFE000000000003FFF8
FFFE000000000003FFF8
FFFE000000000003FFF8
FFFE000000000003FFF8
FFFE000000000003FFF8
FFFE000000000003FFF8
FFFE000000000003FFF8
FFFE000000000003FFF8
FFFE000000000003FFF8
FFFE000000000003FFF8
FFFE000000000003FFF8
FFFE000000000003FFF8
FFFE000000000003FFF8
FFFE000000000003FFF8
FFFE000000000003FFF8
FFFE000000000003FFF8
FFFE000000000003FFF8
FFFE000000000003FFF8
FFFE000000000003FFF8
FFFE000000000003FFF8
FFFE000000000003FFF8
FFFE000000000003FFF8
FFFF000000000007FFF8
FFFF000000000007FFF8
FFFF000000000007FFF8
FFFF80000000000FFFF8
FFFFE0000000003FFFF8
7FFFF800000000FFFFF0
7FFFFFFFFFFFFFFFFFF0
7FFFFFFFFFFFFFFFFFF0
7FFFFFFFFFFFFFFFFFE0
3FFFFFFFFFFFFFFFFFE0
3FFFFFFFFFFFFFFFFFC0
1FFFFFFFFFFFFFFFFFC0
0FFFFFFFFFFFFFFFFF80
07FFFFFFFFFFFFFFFF00
03FFFFFFFFFFFFFFFE00
01FFFFFFFFFFFFFFFC00
007FFFFFFFFFFFFFF000
000FFFFFFFFFFFFF8000
00007FFFFFFFFFF00000
ENDCHAR
STARTCHAR 00DB
ENCODING 219
SWIDTH 890 0
DWIDTH 89 0
BBX 77 98 6 0
BITMAP
000000001FC000000000
00000000FFF000000000
00000001FFFC00000000
00000003FFFE00000000
00000007FFFE00000000
00000007FFFF00000000
0000000FFFFF80000000
0000001FFFFFC0000000
0000003FFFFFC0000000
0000003FFFFFE0000000
0000007FFFFFF0000000
000000FFFFFFF8000000
000001FFF9FFF8000000
000001FFF9FFFC000000
000003FFF0FFFE000000
000007FFE07FFF000000
00000FFFE03FFF000000
00000FFFC03FFF800000
00001FFF801FFFC00000
00003FFF000FFFE00000
00007FFF0007FFE00000
00007FFE0007FFF00000
0000FFFC0003FFF80000
0001FFFC0001FFFC0000
0003FFF80000FFFC0000
0003FFF00000FFFE0000
0007FFE000007FFF0000
00000000000000000000
00000000000000000000
00000000000000000000
FFFE000000000003FFF8
FFFE000000000003FFF8
FFFE000000000003FFF8
FFFE000000000003FFF8
FFFE000000000003FFF8
FFFE000000000003FFF8
FFFE000000000003FFF8
FFFE000000000003FFF8
FFFE000000000003FFF8
FFFE000000000003FFF8
FFFE000000000003FFF8
FFFE000000000003FFF8
FFFE000000000003FFF8
FFFE000000000003FFF8
FFFE000000000003FFF8
FFFE000000000003FFF8
FFFE000000000003FFF8
FFFE000000000003FFF8
FFFE000000000003FFF8
FFFE000000000003FFF8
FFFE000000000003FFF8
FFFE000000000003FFF8
FFFE000000000003FFF8
FFFE000000000003FFF8
FFFE000000000003FFF8
FFFE000000000003FFF8
FFFE000000000003FFF8
FFFE000000000003FFF8
FFFE000000000003FFF8
FFFE000000000003FFF8
FFFE000000000003FFF8
FFFE000000000003FFF8
FFFE000000000003FFF8
FFFE000000000003FFF8
FFFE000000000003FFF8
FFFE000000000003FFF8
FFFE000000000003FFF8
FFFE000000000003FFF8
FFFE000000000003FFF8
FFFE000000000003FFF8
FFFE000000000003FFF8
FFFE000000000003FFF8
FFFE000000000003FFF8
FFFE000000000003FFF8
FFFE000000000003FFF8
FFFE000000000003FFF8
FFFE000000000003FFF8
FFFE000000000003FFF8
FFFE000000000003FFF8
FFFF000000000007FFF8
FFFF000000000007FFF8
FFFF000000000007FFF8
FFFF80000000000FFFF8
FFFFE0000000003FFFF8
7FFFF800000000FFFFF0
7FFFFFFFFFFFFFFFFFF0
7FFFFFFFFFFFFFFFFFF0
7FFFFFFFFFFFFFFFFFE0
3FFFFFFFFFFFFFFFFFE0
3FFFFFFFFFFFFFFFFFC0
1FFFFFFFFFFFFFFFFFC0
0FFFFFFFFFFFFFFFFF80
07FFFFFFFFFFFFFFFF00
03FFFFFFFFFFFFFFFE00
01FFFFFFFFFFFFFFFC00
007FFFFFFFFFFFFFF000
000FFFFFFFFFFFFF8000
00007FFFFFFFFFF00000
ENDCHAR
STARTCHAR 00DC
ENCODING 220
SWIDTH 890 0
DWIDTH 89 0
BBX 77 86 6 0
BITMAP
00000FFE0003FF000000
00001FFF0007FFC00000
00003FFF800FFFC00000
00003FFF800FFFE00000
00003FFF800FFFE00000
00003FFF800FFFE00000
00003FFF800FFFE00000
00003FFF800FFFE00000
00003FFF800FFFE00000
00003FFF800FFFE00000
00003FFF800FFFE00000
00003FFF800FFFE00000
00003FFF800FFFC00000
00001FFF0007FFC00000
000007FE0003FF000000
00000000000000000000
00000000000000000000
00000000000000000000
FFFE000000000003FFF8
FFFE000000000003FFF8
FFFE000000000003FFF8
FFFE000000000003FFF8
FFFE000000000003FFF8
FFFE000000000003FFF8
FFFE000000000003FFF8
FFFE000000000003FFF8
FFFE000000000003FFF8
FFFE000000000003FFF8
FFFE000000000003FFF8
FFFE000000000003FFF8
FFFE000000000003FFF8
FFFE000000000003FFF8
FFFE000000000003FFF8
FFFE000000000003FFF8
FFFE000000000003FFF8
FFFE000000000003FFF8
FFFE000000000003FFF8
FFFE000000000003FFF8
FFFE000000000003FFF8
FFFE000000000003FFF8
FFFE000000000003FFF8
FFFE000000000003FFF8
FFFE000000000003FFF8
FFFE000000000003FFF8
FFFE000000000003FFF8
FFFE000000000003FFF8
FFFE000000000003FFF8
FFFE000000000003FFF8
FFFE000000000003FFF8
FFFE000000000003FFF8
FFFE000000000003FFF8
FFFE000000000003FFF8
FFFE000000000003FFF8
FFFE000000000003FFF8
FFFE000000000003FFF8
FFFE000000000003FFF8
FFFE000000000003FFF8
FFFE000000000003FFF8
FFFE000000000003FFF8
FFFE000000000003FFF8
FFFE000000000003FFF8
FFFE000000000003FFF8
FFFE000000000003FFF8
FFFE000000000003FFF8
FFFE000000000003FFF8
FFFE000000000003FFF8
FFFE000000000003FFF8
FFFF000000000007FFF8
FFFF000000000007FFF8
FFFF000000000007FFF8
FFFF80000000000FFFF8
FFFFE0000000003FFFF8
7FFFF800000000FFFFF0
7FFFFFFFFFFFFFFFFFF0
7FFFFFFFFFFFFFFFFFF0
7FFFFFFFFFFFFFFFFFE0
3FFFFFFFFFFFFFFFFFE0
3FFFFFFFFFFFFFFFFFC0
1FFFFFFFFFFFFFFFFFC0
0FFFFFFFFFFFFFFFFF80
07FFFFFFFFFFFFFFFF00
03FFFFFFFFFFFFFFFE00
01FFFFFFFFFFFFFFFC00
007FFFFFFFFFFFFFF000
000FFFFFFFFFFFFF8000
00007FFFFFFFFFF00000
ENDCHAR
ENDFONT
